%TF.GenerationSoftware,KiCad,Pcbnew,(6.0.5-0)*%
%TF.CreationDate,2022-06-13T17:31:05+02:00*%
%TF.ProjectId,Transportino,5472616e-7370-46f7-9274-696e6f2e6b69,v01*%
%TF.SameCoordinates,Original*%
%TF.FileFunction,Copper,L2,Bot*%
%TF.FilePolarity,Positive*%
%FSLAX46Y46*%
G04 Gerber Fmt 4.6, Leading zero omitted, Abs format (unit mm)*
G04 Created by KiCad (PCBNEW (6.0.5-0)) date 2022-06-13 17:31:05*
%MOMM*%
%LPD*%
G01*
G04 APERTURE LIST*
G04 Aperture macros list*
%AMRoundRect*
0 Rectangle with rounded corners*
0 $1 Rounding radius*
0 $2 $3 $4 $5 $6 $7 $8 $9 X,Y pos of 4 corners*
0 Add a 4 corners polygon primitive as box body*
4,1,4,$2,$3,$4,$5,$6,$7,$8,$9,$2,$3,0*
0 Add four circle primitives for the rounded corners*
1,1,$1+$1,$2,$3*
1,1,$1+$1,$4,$5*
1,1,$1+$1,$6,$7*
1,1,$1+$1,$8,$9*
0 Add four rect primitives between the rounded corners*
20,1,$1+$1,$2,$3,$4,$5,0*
20,1,$1+$1,$4,$5,$6,$7,0*
20,1,$1+$1,$6,$7,$8,$9,0*
20,1,$1+$1,$8,$9,$2,$3,0*%
G04 Aperture macros list end*
%TA.AperFunction,ComponentPad*%
%ADD10RoundRect,0.250000X-0.600000X-0.725000X0.600000X-0.725000X0.600000X0.725000X-0.600000X0.725000X0*%
%TD*%
%TA.AperFunction,ComponentPad*%
%ADD11O,1.700000X1.950000*%
%TD*%
%TA.AperFunction,ComponentPad*%
%ADD12R,2.000000X2.000000*%
%TD*%
%TA.AperFunction,ComponentPad*%
%ADD13C,2.000000*%
%TD*%
%TA.AperFunction,ComponentPad*%
%ADD14O,2.200000X3.500000*%
%TD*%
%TA.AperFunction,ComponentPad*%
%ADD15R,1.500000X2.500000*%
%TD*%
%TA.AperFunction,ComponentPad*%
%ADD16O,1.500000X2.500000*%
%TD*%
%TA.AperFunction,ComponentPad*%
%ADD17RoundRect,0.250000X-0.600000X-0.750000X0.600000X-0.750000X0.600000X0.750000X-0.600000X0.750000X0*%
%TD*%
%TA.AperFunction,ComponentPad*%
%ADD18O,1.700000X2.000000*%
%TD*%
%TA.AperFunction,ComponentPad*%
%ADD19O,1.250000X0.950000*%
%TD*%
%TA.AperFunction,ComponentPad*%
%ADD20O,0.890000X1.550000*%
%TD*%
%TA.AperFunction,ViaPad*%
%ADD21C,1.600000*%
%TD*%
%TA.AperFunction,ViaPad*%
%ADD22C,0.800000*%
%TD*%
%TA.AperFunction,Conductor*%
%ADD23C,1.600000*%
%TD*%
%TA.AperFunction,Conductor*%
%ADD24C,0.180000*%
%TD*%
%TA.AperFunction,Conductor*%
%ADD25C,0.600000*%
%TD*%
%TA.AperFunction,Conductor*%
%ADD26C,1.200000*%
%TD*%
G04 APERTURE END LIST*
D10*
%TO.P,J3,1,Pin_1*%
%TO.N,MotorB0*%
X182372000Y-102362000D03*
D11*
%TO.P,J3,2,Pin_2*%
%TO.N,MotorB1*%
X184872000Y-102362000D03*
%TO.P,J3,3,Pin_3*%
%TO.N,MotorBENC0*%
X187372000Y-102362000D03*
%TD*%
D10*
%TO.P,J1,1,Pin_1*%
%TO.N,MotorA0*%
X159512000Y-102362000D03*
D11*
%TO.P,J1,2,Pin_2*%
%TO.N,MotorA1*%
X162012000Y-102362000D03*
%TO.P,J1,3,Pin_3*%
%TO.N,MotorAENC0*%
X164512000Y-102362000D03*
%TD*%
D10*
%TO.P,J2,1,Pin_1*%
%TO.N,MotorAENC1*%
X170942000Y-102362000D03*
D11*
%TO.P,J2,2,Pin_2*%
%TO.N,+3V3*%
X173442000Y-102362000D03*
%TO.P,J2,3,Pin_3*%
%TO.N,GND*%
X175942000Y-102362000D03*
%TD*%
D10*
%TO.P,J4,1,Pin_1*%
%TO.N,MotorBENC1*%
X193762000Y-102379000D03*
D11*
%TO.P,J4,2,Pin_2*%
%TO.N,+3V3*%
X196262000Y-102379000D03*
%TO.P,J4,3,Pin_3*%
%TO.N,GND*%
X198762000Y-102379000D03*
%TD*%
D12*
%TO.P,BZ1,1,-*%
%TO.N,BUZZ*%
X144790000Y-101092000D03*
D13*
%TO.P,BZ1,2,+*%
%TO.N,GND*%
X152390000Y-101092000D03*
%TD*%
D14*
%TO.P,SW2,*%
%TO.N,*%
X159802000Y-63468000D03*
X151602000Y-63468000D03*
D15*
%TO.P,SW2,1,A*%
%TO.N,BUCK_CONVERTER*%
X157702000Y-63468000D03*
D16*
%TO.P,SW2,2,B*%
%TO.N,+5V*%
X155702000Y-63468000D03*
%TO.P,SW2,3,C*%
%TO.N,VBUS*%
X153702000Y-63468000D03*
%TD*%
D17*
%TO.P,BT1,1,+*%
%TO.N,+12V*%
X203982000Y-64499000D03*
D18*
%TO.P,BT1,2,-*%
%TO.N,GND*%
X206482000Y-64499000D03*
%TD*%
D19*
%TO.P,J5,6,Shield*%
%TO.N,GND*%
X144989229Y-63844597D03*
D20*
X145989229Y-61144597D03*
D19*
X139989229Y-63844597D03*
D20*
X138989229Y-61144597D03*
%TD*%
D21*
%TO.N,+12V*%
X202946000Y-93980000D03*
D22*
X186690000Y-73152000D03*
D21*
X203503000Y-84279000D03*
D22*
X186690000Y-65278000D03*
%TO.N,GND*%
X140970000Y-80264000D03*
X171958000Y-72898000D03*
X157988000Y-82550000D03*
X156210000Y-70104000D03*
X199644000Y-76708000D03*
X169418000Y-89154000D03*
X144272000Y-92710000D03*
D21*
X196088000Y-88646000D03*
D22*
X171958000Y-67310000D03*
X199136000Y-63246000D03*
X156423500Y-68256364D03*
X137126000Y-84870000D03*
X154940000Y-94488000D03*
X158183693Y-91208738D03*
D21*
X196088000Y-92710000D03*
D22*
X140970000Y-87122000D03*
X136144000Y-90170000D03*
X169418000Y-94234000D03*
X144272000Y-89408000D03*
X151892000Y-82296000D03*
%TO.N,BUZZ*%
X153578575Y-93311329D03*
X153670000Y-99314000D03*
%TO.N,+3V3*%
X159766000Y-87630000D03*
X162711947Y-93877947D03*
X160020000Y-74422000D03*
X161544000Y-97028000D03*
X204470000Y-96774000D03*
X156242444Y-91142143D03*
X160020000Y-70104000D03*
X132080000Y-80264000D03*
X153924000Y-85090000D03*
X128778000Y-94488000D03*
X151384000Y-93544500D03*
X128524000Y-77216000D03*
X204470000Y-89662000D03*
X205486000Y-100838000D03*
X159076500Y-84074000D03*
X151468202Y-89238202D03*
X159766000Y-94234000D03*
X155448000Y-82804000D03*
X153924000Y-69850000D03*
X204470000Y-93980000D03*
X161798000Y-91007460D03*
X132759949Y-91103949D03*
X137922000Y-78232000D03*
X173442000Y-79756000D03*
%TO.N,+1V1*%
X157298064Y-85783824D03*
X159076500Y-90130595D03*
X158978358Y-86900351D03*
X155320316Y-93091669D03*
%TO.N,XIN*%
X165608000Y-89154000D03*
X165608000Y-85344000D03*
X165608000Y-91766500D03*
%TO.N,Net-(C18-Pad1)*%
X166624000Y-94234000D03*
X166116000Y-83312000D03*
X166624000Y-86614000D03*
%TO.N,+5V*%
X155702000Y-69088000D03*
%TO.N,Net-(C24-Pad2)*%
X130302000Y-97028000D03*
X130810000Y-94996000D03*
%TO.N,BUCK_CONVERTER*%
X170434000Y-67056000D03*
X170403250Y-75153250D03*
%TO.N,STATUS_LED*%
X152908000Y-94052500D03*
X152908000Y-98044000D03*
%TO.N,MotorA0*%
X189230000Y-97028000D03*
X189230000Y-87630000D03*
%TO.N,MotorA1*%
X190754000Y-98298000D03*
X190754000Y-90170000D03*
%TO.N,MotorAENC0*%
X160648923Y-88415851D03*
%TO.N,MotorAENC1*%
X175260000Y-87376000D03*
X170942000Y-104316020D03*
%TO.N,MotorB0*%
X182372000Y-93980000D03*
%TO.N,MotorB1*%
X184912000Y-91440000D03*
%TO.N,MotorBENC0*%
X187198000Y-81280000D03*
%TO.N,MotorBENC1*%
X180594000Y-88900000D03*
X191770000Y-88900000D03*
X180594000Y-80737942D03*
%TO.N,VBUS*%
X153670000Y-67310000D03*
X144018000Y-66040000D03*
%TO.N,Net-(R1-Pad1)*%
X149170500Y-72390000D03*
X149305576Y-84397636D03*
%TO.N,Net-(R2-Pad1)*%
X149860000Y-70539500D03*
X149860000Y-83566000D03*
%TO.N,XOUT*%
X164084000Y-91386980D03*
X163322000Y-83312000D03*
%TO.N,QSPI_CSN*%
X145288000Y-84074000D03*
X145034000Y-78232000D03*
X145288000Y-87884000D03*
%TO.N,Net-(R7-Pad1)*%
X161544000Y-76708000D03*
X161544000Y-72898000D03*
%TO.N,SDA*%
X134874000Y-84836000D03*
X131826000Y-84836000D03*
X139700000Y-90678000D03*
X129600500Y-84903268D03*
%TO.N,SCL*%
X129286000Y-85852000D03*
X133858000Y-85852000D03*
X131064000Y-85852000D03*
X141224000Y-91694000D03*
%TO.N,INT*%
X131318000Y-92456000D03*
X147685406Y-92493374D03*
%TO.N,AD0*%
X129332424Y-95319636D03*
X148558820Y-92979330D03*
%TO.N,XDA*%
X149455777Y-92538338D03*
X149424489Y-96084489D03*
X127072489Y-96084489D03*
X127016497Y-92964000D03*
%TO.N,XCL*%
X150114000Y-106172000D03*
X128016000Y-92964000D03*
X150114000Y-93290500D03*
X128016000Y-106172000D03*
%TO.N,DRV_EN*%
X183935354Y-84796646D03*
X183896000Y-92456000D03*
%TO.N,CtrlAPWM*%
X187779499Y-90540500D03*
X188468000Y-83348106D03*
%TO.N,CtrlA0*%
X184658000Y-83820000D03*
X184658000Y-89988500D03*
%TO.N,CtrlA1*%
X186436000Y-83727626D03*
X186436000Y-88138000D03*
%TO.N,CtrlBPWM*%
X199021273Y-96612848D03*
X174236369Y-86887809D03*
X174244000Y-96128500D03*
X199136000Y-92992500D03*
%TO.N,CtrlB0*%
X197358000Y-95504000D03*
X177800000Y-94742000D03*
X177800000Y-82804000D03*
X197358000Y-91694000D03*
%TO.N,CtrlB1*%
X178562000Y-81788000D03*
X179070000Y-95576500D03*
X198120000Y-92456000D03*
X198189636Y-96058424D03*
%TO.N,QSPI_SD3*%
X141224000Y-76962000D03*
X148263500Y-83861148D03*
%TO.N,QSPI_SCLK*%
X148082000Y-73406000D03*
X147714214Y-85312866D03*
X141224000Y-75438000D03*
X141224000Y-72898000D03*
%TO.N,QSPI_SD0*%
X146812000Y-85743000D03*
X144780000Y-74422000D03*
%TO.N,QSPI_SD2*%
X145034000Y-75692000D03*
X145977500Y-86432500D03*
%TO.N,QSPI_SD1*%
X144577500Y-87122000D03*
X144526000Y-76962000D03*
%TD*%
D23*
%TO.N,+12V*%
X202946000Y-84836000D02*
X202946000Y-93980000D01*
X203503000Y-84279000D02*
X202946000Y-84836000D01*
D24*
X186690000Y-65278000D02*
X186690000Y-73152000D01*
%TO.N,GND*%
X199644000Y-63754000D02*
X199136000Y-63246000D01*
X156210000Y-70104000D02*
X156423500Y-69890500D01*
X158183693Y-91208738D02*
X154940000Y-94452431D01*
X152390000Y-101092000D02*
X154924520Y-103626520D01*
X157552489Y-82114489D02*
X157988000Y-82550000D01*
X169418000Y-94234000D02*
X169418000Y-103621040D01*
D25*
X196088000Y-88646000D02*
X196088000Y-92710000D01*
D24*
X151892000Y-82296000D02*
X152073511Y-82114489D01*
X157988000Y-91013045D02*
X158183693Y-91208738D01*
X152073511Y-82114489D02*
X157552489Y-82114489D01*
X171958000Y-72898000D02*
X171958000Y-67310000D01*
X199644000Y-76708000D02*
X199644000Y-63754000D01*
D26*
X206482000Y-76220000D02*
X196088000Y-86614000D01*
D24*
X169418000Y-89154000D02*
X169418000Y-94234000D01*
X157988000Y-82550000D02*
X157988000Y-91013045D01*
X136144000Y-85852000D02*
X137126000Y-84870000D01*
X140970000Y-87122000D02*
X140970000Y-80264000D01*
X136144000Y-90170000D02*
X136144000Y-85852000D01*
X174677480Y-103626520D02*
X175942000Y-102362000D01*
X144272000Y-92710000D02*
X144272000Y-89408000D01*
X154924520Y-103626520D02*
X169423480Y-103626520D01*
D26*
X206482000Y-64499000D02*
X206482000Y-76220000D01*
D24*
X154940000Y-94452431D02*
X154940000Y-94488000D01*
X169418000Y-103621040D02*
X169423480Y-103626520D01*
D26*
X196088000Y-86614000D02*
X196088000Y-88646000D01*
D24*
X169423480Y-103626520D02*
X174677480Y-103626520D01*
X156423500Y-69890500D02*
X156423500Y-68256364D01*
%TO.N,BUZZ*%
X153578575Y-93311329D02*
X153670000Y-93402754D01*
X153670000Y-93402754D02*
X153670000Y-99314000D01*
%TO.N,+3V3*%
X151468202Y-89238202D02*
X151468202Y-87545798D01*
X138176000Y-71374000D02*
X140462000Y-71374000D01*
X159258000Y-84074000D02*
X159076500Y-84074000D01*
X161544000Y-97028000D02*
X161544000Y-95045894D01*
X155448000Y-82804000D02*
X155448000Y-90347699D01*
X130048000Y-77216000D02*
X128524000Y-77216000D01*
X137922000Y-71628000D02*
X138176000Y-71374000D01*
X153924000Y-69850000D02*
X140462000Y-69850000D01*
X128524000Y-86065117D02*
X128778000Y-86319117D01*
X155448000Y-90347699D02*
X156242444Y-91142143D01*
X129114051Y-91103949D02*
X128778000Y-91440000D01*
X140462000Y-71374000D02*
X140462000Y-69850000D01*
X204470000Y-99822000D02*
X204470000Y-96774000D01*
X153924000Y-84328000D02*
X155448000Y-82804000D01*
X137922000Y-78232000D02*
X137922000Y-71628000D01*
X159766000Y-84582000D02*
X159258000Y-84074000D01*
X128524000Y-77216000D02*
X128524000Y-86065117D01*
X204470000Y-89662000D02*
X204470000Y-93980000D01*
X162711947Y-93877947D02*
X162711947Y-91921407D01*
X160020000Y-70104000D02*
X160020000Y-74422000D01*
X132759949Y-91103949D02*
X129114051Y-91103949D01*
X151384000Y-93544500D02*
X151384000Y-89322404D01*
X128778000Y-86319117D02*
X128778000Y-94488000D01*
X159766000Y-87630000D02*
X159766000Y-94234000D01*
X173442000Y-79756000D02*
X173442000Y-102362000D01*
X162711947Y-91921407D02*
X161798000Y-91007460D01*
X205486000Y-100838000D02*
X204470000Y-99822000D01*
X153924000Y-85090000D02*
X153924000Y-84328000D01*
X128778000Y-91440000D02*
X128778000Y-94488000D01*
X151468202Y-87545798D02*
X153924000Y-85090000D01*
X132080000Y-80264000D02*
X132080000Y-79248000D01*
X161544000Y-95045894D02*
X162711947Y-93877947D01*
X159766000Y-87630000D02*
X159766000Y-84582000D01*
X151384000Y-89322404D02*
X151468202Y-89238202D01*
X132080000Y-79248000D02*
X130048000Y-77216000D01*
%TO.N,+1V1*%
X155320316Y-93091669D02*
X155320331Y-93091669D01*
X159076500Y-90130595D02*
X159076500Y-86998493D01*
X157298064Y-91113936D02*
X157298064Y-85783824D01*
X159076500Y-86998493D02*
X158978358Y-86900351D01*
X155320331Y-93091669D02*
X157298064Y-91113936D01*
%TO.N,XIN*%
X165608000Y-89154000D02*
X165608000Y-85344000D01*
X165608000Y-91766500D02*
X165608000Y-89154000D01*
%TO.N,Net-(C18-Pad1)*%
X166624000Y-86614000D02*
X166624000Y-83820000D01*
X166624000Y-86614000D02*
X166624000Y-94234000D01*
X166624000Y-83820000D02*
X166116000Y-83312000D01*
%TO.N,+5V*%
X155702000Y-63468000D02*
X155702000Y-69088000D01*
%TO.N,Net-(C24-Pad2)*%
X130302000Y-95504000D02*
X130302000Y-97028000D01*
X130810000Y-94996000D02*
X130302000Y-95504000D01*
%TO.N,BUCK_CONVERTER*%
X170403250Y-75153250D02*
X170434000Y-75122500D01*
X170434000Y-75122500D02*
X170434000Y-67056000D01*
%TO.N,STATUS_LED*%
X152908000Y-94052500D02*
X152908000Y-98044000D01*
D25*
%TO.N,MotorA0*%
X189230000Y-97028000D02*
X189230000Y-87630000D01*
%TO.N,MotorA1*%
X190754000Y-98298000D02*
X190754000Y-90170000D01*
D24*
%TO.N,MotorAENC0*%
X163247480Y-101097480D02*
X164512000Y-102362000D01*
X160874480Y-101097480D02*
X163247480Y-101097480D01*
X160648923Y-100871923D02*
X160874480Y-101097480D01*
X160648923Y-88415851D02*
X160648923Y-100871923D01*
%TO.N,MotorAENC1*%
X175845980Y-104316020D02*
X170942000Y-104316020D01*
X175260000Y-87376000D02*
X177081520Y-89197520D01*
X177081520Y-89197520D02*
X177081520Y-103080480D01*
X177081520Y-103080480D02*
X175845980Y-104316020D01*
D25*
%TO.N,MotorB0*%
X182372000Y-102362000D02*
X182372000Y-93980000D01*
%TO.N,MotorB1*%
X184872000Y-91480000D02*
X184912000Y-91440000D01*
X184872000Y-102362000D02*
X184872000Y-91480000D01*
D24*
%TO.N,MotorBENC0*%
X186944000Y-90400882D02*
X186944000Y-101934000D01*
X187198000Y-81280000D02*
X187198000Y-90146882D01*
X186944000Y-101934000D02*
X187372000Y-102362000D01*
X187198000Y-90146882D02*
X186944000Y-90400882D01*
%TO.N,MotorBENC1*%
X191770000Y-88900000D02*
X191770000Y-100387000D01*
X180594000Y-80737942D02*
X180594000Y-88900000D01*
X191770000Y-100387000D02*
X193762000Y-102379000D01*
%TO.N,VBUS*%
X147320000Y-67056000D02*
X147574000Y-67310000D01*
X144018000Y-66040000D02*
X146304000Y-66040000D01*
X146304000Y-66040000D02*
X147320000Y-67056000D01*
X147574000Y-67310000D02*
X153670000Y-67310000D01*
%TO.N,Net-(R1-Pad1)*%
X149170500Y-83892500D02*
X149305576Y-84027576D01*
X149170500Y-72390000D02*
X149170500Y-83892500D01*
X149305576Y-84027576D02*
X149305576Y-84397636D01*
%TO.N,Net-(R2-Pad1)*%
X149860000Y-70539500D02*
X149860000Y-83566000D01*
%TO.N,XOUT*%
X164338000Y-84328000D02*
X163322000Y-83312000D01*
X164084000Y-91386980D02*
X164338000Y-91132980D01*
X164338000Y-91132980D02*
X164338000Y-84328000D01*
%TO.N,QSPI_CSN*%
X145288000Y-87884000D02*
X145288000Y-84074000D01*
X145288000Y-84074000D02*
X145288000Y-78486000D01*
X145288000Y-78486000D02*
X145034000Y-78232000D01*
%TO.N,Net-(R7-Pad1)*%
X161544000Y-76708000D02*
X161544000Y-72898000D01*
%TO.N,SDA*%
X131758732Y-84903268D02*
X131826000Y-84836000D01*
X129600500Y-84903268D02*
X131758732Y-84903268D01*
X134874000Y-84836000D02*
X135128000Y-85090000D01*
X135128000Y-85090000D02*
X135128000Y-90129117D01*
X135128000Y-90129117D02*
X135858394Y-90859511D01*
X135858394Y-90859511D02*
X139518489Y-90859511D01*
X139518489Y-90859511D02*
X139700000Y-90678000D01*
%TO.N,SCL*%
X133989051Y-85983051D02*
X133858000Y-85852000D01*
X129286000Y-85852000D02*
X131064000Y-85852000D01*
X134112000Y-91694000D02*
X133989051Y-91571051D01*
X141224000Y-91694000D02*
X134120102Y-91694000D01*
X133989051Y-91571051D02*
X133989051Y-85983051D01*
%TO.N,INT*%
X147685406Y-92493374D02*
X146779269Y-93399511D01*
X131318000Y-92456000D02*
X132261511Y-93399511D01*
X146779269Y-93399511D02*
X132261511Y-93399511D01*
%TO.N,AD0*%
X129332424Y-101553576D02*
X130160359Y-102381511D01*
X130160359Y-102381511D02*
X146079511Y-102381511D01*
X146079511Y-102381511D02*
X148558820Y-99902202D01*
X129332424Y-95319636D02*
X129332424Y-101553576D01*
X148558820Y-99902202D02*
X148558820Y-92979330D01*
%TO.N,XDA*%
X149424489Y-92569626D02*
X149424489Y-96084489D01*
X149455777Y-92538338D02*
X149424489Y-92569626D01*
X127072489Y-93019992D02*
X127016497Y-92964000D01*
X127072489Y-96084489D02*
X127072489Y-93019992D01*
%TO.N,XCL*%
X150114000Y-93290500D02*
X150114000Y-106172000D01*
X128016000Y-106172000D02*
X128016000Y-92964000D01*
%TO.N,DRV_EN*%
X183935354Y-92416646D02*
X183896000Y-92456000D01*
X183935354Y-84796646D02*
X183935354Y-92416646D01*
%TO.N,CtrlAPWM*%
X188214000Y-83602106D02*
X188214000Y-90105999D01*
X188468000Y-83348106D02*
X188214000Y-83602106D01*
X188214000Y-90105999D02*
X187779499Y-90540500D01*
%TO.N,CtrlA0*%
X184658000Y-83820000D02*
X184658000Y-89988500D01*
%TO.N,CtrlA1*%
X186436000Y-88138000D02*
X186436000Y-83727626D01*
%TO.N,CtrlBPWM*%
X199136000Y-96498121D02*
X199021273Y-96612848D01*
X174236369Y-96120869D02*
X174244000Y-96128500D01*
X199136000Y-92992500D02*
X199136000Y-96498121D01*
X174236369Y-86887809D02*
X174236369Y-96120869D01*
%TO.N,CtrlB0*%
X197358000Y-91694000D02*
X197358000Y-95504000D01*
X177800000Y-82804000D02*
X177800000Y-94742000D01*
%TO.N,CtrlB1*%
X198120000Y-95988788D02*
X198120000Y-92456000D01*
X179070000Y-82296000D02*
X178562000Y-81788000D01*
X179070000Y-95576500D02*
X179070000Y-82296000D01*
X198189636Y-96058424D02*
X198120000Y-95988788D01*
%TO.N,QSPI_SD3*%
X148367606Y-72716489D02*
X145469511Y-72716489D01*
X148263500Y-83861148D02*
X148771511Y-83353137D01*
X145469511Y-72716489D02*
X141224000Y-76962000D01*
X148771511Y-83353137D02*
X148771511Y-73120394D01*
X148771511Y-73120394D02*
X148367606Y-72716489D01*
%TO.N,QSPI_SCLK*%
X141224000Y-72898000D02*
X141224000Y-75438000D01*
X147574000Y-73914000D02*
X148082000Y-73406000D01*
X147714214Y-85312866D02*
X147574000Y-85172652D01*
X147574000Y-85172652D02*
X147574000Y-73914000D01*
%TO.N,QSPI_SD0*%
X146812000Y-76454000D02*
X144780000Y-74422000D01*
X146812000Y-85743000D02*
X146812000Y-76454000D01*
%TO.N,QSPI_SD2*%
X145977500Y-86432500D02*
X145977500Y-76635500D01*
X145977500Y-76635500D02*
X145034000Y-75692000D01*
%TO.N,QSPI_SD1*%
X144344489Y-77143511D02*
X144344489Y-86888989D01*
X144344489Y-86888989D02*
X144577500Y-87122000D01*
X144526000Y-76962000D02*
X144344489Y-77143511D01*
%TD*%
%TA.AperFunction,Conductor*%
%TO.N,GND*%
G36*
X138093726Y-60218502D02*
G01*
X138140219Y-60272158D01*
X138150323Y-60342432D01*
X138141242Y-60374541D01*
X138078689Y-60519092D01*
X138074847Y-60531204D01*
X138037552Y-60709731D01*
X138036314Y-60719263D01*
X138036229Y-60722486D01*
X138036229Y-60872482D01*
X138040704Y-60887721D01*
X138042094Y-60888926D01*
X138049777Y-60890597D01*
X139924114Y-60890597D01*
X139939353Y-60886122D01*
X139940558Y-60884732D01*
X139942229Y-60877049D01*
X139942229Y-60769405D01*
X139941906Y-60763030D01*
X139928224Y-60628330D01*
X139925670Y-60615890D01*
X139871594Y-60443333D01*
X139866585Y-60431645D01*
X139841054Y-60385586D01*
X139825523Y-60316309D01*
X139849911Y-60249633D01*
X139906475Y-60206726D01*
X139951256Y-60198500D01*
X145025605Y-60198500D01*
X145093726Y-60218502D01*
X145140219Y-60272158D01*
X145150323Y-60342432D01*
X145141242Y-60374541D01*
X145078689Y-60519092D01*
X145074847Y-60531204D01*
X145037552Y-60709731D01*
X145036314Y-60719263D01*
X145036229Y-60722486D01*
X145036229Y-60872482D01*
X145040704Y-60887721D01*
X145042094Y-60888926D01*
X145049777Y-60890597D01*
X146924114Y-60890597D01*
X146939353Y-60886122D01*
X146940558Y-60884732D01*
X146942229Y-60877049D01*
X146942229Y-60769405D01*
X146941906Y-60763030D01*
X146928224Y-60628330D01*
X146925670Y-60615890D01*
X146871594Y-60443333D01*
X146866585Y-60431645D01*
X146841054Y-60385586D01*
X146825523Y-60316309D01*
X146849911Y-60249633D01*
X146906475Y-60206726D01*
X146951256Y-60198500D01*
X208230633Y-60198500D01*
X208250018Y-60200000D01*
X208264851Y-60202310D01*
X208264855Y-60202310D01*
X208273724Y-60203691D01*
X208282626Y-60202527D01*
X208282629Y-60202527D01*
X208290012Y-60201561D01*
X208314591Y-60200767D01*
X208341442Y-60202527D01*
X208536922Y-60215340D01*
X208553262Y-60217491D01*
X208675477Y-60241801D01*
X208797696Y-60266112D01*
X208813606Y-60270375D01*
X209049600Y-60350484D01*
X209064826Y-60356791D01*
X209288342Y-60467016D01*
X209302616Y-60475257D01*
X209509829Y-60613713D01*
X209522905Y-60623746D01*
X209710278Y-60788068D01*
X209721932Y-60799722D01*
X209886254Y-60987095D01*
X209896287Y-61000171D01*
X210034743Y-61207384D01*
X210042984Y-61221658D01*
X210153209Y-61445174D01*
X210159515Y-61460398D01*
X210239625Y-61696394D01*
X210243888Y-61712304D01*
X210247677Y-61731351D01*
X210292509Y-61956738D01*
X210294660Y-61973078D01*
X210308763Y-62188236D01*
X210307733Y-62211350D01*
X210307690Y-62214854D01*
X210306309Y-62223724D01*
X210307473Y-62232626D01*
X210307473Y-62232628D01*
X210310436Y-62255283D01*
X210311500Y-62271621D01*
X210311500Y-106630633D01*
X210310000Y-106650018D01*
X210307690Y-106664851D01*
X210307690Y-106664855D01*
X210306309Y-106673724D01*
X210307473Y-106682626D01*
X210307473Y-106682629D01*
X210308439Y-106690012D01*
X210309233Y-106714591D01*
X210294660Y-106936922D01*
X210292509Y-106953262D01*
X210243889Y-107197693D01*
X210239625Y-107213606D01*
X210205312Y-107314689D01*
X210159516Y-107449600D01*
X210153209Y-107464826D01*
X210042984Y-107688342D01*
X210034743Y-107702616D01*
X209896287Y-107909829D01*
X209886254Y-107922905D01*
X209721932Y-108110278D01*
X209710278Y-108121932D01*
X209522905Y-108286254D01*
X209509829Y-108296287D01*
X209302616Y-108434743D01*
X209288342Y-108442984D01*
X209064826Y-108553209D01*
X209049602Y-108559515D01*
X208813606Y-108639625D01*
X208797696Y-108643888D01*
X208675477Y-108668199D01*
X208553262Y-108692509D01*
X208536922Y-108694660D01*
X208388134Y-108704413D01*
X208321763Y-108708763D01*
X208298650Y-108707733D01*
X208295146Y-108707690D01*
X208286276Y-108706309D01*
X208277374Y-108707473D01*
X208277372Y-108707473D01*
X208263915Y-108709233D01*
X208254714Y-108710436D01*
X208238379Y-108711500D01*
X127049367Y-108711500D01*
X127029982Y-108710000D01*
X127015149Y-108707690D01*
X127015145Y-108707690D01*
X127006276Y-108706309D01*
X126997374Y-108707473D01*
X126997371Y-108707473D01*
X126989988Y-108708439D01*
X126965409Y-108709233D01*
X126920799Y-108706309D01*
X126743078Y-108694660D01*
X126726738Y-108692509D01*
X126604523Y-108668199D01*
X126482304Y-108643888D01*
X126466394Y-108639625D01*
X126230398Y-108559515D01*
X126215174Y-108553209D01*
X125991658Y-108442984D01*
X125977384Y-108434743D01*
X125770171Y-108296287D01*
X125757095Y-108286254D01*
X125569722Y-108121932D01*
X125558068Y-108110278D01*
X125393746Y-107922905D01*
X125383713Y-107909829D01*
X125245257Y-107702616D01*
X125237016Y-107688342D01*
X125126791Y-107464826D01*
X125120484Y-107449600D01*
X125074688Y-107314689D01*
X125040375Y-107213606D01*
X125036111Y-107197693D01*
X124987491Y-106953262D01*
X124985340Y-106936922D01*
X124971476Y-106725407D01*
X124972650Y-106702232D01*
X124972334Y-106702204D01*
X124972770Y-106697344D01*
X124973576Y-106692552D01*
X124973729Y-106680000D01*
X124969773Y-106652376D01*
X124968500Y-106634514D01*
X124968500Y-92964000D01*
X126102993Y-92964000D01*
X126103683Y-92970565D01*
X126121360Y-93138749D01*
X126122955Y-93153928D01*
X126181970Y-93335556D01*
X126185273Y-93341278D01*
X126185274Y-93341279D01*
X126198681Y-93364500D01*
X126277457Y-93500944D01*
X126281875Y-93505851D01*
X126281876Y-93505852D01*
X126396830Y-93633521D01*
X126405244Y-93642866D01*
X126422050Y-93655076D01*
X126465403Y-93711297D01*
X126473989Y-93757012D01*
X126473989Y-95343093D01*
X126453987Y-95411214D01*
X126441625Y-95427403D01*
X126337868Y-95542637D01*
X126333449Y-95547545D01*
X126286356Y-95629113D01*
X126248935Y-95693928D01*
X126237962Y-95712933D01*
X126178947Y-95894561D01*
X126178257Y-95901122D01*
X126178257Y-95901124D01*
X126172723Y-95953779D01*
X126158985Y-96084489D01*
X126159675Y-96091054D01*
X126176945Y-96255366D01*
X126178947Y-96274417D01*
X126237962Y-96456045D01*
X126333449Y-96621433D01*
X126337867Y-96626340D01*
X126337868Y-96626341D01*
X126377496Y-96670352D01*
X126461236Y-96763355D01*
X126615737Y-96875607D01*
X126621765Y-96878291D01*
X126621767Y-96878292D01*
X126734739Y-96928590D01*
X126790201Y-96953283D01*
X126869817Y-96970206D01*
X126970545Y-96991617D01*
X126970550Y-96991617D01*
X126977002Y-96992989D01*
X127167976Y-96992989D01*
X127174429Y-96991617D01*
X127174442Y-96991616D01*
X127265303Y-96972302D01*
X127336093Y-96977703D01*
X127392726Y-97020519D01*
X127417220Y-97087157D01*
X127417500Y-97095548D01*
X127417500Y-105430604D01*
X127397498Y-105498725D01*
X127385136Y-105514914D01*
X127276960Y-105635056D01*
X127181473Y-105800444D01*
X127122458Y-105982072D01*
X127102496Y-106172000D01*
X127122458Y-106361928D01*
X127181473Y-106543556D01*
X127276960Y-106708944D01*
X127281378Y-106713851D01*
X127281379Y-106713852D01*
X127291783Y-106725407D01*
X127404747Y-106850866D01*
X127503843Y-106922864D01*
X127534537Y-106945164D01*
X127559248Y-106963118D01*
X127565276Y-106965802D01*
X127565278Y-106965803D01*
X127640047Y-106999092D01*
X127733712Y-107040794D01*
X127827113Y-107060647D01*
X127914056Y-107079128D01*
X127914061Y-107079128D01*
X127920513Y-107080500D01*
X128111487Y-107080500D01*
X128117939Y-107079128D01*
X128117944Y-107079128D01*
X128204888Y-107060647D01*
X128298288Y-107040794D01*
X128391953Y-106999092D01*
X128466722Y-106965803D01*
X128466724Y-106965802D01*
X128472752Y-106963118D01*
X128497464Y-106945164D01*
X128528157Y-106922864D01*
X128627253Y-106850866D01*
X128740217Y-106725407D01*
X128750621Y-106713852D01*
X128750622Y-106713851D01*
X128755040Y-106708944D01*
X128850527Y-106543556D01*
X128909542Y-106361928D01*
X128929504Y-106172000D01*
X128909542Y-105982072D01*
X128850527Y-105800444D01*
X128755040Y-105635056D01*
X128646864Y-105514914D01*
X128616146Y-105450907D01*
X128614500Y-105430604D01*
X128614500Y-101972286D01*
X128634502Y-101904165D01*
X128688158Y-101857672D01*
X128758432Y-101847568D01*
X128823012Y-101877062D01*
X128840456Y-101895575D01*
X128869941Y-101934000D01*
X128905569Y-101980431D01*
X128912119Y-101985457D01*
X128912120Y-101985458D01*
X128930410Y-101999492D01*
X128942801Y-102010360D01*
X129703575Y-102771134D01*
X129714442Y-102783524D01*
X129733504Y-102808366D01*
X129740050Y-102813389D01*
X129764891Y-102832450D01*
X129763706Y-102833994D01*
X129763707Y-102833995D01*
X129764892Y-102832451D01*
X129777565Y-102842175D01*
X129858527Y-102904300D01*
X129866157Y-102907460D01*
X129866158Y-102907461D01*
X129894993Y-102919404D01*
X129918833Y-102929279D01*
X130004119Y-102964606D01*
X130012303Y-102965683D01*
X130012305Y-102965684D01*
X130121131Y-102980011D01*
X130121136Y-102980011D01*
X130160359Y-102985175D01*
X130191394Y-102981089D01*
X130207841Y-102980011D01*
X146032029Y-102980011D01*
X146048476Y-102981089D01*
X146079511Y-102985175D01*
X146118734Y-102980011D01*
X146118739Y-102980011D01*
X146227565Y-102965684D01*
X146227567Y-102965683D01*
X146235751Y-102964606D01*
X146321037Y-102929279D01*
X146344877Y-102919404D01*
X146373712Y-102907461D01*
X146373713Y-102907460D01*
X146381343Y-102904300D01*
X146462306Y-102842175D01*
X146474978Y-102832451D01*
X146477195Y-102835341D01*
X146477196Y-102835340D01*
X146474979Y-102832450D01*
X146499820Y-102813389D01*
X146506366Y-102808366D01*
X146525428Y-102783524D01*
X146536295Y-102771134D01*
X148948439Y-100358989D01*
X148960831Y-100348121D01*
X148979126Y-100334083D01*
X148979129Y-100334080D01*
X148985675Y-100329057D01*
X149081608Y-100204034D01*
X149100207Y-100159134D01*
X149138756Y-100066068D01*
X149141915Y-100058442D01*
X149143791Y-100044197D01*
X149157320Y-99941427D01*
X149157320Y-99941425D01*
X149161406Y-99910390D01*
X149162484Y-99902202D01*
X149158398Y-99871167D01*
X149157320Y-99854720D01*
X149157320Y-97112094D01*
X149177322Y-97043973D01*
X149230978Y-96997480D01*
X149301252Y-96987376D01*
X149309519Y-96988848D01*
X149322541Y-96991616D01*
X149322544Y-96991616D01*
X149329002Y-96992989D01*
X149389500Y-96992989D01*
X149457621Y-97012991D01*
X149504114Y-97066647D01*
X149515500Y-97118989D01*
X149515500Y-105430604D01*
X149495498Y-105498725D01*
X149483136Y-105514914D01*
X149374960Y-105635056D01*
X149279473Y-105800444D01*
X149220458Y-105982072D01*
X149200496Y-106172000D01*
X149220458Y-106361928D01*
X149279473Y-106543556D01*
X149374960Y-106708944D01*
X149379378Y-106713851D01*
X149379379Y-106713852D01*
X149389783Y-106725407D01*
X149502747Y-106850866D01*
X149601843Y-106922864D01*
X149632537Y-106945164D01*
X149657248Y-106963118D01*
X149663276Y-106965802D01*
X149663278Y-106965803D01*
X149738047Y-106999092D01*
X149831712Y-107040794D01*
X149925113Y-107060647D01*
X150012056Y-107079128D01*
X150012061Y-107079128D01*
X150018513Y-107080500D01*
X150209487Y-107080500D01*
X150215939Y-107079128D01*
X150215944Y-107079128D01*
X150302888Y-107060647D01*
X150396288Y-107040794D01*
X150489953Y-106999092D01*
X150564722Y-106965803D01*
X150564724Y-106965802D01*
X150570752Y-106963118D01*
X150595464Y-106945164D01*
X150626157Y-106922864D01*
X150725253Y-106850866D01*
X150838217Y-106725407D01*
X150848621Y-106713852D01*
X150848622Y-106713851D01*
X150853040Y-106708944D01*
X150948527Y-106543556D01*
X151007542Y-106361928D01*
X151027504Y-106172000D01*
X151007542Y-105982072D01*
X150948527Y-105800444D01*
X150853040Y-105635056D01*
X150744864Y-105514914D01*
X150714146Y-105450907D01*
X150712500Y-105430604D01*
X150712500Y-102324670D01*
X151522160Y-102324670D01*
X151527887Y-102332320D01*
X151699042Y-102437205D01*
X151707837Y-102441687D01*
X151917988Y-102528734D01*
X151927373Y-102531783D01*
X152148554Y-102584885D01*
X152158301Y-102586428D01*
X152385070Y-102604275D01*
X152394930Y-102604275D01*
X152621699Y-102586428D01*
X152631446Y-102584885D01*
X152852627Y-102531783D01*
X152862012Y-102528734D01*
X153072163Y-102441687D01*
X153080958Y-102437205D01*
X153248445Y-102334568D01*
X153257907Y-102324110D01*
X153254124Y-102315334D01*
X152402812Y-101464022D01*
X152388868Y-101456408D01*
X152387035Y-101456539D01*
X152380420Y-101460790D01*
X151528920Y-102312290D01*
X151522160Y-102324670D01*
X150712500Y-102324670D01*
X150712500Y-101616196D01*
X150732502Y-101548075D01*
X150786158Y-101501582D01*
X150856432Y-101491478D01*
X150921012Y-101520972D01*
X150954909Y-101567978D01*
X151040313Y-101774163D01*
X151044795Y-101782958D01*
X151147432Y-101950445D01*
X151157890Y-101959907D01*
X151166666Y-101956124D01*
X152017978Y-101104812D01*
X152025592Y-101090868D01*
X152025461Y-101089035D01*
X152021210Y-101082420D01*
X151169710Y-100230920D01*
X151157330Y-100224160D01*
X151149680Y-100229887D01*
X151044795Y-100401042D01*
X151040313Y-100409837D01*
X150954909Y-100616022D01*
X150910361Y-100671303D01*
X150842997Y-100693724D01*
X150774206Y-100676166D01*
X150725828Y-100624204D01*
X150712500Y-100567804D01*
X150712500Y-94426883D01*
X150732502Y-94358762D01*
X150786158Y-94312269D01*
X150856432Y-94302165D01*
X150912562Y-94324948D01*
X150927248Y-94335618D01*
X150933276Y-94338302D01*
X150933278Y-94338303D01*
X151028401Y-94380654D01*
X151101712Y-94413294D01*
X151182175Y-94430397D01*
X151282056Y-94451628D01*
X151282061Y-94451628D01*
X151288513Y-94453000D01*
X151479487Y-94453000D01*
X151485939Y-94451628D01*
X151485944Y-94451628D01*
X151585825Y-94430397D01*
X151666288Y-94413294D01*
X151739599Y-94380654D01*
X151834722Y-94338303D01*
X151834724Y-94338302D01*
X151840752Y-94335618D01*
X151865478Y-94317653D01*
X151932344Y-94293796D01*
X152001496Y-94309876D01*
X152050976Y-94360789D01*
X152059370Y-94380651D01*
X152073473Y-94424056D01*
X152168960Y-94589444D01*
X152173378Y-94594351D01*
X152173379Y-94594352D01*
X152277136Y-94709586D01*
X152307854Y-94773593D01*
X152309500Y-94793896D01*
X152309500Y-97302604D01*
X152289498Y-97370725D01*
X152277136Y-97386914D01*
X152173379Y-97502148D01*
X152168960Y-97507056D01*
X152073473Y-97672444D01*
X152014458Y-97854072D01*
X152013768Y-97860633D01*
X152013768Y-97860635D01*
X152002757Y-97965398D01*
X151994496Y-98044000D01*
X152014458Y-98233928D01*
X152073473Y-98415556D01*
X152168960Y-98580944D01*
X152173378Y-98585851D01*
X152173379Y-98585852D01*
X152292325Y-98717955D01*
X152296747Y-98722866D01*
X152451248Y-98835118D01*
X152457276Y-98837802D01*
X152457278Y-98837803D01*
X152619681Y-98910109D01*
X152625712Y-98912794D01*
X152632167Y-98914166D01*
X152632176Y-98914169D01*
X152694055Y-98927322D01*
X152756528Y-98961050D01*
X152790849Y-99023200D01*
X152787690Y-99089504D01*
X152776458Y-99124072D01*
X152775768Y-99130635D01*
X152775767Y-99130642D01*
X152766520Y-99218623D01*
X152756496Y-99314000D01*
X152757186Y-99320564D01*
X152771923Y-99460776D01*
X152759151Y-99530615D01*
X152710649Y-99582461D01*
X152641816Y-99599856D01*
X152626899Y-99598395D01*
X152621704Y-99597572D01*
X152394930Y-99579725D01*
X152385070Y-99579725D01*
X152158301Y-99597572D01*
X152148554Y-99599115D01*
X151927373Y-99652217D01*
X151917988Y-99655266D01*
X151707837Y-99742313D01*
X151699042Y-99746795D01*
X151531555Y-99849432D01*
X151522093Y-99859890D01*
X151525876Y-99868666D01*
X153610290Y-101953080D01*
X153622670Y-101959840D01*
X153630320Y-101954113D01*
X153735205Y-101782958D01*
X153739687Y-101774163D01*
X153826734Y-101564012D01*
X153829783Y-101554627D01*
X153882885Y-101333446D01*
X153884428Y-101323699D01*
X153902275Y-101096930D01*
X153902275Y-101087070D01*
X153884428Y-100860301D01*
X153882885Y-100850554D01*
X153829783Y-100629373D01*
X153826734Y-100619988D01*
X153739688Y-100409839D01*
X153735202Y-100401035D01*
X153735045Y-100400779D01*
X153735015Y-100400668D01*
X153732958Y-100396631D01*
X153733806Y-100396199D01*
X153716510Y-100332244D01*
X153737970Y-100264569D01*
X153792612Y-100219239D01*
X153816284Y-100211703D01*
X153865354Y-100201273D01*
X153952288Y-100182794D01*
X153958319Y-100180109D01*
X154120722Y-100107803D01*
X154120724Y-100107802D01*
X154126752Y-100105118D01*
X154180500Y-100066068D01*
X154236569Y-100025331D01*
X154281253Y-99992866D01*
X154294422Y-99978240D01*
X154404621Y-99855852D01*
X154404622Y-99855851D01*
X154409040Y-99850944D01*
X154504527Y-99685556D01*
X154563542Y-99503928D01*
X154568078Y-99460776D01*
X154582814Y-99320565D01*
X154582814Y-99320564D01*
X154583504Y-99314000D01*
X154573480Y-99218623D01*
X154564232Y-99130635D01*
X154564232Y-99130633D01*
X154563542Y-99124072D01*
X154504527Y-98942444D01*
X154488203Y-98914169D01*
X154412341Y-98782774D01*
X154409040Y-98777056D01*
X154404621Y-98772148D01*
X154300864Y-98656914D01*
X154270146Y-98592907D01*
X154268500Y-98572604D01*
X154268500Y-93951187D01*
X154288502Y-93883066D01*
X154300858Y-93866884D01*
X154317615Y-93848273D01*
X154411187Y-93686202D01*
X154462570Y-93637209D01*
X154532283Y-93623773D01*
X154598194Y-93650159D01*
X154613940Y-93664890D01*
X154709063Y-93770535D01*
X154863564Y-93882787D01*
X154869592Y-93885471D01*
X154869594Y-93885472D01*
X155029742Y-93956774D01*
X155038028Y-93960463D01*
X155127340Y-93979447D01*
X155218372Y-93998797D01*
X155218377Y-93998797D01*
X155224829Y-94000169D01*
X155415803Y-94000169D01*
X155422255Y-93998797D01*
X155422260Y-93998797D01*
X155513292Y-93979447D01*
X155602604Y-93960463D01*
X155610890Y-93956774D01*
X155771038Y-93885472D01*
X155771040Y-93885471D01*
X155777068Y-93882787D01*
X155931569Y-93770535D01*
X156010489Y-93682885D01*
X156054937Y-93633521D01*
X156054938Y-93633520D01*
X156059356Y-93628613D01*
X156154843Y-93463225D01*
X156213858Y-93281597D01*
X156223887Y-93186182D01*
X156233130Y-93098234D01*
X156233820Y-93091669D01*
X156233130Y-93085104D01*
X156233130Y-93078498D01*
X156235958Y-93078498D01*
X156246498Y-93020890D01*
X156269937Y-92988470D01*
X157687687Y-91570720D01*
X157700078Y-91559852D01*
X157718368Y-91545818D01*
X157718369Y-91545817D01*
X157724919Y-91540791D01*
X157729945Y-91534241D01*
X157729948Y-91534238D01*
X157749004Y-91509403D01*
X157760400Y-91494552D01*
X157820853Y-91415768D01*
X157869413Y-91298533D01*
X157881159Y-91270176D01*
X157896564Y-91153161D01*
X157901728Y-91113936D01*
X157897642Y-91082899D01*
X157896564Y-91066453D01*
X157896564Y-87306430D01*
X157916566Y-87238309D01*
X157970222Y-87191816D01*
X158040496Y-87181712D01*
X158105076Y-87211206D01*
X158137603Y-87260263D01*
X158139105Y-87259594D01*
X158141789Y-87265623D01*
X158143831Y-87271907D01*
X158147134Y-87277629D01*
X158147135Y-87277630D01*
X158170562Y-87318206D01*
X158239318Y-87437295D01*
X158243736Y-87442202D01*
X158243737Y-87442203D01*
X158344387Y-87553986D01*
X158367105Y-87579217D01*
X158372447Y-87583098D01*
X158372449Y-87583100D01*
X158426061Y-87622051D01*
X158469415Y-87678273D01*
X158478000Y-87723987D01*
X158478000Y-89389199D01*
X158457998Y-89457320D01*
X158445636Y-89473509D01*
X158355194Y-89573955D01*
X158337460Y-89593651D01*
X158241973Y-89759039D01*
X158182958Y-89940667D01*
X158182268Y-89947228D01*
X158182268Y-89947230D01*
X158171719Y-90047602D01*
X158162996Y-90130595D01*
X158163686Y-90137160D01*
X158182150Y-90312831D01*
X158182958Y-90320523D01*
X158241973Y-90502151D01*
X158337460Y-90667539D01*
X158341878Y-90672446D01*
X158341879Y-90672447D01*
X158438343Y-90779581D01*
X158465247Y-90809461D01*
X158528964Y-90855754D01*
X158585690Y-90896968D01*
X158619748Y-90921713D01*
X158625776Y-90924397D01*
X158625778Y-90924398D01*
X158788181Y-90996704D01*
X158794212Y-90999389D01*
X158887613Y-91019242D01*
X158974556Y-91037723D01*
X158974561Y-91037723D01*
X158981013Y-91039095D01*
X159041500Y-91039095D01*
X159109621Y-91059097D01*
X159156114Y-91112753D01*
X159167500Y-91165095D01*
X159167500Y-93492604D01*
X159147498Y-93560725D01*
X159135136Y-93576914D01*
X159036733Y-93686202D01*
X159026960Y-93697056D01*
X158984537Y-93770535D01*
X158936729Y-93853341D01*
X158931473Y-93862444D01*
X158872458Y-94044072D01*
X158871768Y-94050633D01*
X158871768Y-94050635D01*
X158863720Y-94127206D01*
X158852496Y-94234000D01*
X158853186Y-94240565D01*
X158871485Y-94414666D01*
X158872458Y-94423928D01*
X158931473Y-94605556D01*
X159026960Y-94770944D01*
X159031378Y-94775851D01*
X159031379Y-94775852D01*
X159097056Y-94848794D01*
X159154747Y-94912866D01*
X159163760Y-94919414D01*
X159278207Y-95002565D01*
X159309248Y-95025118D01*
X159315276Y-95027802D01*
X159315278Y-95027803D01*
X159341676Y-95039556D01*
X159483712Y-95102794D01*
X159563949Y-95119849D01*
X159664056Y-95141128D01*
X159664061Y-95141128D01*
X159670513Y-95142500D01*
X159861487Y-95142500D01*
X159867939Y-95141128D01*
X159867944Y-95141128D01*
X159898226Y-95134691D01*
X159969017Y-95140093D01*
X160025650Y-95182910D01*
X160050143Y-95249548D01*
X160050423Y-95257938D01*
X160050423Y-100752500D01*
X160030421Y-100820621D01*
X159976765Y-100867114D01*
X159924423Y-100878500D01*
X158861600Y-100878500D01*
X158858354Y-100878837D01*
X158858350Y-100878837D01*
X158762692Y-100888762D01*
X158762688Y-100888763D01*
X158755834Y-100889474D01*
X158749298Y-100891655D01*
X158749296Y-100891655D01*
X158617812Y-100935522D01*
X158588054Y-100945450D01*
X158437652Y-101038522D01*
X158312695Y-101163697D01*
X158308855Y-101169927D01*
X158308854Y-101169928D01*
X158227905Y-101301252D01*
X158219885Y-101314262D01*
X158201654Y-101369226D01*
X158168432Y-101469390D01*
X158164203Y-101482139D01*
X158163503Y-101488975D01*
X158163502Y-101488978D01*
X158161338Y-101510102D01*
X158153500Y-101586600D01*
X158153500Y-103137400D01*
X158153837Y-103140646D01*
X158153837Y-103140650D01*
X158163755Y-103236232D01*
X158164474Y-103243166D01*
X158166655Y-103249702D01*
X158166655Y-103249704D01*
X158198405Y-103344870D01*
X158220450Y-103410946D01*
X158313522Y-103561348D01*
X158438697Y-103686305D01*
X158444927Y-103690145D01*
X158444928Y-103690146D01*
X158582090Y-103774694D01*
X158589262Y-103779115D01*
X158640516Y-103796115D01*
X158750611Y-103832632D01*
X158750613Y-103832632D01*
X158757139Y-103834797D01*
X158763975Y-103835497D01*
X158763978Y-103835498D01*
X158799663Y-103839154D01*
X158861600Y-103845500D01*
X160162400Y-103845500D01*
X160165646Y-103845163D01*
X160165650Y-103845163D01*
X160261308Y-103835238D01*
X160261312Y-103835237D01*
X160268166Y-103834526D01*
X160274702Y-103832345D01*
X160274704Y-103832345D01*
X160424649Y-103782319D01*
X160435946Y-103778550D01*
X160586348Y-103685478D01*
X160711305Y-103560303D01*
X160801081Y-103414660D01*
X160853852Y-103367168D01*
X160923924Y-103355744D01*
X160989048Y-103384018D01*
X160999510Y-103393805D01*
X161038022Y-103434176D01*
X161108576Y-103508135D01*
X161293542Y-103645754D01*
X161298293Y-103648170D01*
X161298297Y-103648172D01*
X161331734Y-103665172D01*
X161499051Y-103750240D01*
X161504145Y-103751822D01*
X161504148Y-103751823D01*
X161683338Y-103807463D01*
X161719227Y-103818607D01*
X161724516Y-103819308D01*
X161942489Y-103848198D01*
X161942494Y-103848198D01*
X161947774Y-103848898D01*
X161953103Y-103848698D01*
X161953105Y-103848698D01*
X162062966Y-103844573D01*
X162178158Y-103840249D01*
X162200006Y-103835665D01*
X162380147Y-103797868D01*
X162403791Y-103792907D01*
X162408750Y-103790949D01*
X162408752Y-103790948D01*
X162613256Y-103710185D01*
X162613258Y-103710184D01*
X162618221Y-103708224D01*
X162626328Y-103703305D01*
X162810757Y-103591390D01*
X162810756Y-103591390D01*
X162815317Y-103588623D01*
X162903202Y-103512361D01*
X162985412Y-103441023D01*
X162985414Y-103441021D01*
X162989445Y-103437523D01*
X163051477Y-103361870D01*
X163132240Y-103263373D01*
X163132244Y-103263367D01*
X163135624Y-103259245D01*
X163153552Y-103227750D01*
X163204632Y-103178445D01*
X163274262Y-103164583D01*
X163340333Y-103190566D01*
X163367573Y-103219716D01*
X163449441Y-103341319D01*
X163453120Y-103345176D01*
X163453122Y-103345178D01*
X163474100Y-103367168D01*
X163608576Y-103508135D01*
X163793542Y-103645754D01*
X163798293Y-103648170D01*
X163798297Y-103648172D01*
X163831734Y-103665172D01*
X163999051Y-103750240D01*
X164004145Y-103751822D01*
X164004148Y-103751823D01*
X164183338Y-103807463D01*
X164219227Y-103818607D01*
X164224516Y-103819308D01*
X164442489Y-103848198D01*
X164442494Y-103848198D01*
X164447774Y-103848898D01*
X164453103Y-103848698D01*
X164453105Y-103848698D01*
X164562966Y-103844573D01*
X164678158Y-103840249D01*
X164700006Y-103835665D01*
X164880147Y-103797868D01*
X164903791Y-103792907D01*
X164908750Y-103790949D01*
X164908752Y-103790948D01*
X165113256Y-103710185D01*
X165113258Y-103710184D01*
X165118221Y-103708224D01*
X165126328Y-103703305D01*
X165310757Y-103591390D01*
X165310756Y-103591390D01*
X165315317Y-103588623D01*
X165403202Y-103512361D01*
X165485412Y-103441023D01*
X165485414Y-103441021D01*
X165489445Y-103437523D01*
X165551477Y-103361870D01*
X165632240Y-103263373D01*
X165632244Y-103263367D01*
X165635624Y-103259245D01*
X165674719Y-103190566D01*
X165704983Y-103137400D01*
X169583500Y-103137400D01*
X169583837Y-103140646D01*
X169583837Y-103140650D01*
X169593755Y-103236232D01*
X169594474Y-103243166D01*
X169596655Y-103249702D01*
X169596655Y-103249704D01*
X169628405Y-103344870D01*
X169650450Y-103410946D01*
X169743522Y-103561348D01*
X169868697Y-103686305D01*
X169874927Y-103690145D01*
X169874928Y-103690146D01*
X170012090Y-103774694D01*
X170019262Y-103779115D01*
X170026210Y-103781420D01*
X170026211Y-103781420D01*
X170028921Y-103782319D01*
X170030531Y-103783435D01*
X170032844Y-103784513D01*
X170032659Y-103784909D01*
X170087280Y-103822751D01*
X170114515Y-103888316D01*
X170105801Y-103943921D01*
X170107473Y-103944464D01*
X170048458Y-104126092D01*
X170028496Y-104316020D01*
X170048458Y-104505948D01*
X170107473Y-104687576D01*
X170202960Y-104852964D01*
X170207378Y-104857871D01*
X170207379Y-104857872D01*
X170245485Y-104900193D01*
X170330747Y-104994886D01*
X170485248Y-105107138D01*
X170491276Y-105109822D01*
X170491278Y-105109823D01*
X170653681Y-105182129D01*
X170659712Y-105184814D01*
X170753113Y-105204667D01*
X170840056Y-105223148D01*
X170840061Y-105223148D01*
X170846513Y-105224520D01*
X171037487Y-105224520D01*
X171043939Y-105223148D01*
X171043944Y-105223148D01*
X171130888Y-105204667D01*
X171224288Y-105184814D01*
X171230319Y-105182129D01*
X171392722Y-105109823D01*
X171392724Y-105109822D01*
X171398752Y-105107138D01*
X171553253Y-104994886D01*
X171588078Y-104956209D01*
X171648524Y-104918970D01*
X171681714Y-104914520D01*
X175798498Y-104914520D01*
X175814945Y-104915598D01*
X175845980Y-104919684D01*
X175885203Y-104914520D01*
X175885208Y-104914520D01*
X175994034Y-104900193D01*
X175994036Y-104900192D01*
X176002220Y-104899115D01*
X176087506Y-104863788D01*
X176127443Y-104847246D01*
X176140181Y-104841970D01*
X176140182Y-104841969D01*
X176147812Y-104838809D01*
X176241447Y-104766960D01*
X176243664Y-104769850D01*
X176243665Y-104769849D01*
X176241448Y-104766959D01*
X176266289Y-104747898D01*
X176272835Y-104742875D01*
X176291897Y-104718033D01*
X176302764Y-104705643D01*
X177471139Y-103537267D01*
X177483531Y-103526399D01*
X177501826Y-103512361D01*
X177501829Y-103512358D01*
X177508375Y-103507335D01*
X177604308Y-103382312D01*
X177608272Y-103372744D01*
X177655444Y-103258861D01*
X177664615Y-103236720D01*
X177666918Y-103219232D01*
X177677691Y-103137400D01*
X181013500Y-103137400D01*
X181013837Y-103140646D01*
X181013837Y-103140650D01*
X181023755Y-103236232D01*
X181024474Y-103243166D01*
X181026655Y-103249702D01*
X181026655Y-103249704D01*
X181058405Y-103344870D01*
X181080450Y-103410946D01*
X181173522Y-103561348D01*
X181298697Y-103686305D01*
X181304927Y-103690145D01*
X181304928Y-103690146D01*
X181442090Y-103774694D01*
X181449262Y-103779115D01*
X181500516Y-103796115D01*
X181610611Y-103832632D01*
X181610613Y-103832632D01*
X181617139Y-103834797D01*
X181623975Y-103835497D01*
X181623978Y-103835498D01*
X181659663Y-103839154D01*
X181721600Y-103845500D01*
X183022400Y-103845500D01*
X183025646Y-103845163D01*
X183025650Y-103845163D01*
X183121308Y-103835238D01*
X183121312Y-103835237D01*
X183128166Y-103834526D01*
X183134702Y-103832345D01*
X183134704Y-103832345D01*
X183284649Y-103782319D01*
X183295946Y-103778550D01*
X183446348Y-103685478D01*
X183571305Y-103560303D01*
X183661081Y-103414660D01*
X183713852Y-103367168D01*
X183783924Y-103355744D01*
X183849048Y-103384018D01*
X183859510Y-103393805D01*
X183898022Y-103434176D01*
X183968576Y-103508135D01*
X184153542Y-103645754D01*
X184158293Y-103648170D01*
X184158297Y-103648172D01*
X184191734Y-103665172D01*
X184359051Y-103750240D01*
X184364145Y-103751822D01*
X184364148Y-103751823D01*
X184543338Y-103807463D01*
X184579227Y-103818607D01*
X184584516Y-103819308D01*
X184802489Y-103848198D01*
X184802494Y-103848198D01*
X184807774Y-103848898D01*
X184813103Y-103848698D01*
X184813105Y-103848698D01*
X184922966Y-103844573D01*
X185038158Y-103840249D01*
X185060006Y-103835665D01*
X185240147Y-103797868D01*
X185263791Y-103792907D01*
X185268750Y-103790949D01*
X185268752Y-103790948D01*
X185473256Y-103710185D01*
X185473258Y-103710184D01*
X185478221Y-103708224D01*
X185486328Y-103703305D01*
X185670757Y-103591390D01*
X185670756Y-103591390D01*
X185675317Y-103588623D01*
X185763202Y-103512361D01*
X185845412Y-103441023D01*
X185845414Y-103441021D01*
X185849445Y-103437523D01*
X185911477Y-103361870D01*
X185992240Y-103263373D01*
X185992244Y-103263367D01*
X185995624Y-103259245D01*
X186013552Y-103227750D01*
X186064632Y-103178445D01*
X186134262Y-103164583D01*
X186200333Y-103190566D01*
X186227573Y-103219716D01*
X186309441Y-103341319D01*
X186313120Y-103345176D01*
X186313122Y-103345178D01*
X186334100Y-103367168D01*
X186468576Y-103508135D01*
X186653542Y-103645754D01*
X186658293Y-103648170D01*
X186658297Y-103648172D01*
X186691734Y-103665172D01*
X186859051Y-103750240D01*
X186864145Y-103751822D01*
X186864148Y-103751823D01*
X187043338Y-103807463D01*
X187079227Y-103818607D01*
X187084516Y-103819308D01*
X187302489Y-103848198D01*
X187302494Y-103848198D01*
X187307774Y-103848898D01*
X187313103Y-103848698D01*
X187313105Y-103848698D01*
X187422966Y-103844573D01*
X187538158Y-103840249D01*
X187560006Y-103835665D01*
X187740147Y-103797868D01*
X187763791Y-103792907D01*
X187768750Y-103790949D01*
X187768752Y-103790948D01*
X187973256Y-103710185D01*
X187973258Y-103710184D01*
X187978221Y-103708224D01*
X187986328Y-103703305D01*
X188170757Y-103591390D01*
X188170756Y-103591390D01*
X188175317Y-103588623D01*
X188263202Y-103512361D01*
X188345412Y-103441023D01*
X188345414Y-103441021D01*
X188349445Y-103437523D01*
X188411477Y-103361870D01*
X188492240Y-103263373D01*
X188492244Y-103263367D01*
X188495624Y-103259245D01*
X188534719Y-103190566D01*
X188607032Y-103063529D01*
X188609675Y-103058886D01*
X188688337Y-102842175D01*
X188689816Y-102833995D01*
X188728623Y-102619392D01*
X188728624Y-102619385D01*
X188729361Y-102615308D01*
X188730500Y-102591156D01*
X188730500Y-102179110D01*
X188724372Y-102106885D01*
X188716371Y-102012591D01*
X188716370Y-102012587D01*
X188715920Y-102007280D01*
X188714582Y-102002125D01*
X188714581Y-102002119D01*
X188659343Y-101789297D01*
X188659342Y-101789293D01*
X188658001Y-101784128D01*
X188640874Y-101746106D01*
X188582354Y-101616196D01*
X188563312Y-101573925D01*
X188434559Y-101382681D01*
X188427179Y-101374944D01*
X188347059Y-101290958D01*
X188275424Y-101215865D01*
X188266945Y-101209556D01*
X188110057Y-101092828D01*
X188090458Y-101078246D01*
X188085707Y-101075830D01*
X188085703Y-101075828D01*
X187967588Y-101015776D01*
X187884949Y-100973760D01*
X187879855Y-100972178D01*
X187879852Y-100972177D01*
X187669871Y-100906976D01*
X187664773Y-100905393D01*
X187651947Y-100903693D01*
X187587044Y-100874915D01*
X187548003Y-100815616D01*
X187542500Y-100778785D01*
X187542500Y-91573370D01*
X187562502Y-91505249D01*
X187616158Y-91458756D01*
X187680493Y-91448252D01*
X187684012Y-91449000D01*
X187874986Y-91449000D01*
X187881438Y-91447628D01*
X187881443Y-91447628D01*
X187968387Y-91429147D01*
X188061787Y-91409294D01*
X188099469Y-91392517D01*
X188230221Y-91334303D01*
X188230223Y-91334302D01*
X188233982Y-91332628D01*
X188233983Y-91332628D01*
X188236251Y-91331618D01*
X188236436Y-91332033D01*
X188301493Y-91316249D01*
X188368585Y-91339468D01*
X188412473Y-91395274D01*
X188421500Y-91442106D01*
X188421500Y-96577603D01*
X188404620Y-96640602D01*
X188395473Y-96656444D01*
X188336458Y-96838072D01*
X188316496Y-97028000D01*
X188317186Y-97034565D01*
X188329813Y-97154700D01*
X188336458Y-97217928D01*
X188395473Y-97399556D01*
X188490960Y-97564944D01*
X188618747Y-97706866D01*
X188773248Y-97819118D01*
X188779276Y-97821802D01*
X188779278Y-97821803D01*
X188941681Y-97894109D01*
X188947712Y-97896794D01*
X189011121Y-97910272D01*
X189128056Y-97935128D01*
X189128061Y-97935128D01*
X189134513Y-97936500D01*
X189325487Y-97936500D01*
X189331939Y-97935128D01*
X189331944Y-97935128D01*
X189448879Y-97910272D01*
X189512288Y-97896794D01*
X189518319Y-97894109D01*
X189680722Y-97821803D01*
X189680724Y-97821802D01*
X189686752Y-97819118D01*
X189723309Y-97792558D01*
X189790175Y-97768699D01*
X189859327Y-97784778D01*
X189908808Y-97835691D01*
X189922908Y-97905274D01*
X189917203Y-97933429D01*
X189881276Y-98044000D01*
X189860458Y-98108072D01*
X189840496Y-98298000D01*
X189860458Y-98487928D01*
X189919473Y-98669556D01*
X190014960Y-98834944D01*
X190142747Y-98976866D01*
X190297248Y-99089118D01*
X190303276Y-99091802D01*
X190303278Y-99091803D01*
X190465681Y-99164109D01*
X190471712Y-99166794D01*
X190565113Y-99186647D01*
X190652056Y-99205128D01*
X190652061Y-99205128D01*
X190658513Y-99206500D01*
X190849487Y-99206500D01*
X190855939Y-99205128D01*
X190855944Y-99205128D01*
X190957764Y-99183485D01*
X191019304Y-99170404D01*
X191090094Y-99175806D01*
X191146726Y-99218623D01*
X191171220Y-99285260D01*
X191171500Y-99293651D01*
X191171500Y-100339518D01*
X191170422Y-100355965D01*
X191166336Y-100387000D01*
X191171500Y-100426223D01*
X191171500Y-100426225D01*
X191186905Y-100543240D01*
X191190064Y-100550866D01*
X191215450Y-100612153D01*
X191215451Y-100612155D01*
X191241965Y-100676166D01*
X191247211Y-100688832D01*
X191252238Y-100695383D01*
X191252239Y-100695385D01*
X191319060Y-100782467D01*
X191338116Y-100807302D01*
X191338119Y-100807305D01*
X191343145Y-100813855D01*
X191349695Y-100818881D01*
X191349696Y-100818882D01*
X191367986Y-100832916D01*
X191380377Y-100843784D01*
X191882898Y-101346304D01*
X192366595Y-101830001D01*
X192400620Y-101892313D01*
X192403500Y-101919096D01*
X192403500Y-103154400D01*
X192403837Y-103157646D01*
X192403837Y-103157650D01*
X192412833Y-103244346D01*
X192414474Y-103260166D01*
X192416655Y-103266702D01*
X192416655Y-103266704D01*
X192448405Y-103361870D01*
X192470450Y-103427946D01*
X192563522Y-103578348D01*
X192688697Y-103703305D01*
X192694927Y-103707145D01*
X192694928Y-103707146D01*
X192832090Y-103791694D01*
X192839262Y-103796115D01*
X192874938Y-103807948D01*
X193000611Y-103849632D01*
X193000613Y-103849632D01*
X193007139Y-103851797D01*
X193013975Y-103852497D01*
X193013978Y-103852498D01*
X193049663Y-103856154D01*
X193111600Y-103862500D01*
X194412400Y-103862500D01*
X194415646Y-103862163D01*
X194415650Y-103862163D01*
X194511308Y-103852238D01*
X194511312Y-103852237D01*
X194518166Y-103851526D01*
X194524702Y-103849345D01*
X194524704Y-103849345D01*
X194656806Y-103805272D01*
X194685946Y-103795550D01*
X194836348Y-103702478D01*
X194844673Y-103694139D01*
X194956134Y-103582483D01*
X194961305Y-103577303D01*
X195051081Y-103431660D01*
X195103852Y-103384168D01*
X195173924Y-103372744D01*
X195239048Y-103401018D01*
X195249510Y-103410805D01*
X195291215Y-103454523D01*
X195358576Y-103525135D01*
X195543542Y-103662754D01*
X195548293Y-103665170D01*
X195548297Y-103665172D01*
X195611481Y-103697296D01*
X195749051Y-103767240D01*
X195754145Y-103768822D01*
X195754148Y-103768823D01*
X195909380Y-103817024D01*
X195969227Y-103835607D01*
X195974516Y-103836308D01*
X196192489Y-103865198D01*
X196192494Y-103865198D01*
X196197774Y-103865898D01*
X196203103Y-103865698D01*
X196203105Y-103865698D01*
X196312966Y-103861574D01*
X196428158Y-103857249D01*
X196450802Y-103852498D01*
X196604772Y-103820192D01*
X196653791Y-103809907D01*
X196658750Y-103807949D01*
X196658752Y-103807948D01*
X196863256Y-103727185D01*
X196863258Y-103727184D01*
X196868221Y-103725224D01*
X196873525Y-103722006D01*
X197060757Y-103608390D01*
X197060756Y-103608390D01*
X197065317Y-103605623D01*
X197110378Y-103566521D01*
X197235412Y-103458023D01*
X197235414Y-103458021D01*
X197239445Y-103454523D01*
X197297256Y-103384018D01*
X197382240Y-103280373D01*
X197382244Y-103280367D01*
X197385624Y-103276245D01*
X197395520Y-103258861D01*
X197403829Y-103244265D01*
X197454912Y-103194959D01*
X197524542Y-103181098D01*
X197590613Y-103207082D01*
X197617851Y-103236232D01*
X197696852Y-103353578D01*
X197703519Y-103361870D01*
X197855228Y-103520900D01*
X197863186Y-103527941D01*
X198039525Y-103659141D01*
X198048562Y-103664745D01*
X198244484Y-103764357D01*
X198254335Y-103768357D01*
X198464240Y-103833534D01*
X198474624Y-103835817D01*
X198490043Y-103837861D01*
X198504207Y-103835665D01*
X198508000Y-103822478D01*
X198508000Y-103820192D01*
X199016000Y-103820192D01*
X199019973Y-103833723D01*
X199030580Y-103835248D01*
X199148421Y-103810523D01*
X199158617Y-103807463D01*
X199363029Y-103726737D01*
X199372561Y-103722006D01*
X199560462Y-103607984D01*
X199569052Y-103601720D01*
X199735052Y-103457673D01*
X199742472Y-103450042D01*
X199881826Y-103280089D01*
X199887850Y-103271322D01*
X199996576Y-103080318D01*
X200001041Y-103070654D01*
X200076031Y-102864059D01*
X200078802Y-102853792D01*
X200115504Y-102650826D01*
X200114085Y-102637586D01*
X200099450Y-102633000D01*
X199034115Y-102633000D01*
X199018876Y-102637475D01*
X199017671Y-102638865D01*
X199016000Y-102646548D01*
X199016000Y-103820192D01*
X198508000Y-103820192D01*
X198508000Y-102106885D01*
X199016000Y-102106885D01*
X199020475Y-102122124D01*
X199021865Y-102123329D01*
X199029548Y-102125000D01*
X200095849Y-102125000D01*
X200110527Y-102120690D01*
X200112590Y-102108807D01*
X200105876Y-102029675D01*
X200104086Y-102019203D01*
X200048870Y-101806465D01*
X200045335Y-101796425D01*
X199955063Y-101596030D01*
X199949894Y-101586744D01*
X199827150Y-101404425D01*
X199820481Y-101396130D01*
X199668772Y-101237100D01*
X199660814Y-101230059D01*
X199484475Y-101098859D01*
X199475438Y-101093255D01*
X199279516Y-100993643D01*
X199269665Y-100989643D01*
X199059760Y-100924466D01*
X199049376Y-100922183D01*
X199033957Y-100920139D01*
X199019793Y-100922335D01*
X199016000Y-100935522D01*
X199016000Y-102106885D01*
X198508000Y-102106885D01*
X198508000Y-100937808D01*
X198504027Y-100924277D01*
X198493420Y-100922752D01*
X198375579Y-100947477D01*
X198365383Y-100950537D01*
X198160971Y-101031263D01*
X198151439Y-101035994D01*
X197963538Y-101150016D01*
X197954948Y-101156280D01*
X197788948Y-101300327D01*
X197781528Y-101307958D01*
X197642174Y-101477911D01*
X197636152Y-101486674D01*
X197620762Y-101513711D01*
X197569680Y-101563018D01*
X197500049Y-101576880D01*
X197433978Y-101550897D01*
X197406739Y-101521747D01*
X197362750Y-101456408D01*
X197324559Y-101399681D01*
X197304661Y-101378822D01*
X197237059Y-101307958D01*
X197165424Y-101232865D01*
X196980458Y-101095246D01*
X196975707Y-101092830D01*
X196975703Y-101092828D01*
X196857588Y-101032776D01*
X196774949Y-100990760D01*
X196769855Y-100989178D01*
X196769852Y-100989177D01*
X196559871Y-100923976D01*
X196554773Y-100922393D01*
X196542814Y-100920808D01*
X196331511Y-100892802D01*
X196331506Y-100892802D01*
X196326226Y-100892102D01*
X196320897Y-100892302D01*
X196320895Y-100892302D01*
X196226976Y-100895828D01*
X196095842Y-100900751D01*
X196090623Y-100901846D01*
X196066088Y-100906994D01*
X195870209Y-100948093D01*
X195865250Y-100950051D01*
X195865248Y-100950052D01*
X195660744Y-101030815D01*
X195660742Y-101030816D01*
X195655779Y-101032776D01*
X195651220Y-101035543D01*
X195651217Y-101035544D01*
X195503724Y-101125045D01*
X195458683Y-101152377D01*
X195454653Y-101155874D01*
X195299388Y-101290606D01*
X195284555Y-101303477D01*
X195255330Y-101339120D01*
X195196671Y-101379114D01*
X195125701Y-101381046D01*
X195064952Y-101344302D01*
X195050752Y-101325532D01*
X194964332Y-101185880D01*
X194960478Y-101179652D01*
X194835303Y-101054695D01*
X194824254Y-101047884D01*
X194690968Y-100965725D01*
X194690966Y-100965724D01*
X194684738Y-100961885D01*
X194595463Y-100932274D01*
X194523389Y-100908368D01*
X194523387Y-100908368D01*
X194516861Y-100906203D01*
X194510025Y-100905503D01*
X194510022Y-100905502D01*
X194466969Y-100901091D01*
X194412400Y-100895500D01*
X193177097Y-100895500D01*
X193108976Y-100875498D01*
X193088002Y-100858595D01*
X192405405Y-100175998D01*
X192371379Y-100113686D01*
X192368500Y-100086903D01*
X192368500Y-95504000D01*
X196444496Y-95504000D01*
X196445186Y-95510565D01*
X196462863Y-95678749D01*
X196464458Y-95693928D01*
X196523473Y-95875556D01*
X196526776Y-95881278D01*
X196526777Y-95881279D01*
X196538235Y-95901124D01*
X196618960Y-96040944D01*
X196623378Y-96045851D01*
X196623379Y-96045852D01*
X196697796Y-96128500D01*
X196746747Y-96182866D01*
X196814578Y-96232148D01*
X196889530Y-96286604D01*
X196901248Y-96295118D01*
X196907276Y-96297802D01*
X196907278Y-96297803D01*
X197064086Y-96367618D01*
X197075712Y-96372794D01*
X197169112Y-96392647D01*
X197256056Y-96411128D01*
X197256061Y-96411128D01*
X197262513Y-96412500D01*
X197272271Y-96412500D01*
X197274030Y-96413016D01*
X197275682Y-96413190D01*
X197275650Y-96413492D01*
X197340392Y-96432502D01*
X197381390Y-96475500D01*
X197450596Y-96595368D01*
X197455014Y-96600275D01*
X197455015Y-96600276D01*
X197518112Y-96670352D01*
X197578383Y-96737290D01*
X197732884Y-96849542D01*
X197738912Y-96852226D01*
X197738914Y-96852227D01*
X197901317Y-96924533D01*
X197907348Y-96927218D01*
X198000749Y-96947071D01*
X198087692Y-96965552D01*
X198087697Y-96965552D01*
X198094149Y-96966924D01*
X198103908Y-96966924D01*
X198105667Y-96967441D01*
X198107318Y-96967614D01*
X198107286Y-96967916D01*
X198172029Y-96986926D01*
X198213027Y-97029924D01*
X198282233Y-97149792D01*
X198286651Y-97154699D01*
X198286652Y-97154700D01*
X198405598Y-97286803D01*
X198410020Y-97291714D01*
X198425009Y-97302604D01*
X198549801Y-97393271D01*
X198564521Y-97403966D01*
X198570549Y-97406650D01*
X198570551Y-97406651D01*
X198732954Y-97478957D01*
X198738985Y-97481642D01*
X198802267Y-97495093D01*
X198919329Y-97519976D01*
X198919334Y-97519976D01*
X198925786Y-97521348D01*
X199116760Y-97521348D01*
X199123212Y-97519976D01*
X199123217Y-97519976D01*
X199240279Y-97495093D01*
X199303561Y-97481642D01*
X199309592Y-97478957D01*
X199471995Y-97406651D01*
X199471997Y-97406650D01*
X199478025Y-97403966D01*
X199492746Y-97393271D01*
X199617537Y-97302604D01*
X199632526Y-97291714D01*
X199636948Y-97286803D01*
X199755894Y-97154700D01*
X199755895Y-97154699D01*
X199760313Y-97149792D01*
X199826226Y-97035628D01*
X199852496Y-96990127D01*
X199852497Y-96990126D01*
X199855800Y-96984404D01*
X199914815Y-96802776D01*
X199917150Y-96780565D01*
X199917840Y-96774000D01*
X203556496Y-96774000D01*
X203557186Y-96780565D01*
X203572600Y-96927218D01*
X203576458Y-96963928D01*
X203635473Y-97145556D01*
X203730960Y-97310944D01*
X203735378Y-97315851D01*
X203735379Y-97315852D01*
X203839136Y-97431086D01*
X203869854Y-97495093D01*
X203871500Y-97515396D01*
X203871500Y-99774518D01*
X203870422Y-99790965D01*
X203866336Y-99822000D01*
X203871500Y-99861223D01*
X203871500Y-99861225D01*
X203886905Y-99978240D01*
X203906412Y-100025333D01*
X203939460Y-100105118D01*
X203947211Y-100123832D01*
X203952238Y-100130383D01*
X203952239Y-100130385D01*
X204019060Y-100217467D01*
X204038116Y-100242302D01*
X204038119Y-100242305D01*
X204043145Y-100248855D01*
X204049695Y-100253881D01*
X204049696Y-100253882D01*
X204067986Y-100267916D01*
X204080377Y-100278784D01*
X204536381Y-100734788D01*
X204570407Y-100797100D01*
X204571919Y-100824830D01*
X204573186Y-100824830D01*
X204573186Y-100831435D01*
X204572496Y-100838000D01*
X204573186Y-100844565D01*
X204590394Y-101008286D01*
X204592458Y-101027928D01*
X204651473Y-101209556D01*
X204654776Y-101215278D01*
X204654777Y-101215279D01*
X204676832Y-101253479D01*
X204746960Y-101374944D01*
X204751378Y-101379851D01*
X204751379Y-101379852D01*
X204860985Y-101501582D01*
X204874747Y-101516866D01*
X205029248Y-101629118D01*
X205035276Y-101631802D01*
X205035278Y-101631803D01*
X205197681Y-101704109D01*
X205203712Y-101706794D01*
X205289985Y-101725132D01*
X205384056Y-101745128D01*
X205384061Y-101745128D01*
X205390513Y-101746500D01*
X205581487Y-101746500D01*
X205587939Y-101745128D01*
X205587944Y-101745128D01*
X205682015Y-101725132D01*
X205768288Y-101706794D01*
X205774319Y-101704109D01*
X205936722Y-101631803D01*
X205936724Y-101631802D01*
X205942752Y-101629118D01*
X206097253Y-101516866D01*
X206111015Y-101501582D01*
X206220621Y-101379852D01*
X206220622Y-101379851D01*
X206225040Y-101374944D01*
X206295168Y-101253479D01*
X206317223Y-101215279D01*
X206317224Y-101215278D01*
X206320527Y-101209556D01*
X206379542Y-101027928D01*
X206381607Y-101008286D01*
X206398814Y-100844565D01*
X206399504Y-100838000D01*
X206381984Y-100671303D01*
X206380232Y-100654635D01*
X206380232Y-100654633D01*
X206379542Y-100648072D01*
X206320527Y-100466444D01*
X206225040Y-100301056D01*
X206199724Y-100272939D01*
X206101675Y-100164045D01*
X206101674Y-100164044D01*
X206097253Y-100159134D01*
X205942752Y-100046882D01*
X205936724Y-100044198D01*
X205936722Y-100044197D01*
X205774319Y-99971891D01*
X205774318Y-99971891D01*
X205768288Y-99969206D01*
X205674888Y-99949353D01*
X205587944Y-99930872D01*
X205587939Y-99930872D01*
X205581487Y-99929500D01*
X205476097Y-99929500D01*
X205407976Y-99909498D01*
X205387002Y-99892595D01*
X205105405Y-99610998D01*
X205071379Y-99548686D01*
X205068500Y-99521903D01*
X205068500Y-97515396D01*
X205088502Y-97447275D01*
X205100864Y-97431086D01*
X205204621Y-97315852D01*
X205204622Y-97315851D01*
X205209040Y-97310944D01*
X205304527Y-97145556D01*
X205363542Y-96963928D01*
X205367401Y-96927218D01*
X205382814Y-96780565D01*
X205383504Y-96774000D01*
X205372610Y-96670352D01*
X205364232Y-96590635D01*
X205364232Y-96590633D01*
X205363542Y-96584072D01*
X205304527Y-96402444D01*
X205282180Y-96363737D01*
X205252231Y-96311865D01*
X205209040Y-96237056D01*
X205163744Y-96186749D01*
X205085675Y-96100045D01*
X205085674Y-96100044D01*
X205081253Y-96095134D01*
X204960764Y-96007593D01*
X204932094Y-95986763D01*
X204932093Y-95986762D01*
X204926752Y-95982882D01*
X204920724Y-95980198D01*
X204920722Y-95980197D01*
X204758319Y-95907891D01*
X204758318Y-95907891D01*
X204752288Y-95905206D01*
X204639721Y-95881279D01*
X204571944Y-95866872D01*
X204571939Y-95866872D01*
X204565487Y-95865500D01*
X204374513Y-95865500D01*
X204368061Y-95866872D01*
X204368056Y-95866872D01*
X204300279Y-95881279D01*
X204187712Y-95905206D01*
X204181682Y-95907891D01*
X204181681Y-95907891D01*
X204019278Y-95980197D01*
X204019276Y-95980198D01*
X204013248Y-95982882D01*
X204007907Y-95986762D01*
X204007906Y-95986763D01*
X203979236Y-96007593D01*
X203858747Y-96095134D01*
X203854326Y-96100044D01*
X203854325Y-96100045D01*
X203776257Y-96186749D01*
X203730960Y-96237056D01*
X203687769Y-96311865D01*
X203657821Y-96363737D01*
X203635473Y-96402444D01*
X203576458Y-96584072D01*
X203575768Y-96590633D01*
X203575768Y-96590635D01*
X203567390Y-96670352D01*
X203556496Y-96774000D01*
X199917840Y-96774000D01*
X199934087Y-96619413D01*
X199934777Y-96612848D01*
X199921976Y-96491056D01*
X199915505Y-96429483D01*
X199915505Y-96429481D01*
X199914815Y-96422920D01*
X199855800Y-96241292D01*
X199760313Y-96075904D01*
X199758202Y-96073560D01*
X199734500Y-96000610D01*
X199734500Y-93980000D01*
X201632502Y-93980000D01*
X201644439Y-94116444D01*
X201652457Y-94208087D01*
X201679746Y-94309930D01*
X201698697Y-94380654D01*
X201711716Y-94429243D01*
X201714039Y-94434224D01*
X201714039Y-94434225D01*
X201806151Y-94631762D01*
X201806154Y-94631767D01*
X201808477Y-94636749D01*
X201831105Y-94669065D01*
X201933898Y-94815868D01*
X201939802Y-94824300D01*
X202101700Y-94986198D01*
X202106208Y-94989355D01*
X202106211Y-94989357D01*
X202177903Y-95039556D01*
X202289251Y-95117523D01*
X202294233Y-95119846D01*
X202294238Y-95119849D01*
X202449410Y-95192206D01*
X202496757Y-95214284D01*
X202502065Y-95215706D01*
X202502067Y-95215707D01*
X202712598Y-95272119D01*
X202712600Y-95272119D01*
X202717913Y-95273543D01*
X202946000Y-95293498D01*
X203174087Y-95273543D01*
X203179400Y-95272119D01*
X203179402Y-95272119D01*
X203389933Y-95215707D01*
X203389935Y-95215706D01*
X203395243Y-95214284D01*
X203442590Y-95192206D01*
X203597762Y-95119849D01*
X203597767Y-95119846D01*
X203602749Y-95117523D01*
X203714097Y-95039556D01*
X203785789Y-94989357D01*
X203785792Y-94989355D01*
X203790300Y-94986198D01*
X203946570Y-94829928D01*
X204008882Y-94795902D01*
X204079697Y-94800967D01*
X204086914Y-94803916D01*
X204156964Y-94835104D01*
X204187712Y-94848794D01*
X204281113Y-94868647D01*
X204368056Y-94887128D01*
X204368061Y-94887128D01*
X204374513Y-94888500D01*
X204565487Y-94888500D01*
X204571939Y-94887128D01*
X204571944Y-94887128D01*
X204658888Y-94868647D01*
X204752288Y-94848794D01*
X204758319Y-94846109D01*
X204920722Y-94773803D01*
X204920724Y-94773802D01*
X204926752Y-94771118D01*
X204938471Y-94762604D01*
X205011443Y-94709586D01*
X205081253Y-94658866D01*
X205117400Y-94618721D01*
X205204621Y-94521852D01*
X205204622Y-94521851D01*
X205209040Y-94516944D01*
X205304527Y-94351556D01*
X205363542Y-94169928D01*
X205368177Y-94125834D01*
X205382814Y-93986565D01*
X205383504Y-93980000D01*
X205371809Y-93868729D01*
X205364232Y-93796635D01*
X205364232Y-93796633D01*
X205363542Y-93790072D01*
X205304527Y-93608444D01*
X205209040Y-93443056D01*
X205204621Y-93438148D01*
X205100864Y-93322914D01*
X205070146Y-93258907D01*
X205068500Y-93238604D01*
X205068500Y-90403396D01*
X205088502Y-90335275D01*
X205100864Y-90319086D01*
X205204621Y-90203852D01*
X205204622Y-90203851D01*
X205209040Y-90198944D01*
X205304527Y-90033556D01*
X205363542Y-89851928D01*
X205365546Y-89832866D01*
X205382814Y-89668565D01*
X205383504Y-89662000D01*
X205379429Y-89623229D01*
X205364232Y-89478635D01*
X205364232Y-89478633D01*
X205363542Y-89472072D01*
X205304527Y-89290444D01*
X205299033Y-89280927D01*
X205233565Y-89167534D01*
X205209040Y-89125056D01*
X205183389Y-89096567D01*
X205085675Y-88988045D01*
X205085674Y-88988044D01*
X205081253Y-88983134D01*
X204966829Y-88900000D01*
X204932094Y-88874763D01*
X204932093Y-88874762D01*
X204926752Y-88870882D01*
X204920724Y-88868198D01*
X204920722Y-88868197D01*
X204758319Y-88795891D01*
X204758318Y-88795891D01*
X204752288Y-88793206D01*
X204658887Y-88773353D01*
X204571944Y-88754872D01*
X204571939Y-88754872D01*
X204565487Y-88753500D01*
X204380500Y-88753500D01*
X204312379Y-88733498D01*
X204265886Y-88679842D01*
X204254500Y-88627500D01*
X204254500Y-85430188D01*
X204274502Y-85362067D01*
X204291405Y-85341093D01*
X204509198Y-85123300D01*
X204518603Y-85109869D01*
X204538938Y-85080827D01*
X204545630Y-85072107D01*
X204575414Y-85036612D01*
X204575418Y-85036606D01*
X204578955Y-85032391D01*
X204581705Y-85027627D01*
X204581709Y-85027622D01*
X204604876Y-84987494D01*
X204610784Y-84978220D01*
X204637365Y-84940259D01*
X204640523Y-84935749D01*
X204642848Y-84930764D01*
X204642851Y-84930758D01*
X204662439Y-84888750D01*
X204667515Y-84878999D01*
X204675530Y-84865118D01*
X204693433Y-84834108D01*
X204711166Y-84785388D01*
X204715372Y-84775234D01*
X204721120Y-84762907D01*
X204737284Y-84728243D01*
X204750710Y-84678139D01*
X204754002Y-84667699D01*
X204771742Y-84618959D01*
X204777278Y-84587564D01*
X204780747Y-84567888D01*
X204783126Y-84557157D01*
X204796543Y-84507087D01*
X204801062Y-84455435D01*
X204802497Y-84444538D01*
X204810544Y-84398900D01*
X204811500Y-84393479D01*
X204811500Y-84341634D01*
X204811979Y-84330652D01*
X204816019Y-84284475D01*
X204816498Y-84279000D01*
X204811979Y-84227348D01*
X204811500Y-84216366D01*
X204811500Y-84164521D01*
X204802497Y-84113461D01*
X204801062Y-84102565D01*
X204797022Y-84056392D01*
X204796543Y-84050913D01*
X204783125Y-84000837D01*
X204780747Y-83990112D01*
X204772697Y-83944459D01*
X204771742Y-83939041D01*
X204754002Y-83890301D01*
X204750710Y-83879861D01*
X204737284Y-83829757D01*
X204715372Y-83782766D01*
X204711166Y-83772612D01*
X204695314Y-83729060D01*
X204693433Y-83723892D01*
X204667512Y-83678995D01*
X204662439Y-83669250D01*
X204642851Y-83627242D01*
X204642848Y-83627236D01*
X204640523Y-83622251D01*
X204610781Y-83579776D01*
X204604876Y-83570506D01*
X204581709Y-83530378D01*
X204581705Y-83530373D01*
X204578955Y-83525609D01*
X204575418Y-83521394D01*
X204575414Y-83521388D01*
X204545630Y-83485893D01*
X204538938Y-83477173D01*
X204512357Y-83439211D01*
X204512355Y-83439208D01*
X204509198Y-83434700D01*
X204472534Y-83398036D01*
X204465108Y-83389932D01*
X204435319Y-83354431D01*
X204431783Y-83350217D01*
X204392068Y-83316892D01*
X204383964Y-83309466D01*
X204347300Y-83272802D01*
X204342792Y-83269645D01*
X204342789Y-83269643D01*
X204304827Y-83243062D01*
X204296107Y-83236370D01*
X204260612Y-83206586D01*
X204260606Y-83206582D01*
X204256391Y-83203045D01*
X204251627Y-83200295D01*
X204251622Y-83200291D01*
X204211494Y-83177124D01*
X204202220Y-83171216D01*
X204199443Y-83169271D01*
X204159749Y-83141477D01*
X204154764Y-83139152D01*
X204154758Y-83139149D01*
X204112750Y-83119561D01*
X204103005Y-83114488D01*
X204058108Y-83088567D01*
X204009389Y-83070834D01*
X203999234Y-83066628D01*
X203998159Y-83066127D01*
X203952243Y-83044716D01*
X203902139Y-83031290D01*
X203891699Y-83027998D01*
X203842959Y-83010258D01*
X203812219Y-83004838D01*
X203791888Y-83001253D01*
X203781163Y-82998875D01*
X203731087Y-82985457D01*
X203679435Y-82980938D01*
X203668538Y-82979503D01*
X203617479Y-82970500D01*
X203565634Y-82970500D01*
X203554652Y-82970021D01*
X203508475Y-82965981D01*
X203503000Y-82965502D01*
X203497525Y-82965981D01*
X203451348Y-82970021D01*
X203440366Y-82970500D01*
X203388521Y-82970500D01*
X203337462Y-82979503D01*
X203326565Y-82980938D01*
X203274913Y-82985457D01*
X203224837Y-82998875D01*
X203214112Y-83001253D01*
X203193781Y-83004838D01*
X203163041Y-83010258D01*
X203114301Y-83027998D01*
X203103861Y-83031290D01*
X203053757Y-83044716D01*
X203007841Y-83066127D01*
X203006766Y-83066628D01*
X202996611Y-83070834D01*
X202947892Y-83088567D01*
X202902995Y-83114488D01*
X202893250Y-83119561D01*
X202851242Y-83139149D01*
X202851236Y-83139152D01*
X202846251Y-83141477D01*
X202806558Y-83169271D01*
X202803780Y-83171216D01*
X202794506Y-83177124D01*
X202754378Y-83200291D01*
X202754373Y-83200295D01*
X202749609Y-83203045D01*
X202745394Y-83206582D01*
X202745388Y-83206586D01*
X202709893Y-83236370D01*
X202701173Y-83243062D01*
X202663211Y-83269643D01*
X202663208Y-83269645D01*
X202658700Y-83272802D01*
X201939802Y-83991700D01*
X201936645Y-83996208D01*
X201936643Y-83996211D01*
X201910062Y-84034173D01*
X201903370Y-84042893D01*
X201873586Y-84078388D01*
X201873582Y-84078394D01*
X201870045Y-84082609D01*
X201867295Y-84087373D01*
X201867291Y-84087378D01*
X201844124Y-84127506D01*
X201838219Y-84136776D01*
X201808477Y-84179251D01*
X201806152Y-84184236D01*
X201806149Y-84184242D01*
X201786561Y-84226250D01*
X201781488Y-84235995D01*
X201755567Y-84280892D01*
X201745760Y-84307836D01*
X201737834Y-84329612D01*
X201733628Y-84339766D01*
X201711716Y-84386757D01*
X201698290Y-84436861D01*
X201694998Y-84447301D01*
X201677258Y-84496041D01*
X201675126Y-84508132D01*
X201668253Y-84547112D01*
X201665875Y-84557837D01*
X201652457Y-84607913D01*
X201648544Y-84652634D01*
X201647938Y-84659565D01*
X201646503Y-84670461D01*
X201637500Y-84721521D01*
X201637500Y-93917366D01*
X201637021Y-93928348D01*
X201632502Y-93980000D01*
X199734500Y-93980000D01*
X199734500Y-93733896D01*
X199754502Y-93665775D01*
X199766864Y-93649586D01*
X199870621Y-93534352D01*
X199870622Y-93534351D01*
X199875040Y-93529444D01*
X199955120Y-93390741D01*
X199967223Y-93369779D01*
X199967224Y-93369778D01*
X199970527Y-93364056D01*
X200029542Y-93182428D01*
X200031141Y-93167221D01*
X200048814Y-92999065D01*
X200049504Y-92992500D01*
X200035196Y-92856368D01*
X200030232Y-92809135D01*
X200030232Y-92809133D01*
X200029542Y-92802572D01*
X199970527Y-92620944D01*
X199954073Y-92592444D01*
X199914609Y-92524092D01*
X199875040Y-92455556D01*
X199865734Y-92445220D01*
X199751675Y-92318545D01*
X199751674Y-92318544D01*
X199747253Y-92313634D01*
X199640196Y-92235852D01*
X199598094Y-92205263D01*
X199598093Y-92205262D01*
X199592752Y-92201382D01*
X199586724Y-92198698D01*
X199586722Y-92198697D01*
X199424319Y-92126391D01*
X199424318Y-92126391D01*
X199418288Y-92123706D01*
X199324888Y-92103853D01*
X199237944Y-92085372D01*
X199237939Y-92085372D01*
X199231487Y-92084000D01*
X199040513Y-92084000D01*
X199039082Y-92084304D01*
X198971118Y-92071873D01*
X198918670Y-92022338D01*
X198912961Y-92012449D01*
X198859040Y-91919056D01*
X198833949Y-91891189D01*
X198735675Y-91782045D01*
X198735674Y-91782044D01*
X198731253Y-91777134D01*
X198616829Y-91694000D01*
X198582094Y-91668763D01*
X198582093Y-91668762D01*
X198576752Y-91664882D01*
X198570724Y-91662198D01*
X198570722Y-91662197D01*
X198408319Y-91589891D01*
X198408318Y-91589891D01*
X198402288Y-91587206D01*
X198340529Y-91574079D01*
X198278057Y-91540351D01*
X198246894Y-91489768D01*
X198246152Y-91487482D01*
X198192527Y-91322444D01*
X198097040Y-91157056D01*
X198089524Y-91148708D01*
X197973675Y-91020045D01*
X197973674Y-91020044D01*
X197969253Y-91015134D01*
X197814752Y-90902882D01*
X197808724Y-90900198D01*
X197808722Y-90900197D01*
X197646319Y-90827891D01*
X197646318Y-90827891D01*
X197640288Y-90825206D01*
X197543110Y-90804550D01*
X197459944Y-90786872D01*
X197459939Y-90786872D01*
X197453487Y-90785500D01*
X197262513Y-90785500D01*
X197256061Y-90786872D01*
X197256056Y-90786872D01*
X197172890Y-90804550D01*
X197075712Y-90825206D01*
X197069682Y-90827891D01*
X197069681Y-90827891D01*
X196907278Y-90900197D01*
X196907276Y-90900198D01*
X196901248Y-90902882D01*
X196746747Y-91015134D01*
X196742326Y-91020044D01*
X196742325Y-91020045D01*
X196626477Y-91148708D01*
X196618960Y-91157056D01*
X196523473Y-91322444D01*
X196464458Y-91504072D01*
X196463768Y-91510633D01*
X196463768Y-91510635D01*
X196455821Y-91586246D01*
X196444496Y-91694000D01*
X196445186Y-91700565D01*
X196461888Y-91859472D01*
X196464458Y-91883928D01*
X196523473Y-92065556D01*
X196526776Y-92071278D01*
X196526777Y-92071279D01*
X196528960Y-92075060D01*
X196618960Y-92230944D01*
X196623378Y-92235851D01*
X196623379Y-92235852D01*
X196727136Y-92351086D01*
X196757854Y-92415093D01*
X196759500Y-92435396D01*
X196759500Y-94762604D01*
X196739498Y-94830725D01*
X196727136Y-94846914D01*
X196661857Y-94919414D01*
X196618960Y-94967056D01*
X196602249Y-94996000D01*
X196541141Y-95101843D01*
X196523473Y-95132444D01*
X196464458Y-95314072D01*
X196463768Y-95320633D01*
X196463768Y-95320635D01*
X196451767Y-95434824D01*
X196444496Y-95504000D01*
X192368500Y-95504000D01*
X192368500Y-89641396D01*
X192388502Y-89573275D01*
X192400864Y-89557086D01*
X192504621Y-89441852D01*
X192504622Y-89441851D01*
X192509040Y-89436944D01*
X192604527Y-89271556D01*
X192663542Y-89089928D01*
X192668107Y-89046500D01*
X192682814Y-88906565D01*
X192683504Y-88900000D01*
X192679397Y-88860923D01*
X192664232Y-88716635D01*
X192664232Y-88716633D01*
X192663542Y-88710072D01*
X192604527Y-88528444D01*
X192509040Y-88363056D01*
X192483064Y-88334206D01*
X192385675Y-88226045D01*
X192385674Y-88226044D01*
X192381253Y-88221134D01*
X192266829Y-88138000D01*
X192232094Y-88112763D01*
X192232093Y-88112762D01*
X192226752Y-88108882D01*
X192220724Y-88106198D01*
X192220722Y-88106197D01*
X192058319Y-88033891D01*
X192058318Y-88033891D01*
X192052288Y-88031206D01*
X191954743Y-88010472D01*
X191871944Y-87992872D01*
X191871939Y-87992872D01*
X191865487Y-87991500D01*
X191674513Y-87991500D01*
X191668061Y-87992872D01*
X191668056Y-87992872D01*
X191585257Y-88010472D01*
X191487712Y-88031206D01*
X191481682Y-88033891D01*
X191481681Y-88033891D01*
X191319278Y-88106197D01*
X191319276Y-88106198D01*
X191313248Y-88108882D01*
X191307907Y-88112762D01*
X191307906Y-88112763D01*
X191273171Y-88138000D01*
X191158747Y-88221134D01*
X191154326Y-88226044D01*
X191154325Y-88226045D01*
X191056937Y-88334206D01*
X191030960Y-88363056D01*
X190935473Y-88528444D01*
X190876458Y-88710072D01*
X190875768Y-88716633D01*
X190875768Y-88716635D01*
X190860603Y-88860923D01*
X190856496Y-88900000D01*
X190857186Y-88906565D01*
X190871894Y-89046500D01*
X190876458Y-89089928D01*
X190878498Y-89096205D01*
X190878498Y-89096207D01*
X190878615Y-89096567D01*
X190878621Y-89096787D01*
X190879871Y-89102666D01*
X190878796Y-89102895D01*
X190880641Y-89167534D01*
X190843977Y-89228331D01*
X190780264Y-89259655D01*
X190758781Y-89261500D01*
X190658513Y-89261500D01*
X190652061Y-89262872D01*
X190652056Y-89262872D01*
X190584279Y-89277279D01*
X190471712Y-89301206D01*
X190465682Y-89303891D01*
X190465681Y-89303891D01*
X190303278Y-89376197D01*
X190303276Y-89376198D01*
X190297248Y-89378882D01*
X190291907Y-89382762D01*
X190291906Y-89382763D01*
X190238561Y-89421521D01*
X190171694Y-89445379D01*
X190102542Y-89429299D01*
X190053062Y-89378386D01*
X190038500Y-89319585D01*
X190038500Y-88080397D01*
X190055380Y-88017398D01*
X190064527Y-88001556D01*
X190123542Y-87819928D01*
X190125138Y-87804749D01*
X190142814Y-87636565D01*
X190143504Y-87630000D01*
X190135069Y-87549742D01*
X190124232Y-87446635D01*
X190124232Y-87446633D01*
X190123542Y-87440072D01*
X190064527Y-87258444D01*
X190042180Y-87219737D01*
X189983986Y-87118943D01*
X189969040Y-87093056D01*
X189889254Y-87004444D01*
X189845675Y-86956045D01*
X189845674Y-86956044D01*
X189841253Y-86951134D01*
X189686752Y-86838882D01*
X189680724Y-86836198D01*
X189680722Y-86836197D01*
X189518319Y-86763891D01*
X189518318Y-86763891D01*
X189512288Y-86761206D01*
X189414150Y-86740346D01*
X189331944Y-86722872D01*
X189331939Y-86722872D01*
X189325487Y-86721500D01*
X189134513Y-86721500D01*
X189128061Y-86722872D01*
X189128056Y-86722872D01*
X189045850Y-86740346D01*
X188964696Y-86757596D01*
X188893906Y-86752194D01*
X188837274Y-86709377D01*
X188812780Y-86642740D01*
X188812500Y-86634349D01*
X188812500Y-84271028D01*
X188832502Y-84202907D01*
X188887250Y-84155922D01*
X188918717Y-84141912D01*
X188918725Y-84141907D01*
X188924752Y-84139224D01*
X188935992Y-84131058D01*
X188996112Y-84087378D01*
X189079253Y-84026972D01*
X189085877Y-84019615D01*
X189202621Y-83889958D01*
X189202622Y-83889957D01*
X189207040Y-83885050D01*
X189266094Y-83782766D01*
X189299223Y-83725385D01*
X189299224Y-83725384D01*
X189302527Y-83719662D01*
X189361542Y-83538034D01*
X189366367Y-83492132D01*
X189380814Y-83354671D01*
X189381504Y-83348106D01*
X189364752Y-83188721D01*
X189362232Y-83164741D01*
X189362232Y-83164739D01*
X189361542Y-83158178D01*
X189302527Y-82976550D01*
X189298758Y-82970021D01*
X189262495Y-82907212D01*
X189207040Y-82811162D01*
X189162097Y-82761247D01*
X189083675Y-82674151D01*
X189083674Y-82674150D01*
X189079253Y-82669240D01*
X188924752Y-82556988D01*
X188918724Y-82554304D01*
X188918722Y-82554303D01*
X188756319Y-82481997D01*
X188756318Y-82481997D01*
X188750288Y-82479312D01*
X188656887Y-82459459D01*
X188569944Y-82440978D01*
X188569939Y-82440978D01*
X188563487Y-82439606D01*
X188372513Y-82439606D01*
X188366061Y-82440978D01*
X188366056Y-82440978D01*
X188279113Y-82459459D01*
X188185712Y-82479312D01*
X188179682Y-82481997D01*
X188179681Y-82481997D01*
X188017278Y-82554303D01*
X188017276Y-82554304D01*
X188011248Y-82556988D01*
X188005905Y-82560870D01*
X187996562Y-82567658D01*
X187929695Y-82591517D01*
X187860543Y-82575438D01*
X187811062Y-82524524D01*
X187796500Y-82465723D01*
X187796500Y-82021396D01*
X187816502Y-81953275D01*
X187828864Y-81937086D01*
X187932621Y-81821852D01*
X187932622Y-81821851D01*
X187937040Y-81816944D01*
X188032527Y-81651556D01*
X188091542Y-81469928D01*
X188111504Y-81280000D01*
X188107946Y-81246148D01*
X188092232Y-81096635D01*
X188092232Y-81096633D01*
X188091542Y-81090072D01*
X188032527Y-80908444D01*
X187937040Y-80743056D01*
X187932436Y-80737942D01*
X187813675Y-80606045D01*
X187813674Y-80606044D01*
X187809253Y-80601134D01*
X187710157Y-80529136D01*
X187660094Y-80492763D01*
X187660093Y-80492762D01*
X187654752Y-80488882D01*
X187648724Y-80486198D01*
X187648722Y-80486197D01*
X187486319Y-80413891D01*
X187486318Y-80413891D01*
X187480288Y-80411206D01*
X187386888Y-80391353D01*
X187299944Y-80372872D01*
X187299939Y-80372872D01*
X187293487Y-80371500D01*
X187102513Y-80371500D01*
X187096061Y-80372872D01*
X187096056Y-80372872D01*
X187009112Y-80391353D01*
X186915712Y-80411206D01*
X186909682Y-80413891D01*
X186909681Y-80413891D01*
X186747278Y-80486197D01*
X186747276Y-80486198D01*
X186741248Y-80488882D01*
X186735907Y-80492762D01*
X186735906Y-80492763D01*
X186685843Y-80529136D01*
X186586747Y-80601134D01*
X186582326Y-80606044D01*
X186582325Y-80606045D01*
X186463565Y-80737942D01*
X186458960Y-80743056D01*
X186363473Y-80908444D01*
X186304458Y-81090072D01*
X186303768Y-81096633D01*
X186303768Y-81096635D01*
X186288054Y-81246148D01*
X186284496Y-81280000D01*
X186304458Y-81469928D01*
X186363473Y-81651556D01*
X186458960Y-81816944D01*
X186463378Y-81821851D01*
X186463379Y-81821852D01*
X186567136Y-81937086D01*
X186597854Y-82001093D01*
X186599500Y-82021396D01*
X186599500Y-82693126D01*
X186579498Y-82761247D01*
X186525842Y-82807740D01*
X186473500Y-82819126D01*
X186340513Y-82819126D01*
X186334061Y-82820498D01*
X186334056Y-82820498D01*
X186247112Y-82838979D01*
X186153712Y-82858832D01*
X186147682Y-82861517D01*
X186147681Y-82861517D01*
X185985278Y-82933823D01*
X185985276Y-82933824D01*
X185979248Y-82936508D01*
X185973907Y-82940388D01*
X185973906Y-82940389D01*
X185965180Y-82946729D01*
X185824747Y-83048760D01*
X185820326Y-83053670D01*
X185820325Y-83053671D01*
X185709168Y-83177124D01*
X185696960Y-83190682D01*
X185630708Y-83305435D01*
X185629453Y-83307608D01*
X185578071Y-83356601D01*
X185508357Y-83370037D01*
X185442446Y-83343651D01*
X185411215Y-83307608D01*
X185397040Y-83283056D01*
X185317254Y-83194444D01*
X185273675Y-83146045D01*
X185273674Y-83146044D01*
X185269253Y-83141134D01*
X185142112Y-83048760D01*
X185120094Y-83032763D01*
X185120093Y-83032762D01*
X185114752Y-83028882D01*
X185108724Y-83026198D01*
X185108722Y-83026197D01*
X184946319Y-82953891D01*
X184946318Y-82953891D01*
X184940288Y-82951206D01*
X184846888Y-82931353D01*
X184759944Y-82912872D01*
X184759939Y-82912872D01*
X184753487Y-82911500D01*
X184562513Y-82911500D01*
X184556061Y-82912872D01*
X184556056Y-82912872D01*
X184469112Y-82931353D01*
X184375712Y-82951206D01*
X184369682Y-82953891D01*
X184369681Y-82953891D01*
X184207278Y-83026197D01*
X184207276Y-83026198D01*
X184201248Y-83028882D01*
X184195907Y-83032762D01*
X184195906Y-83032763D01*
X184173888Y-83048760D01*
X184046747Y-83141134D01*
X184042326Y-83146044D01*
X184042325Y-83146045D01*
X183998747Y-83194444D01*
X183918960Y-83283056D01*
X183877752Y-83354431D01*
X183842231Y-83415955D01*
X183823473Y-83448444D01*
X183764458Y-83630072D01*
X183763768Y-83636633D01*
X183763768Y-83636635D01*
X183759497Y-83677271D01*
X183744496Y-83820000D01*
X183741491Y-83819684D01*
X183725184Y-83875222D01*
X183671528Y-83921715D01*
X183659009Y-83926589D01*
X183653066Y-83927852D01*
X183647042Y-83930534D01*
X183647039Y-83930535D01*
X183484632Y-84002843D01*
X183484630Y-84002844D01*
X183478602Y-84005528D01*
X183473261Y-84009408D01*
X183473260Y-84009409D01*
X183440650Y-84033102D01*
X183324101Y-84117780D01*
X183319680Y-84122690D01*
X183319679Y-84122691D01*
X183214038Y-84240018D01*
X183196314Y-84259702D01*
X183142311Y-84353237D01*
X183108885Y-84411134D01*
X183100827Y-84425090D01*
X183041812Y-84606718D01*
X183041122Y-84613279D01*
X183041122Y-84613281D01*
X183035682Y-84665040D01*
X183021850Y-84796646D01*
X183022540Y-84803211D01*
X183037211Y-84942794D01*
X183041812Y-84986574D01*
X183100827Y-85168202D01*
X183104130Y-85173924D01*
X183104131Y-85173925D01*
X183119919Y-85201271D01*
X183196314Y-85333590D01*
X183200732Y-85338497D01*
X183200733Y-85338498D01*
X183304490Y-85453732D01*
X183335208Y-85517739D01*
X183336854Y-85538042D01*
X183336854Y-91675076D01*
X183316852Y-91743197D01*
X183293844Y-91767552D01*
X183294998Y-91768833D01*
X183290091Y-91773251D01*
X183284747Y-91777134D01*
X183280326Y-91782044D01*
X183280325Y-91782045D01*
X183182052Y-91891189D01*
X183156960Y-91919056D01*
X183106710Y-92006092D01*
X183068259Y-92072691D01*
X183061473Y-92084444D01*
X183002458Y-92266072D01*
X183001768Y-92272633D01*
X183001768Y-92272635D01*
X182990260Y-92382132D01*
X182982496Y-92456000D01*
X182983186Y-92462565D01*
X183001485Y-92636666D01*
X183002458Y-92645928D01*
X183061473Y-92827556D01*
X183156960Y-92992944D01*
X183161378Y-92997851D01*
X183161379Y-92997852D01*
X183191196Y-93030967D01*
X183284747Y-93134866D01*
X183329280Y-93167221D01*
X183427530Y-93238604D01*
X183439248Y-93247118D01*
X183445276Y-93249802D01*
X183445278Y-93249803D01*
X183607681Y-93322109D01*
X183613712Y-93324794D01*
X183707113Y-93344647D01*
X183794056Y-93363128D01*
X183794061Y-93363128D01*
X183800513Y-93364500D01*
X183937500Y-93364500D01*
X184005621Y-93384502D01*
X184052114Y-93438158D01*
X184063500Y-93490500D01*
X184063500Y-101082387D01*
X184043498Y-101150508D01*
X184020081Y-101177552D01*
X183894555Y-101286477D01*
X183865330Y-101322120D01*
X183806671Y-101362114D01*
X183735701Y-101364046D01*
X183674952Y-101327302D01*
X183660752Y-101308532D01*
X183574332Y-101168880D01*
X183570478Y-101162652D01*
X183445303Y-101037695D01*
X183437323Y-101032776D01*
X183300968Y-100948725D01*
X183300966Y-100948724D01*
X183294738Y-100944885D01*
X183266830Y-100935628D01*
X183208472Y-100895197D01*
X183181236Y-100829633D01*
X183180500Y-100816036D01*
X183180500Y-94430397D01*
X183197380Y-94367398D01*
X183206527Y-94351556D01*
X183265542Y-94169928D01*
X183270177Y-94125834D01*
X183284814Y-93986565D01*
X183285504Y-93980000D01*
X183273809Y-93868729D01*
X183266232Y-93796635D01*
X183266232Y-93796633D01*
X183265542Y-93790072D01*
X183206527Y-93608444D01*
X183111040Y-93443056D01*
X183091970Y-93421876D01*
X182987675Y-93306045D01*
X182987674Y-93306044D01*
X182983253Y-93301134D01*
X182828752Y-93188882D01*
X182822724Y-93186198D01*
X182822722Y-93186197D01*
X182660319Y-93113891D01*
X182660318Y-93113891D01*
X182654288Y-93111206D01*
X182560887Y-93091353D01*
X182473944Y-93072872D01*
X182473939Y-93072872D01*
X182467487Y-93071500D01*
X182276513Y-93071500D01*
X182270061Y-93072872D01*
X182270056Y-93072872D01*
X182183113Y-93091353D01*
X182089712Y-93111206D01*
X182083682Y-93113891D01*
X182083681Y-93113891D01*
X181921278Y-93186197D01*
X181921276Y-93186198D01*
X181915248Y-93188882D01*
X181760747Y-93301134D01*
X181756326Y-93306044D01*
X181756325Y-93306045D01*
X181652031Y-93421876D01*
X181632960Y-93443056D01*
X181537473Y-93608444D01*
X181478458Y-93790072D01*
X181477768Y-93796633D01*
X181477768Y-93796635D01*
X181470191Y-93868729D01*
X181458496Y-93980000D01*
X181459186Y-93986565D01*
X181473824Y-94125834D01*
X181478458Y-94169928D01*
X181537473Y-94351556D01*
X181546620Y-94367398D01*
X181563500Y-94430397D01*
X181563500Y-100816143D01*
X181543498Y-100884264D01*
X181489842Y-100930757D01*
X181477378Y-100935666D01*
X181455005Y-100943130D01*
X181454998Y-100943133D01*
X181448054Y-100945450D01*
X181297652Y-101038522D01*
X181172695Y-101163697D01*
X181168855Y-101169927D01*
X181168854Y-101169928D01*
X181087905Y-101301252D01*
X181079885Y-101314262D01*
X181061654Y-101369226D01*
X181028432Y-101469390D01*
X181024203Y-101482139D01*
X181023503Y-101488975D01*
X181023502Y-101488978D01*
X181021338Y-101510102D01*
X181013500Y-101586600D01*
X181013500Y-103137400D01*
X177677691Y-103137400D01*
X177680020Y-103119705D01*
X177680020Y-103119703D01*
X177684106Y-103088668D01*
X177685184Y-103080480D01*
X177681098Y-103049445D01*
X177680020Y-103032998D01*
X177680020Y-95776500D01*
X177700022Y-95708379D01*
X177753678Y-95661886D01*
X177806020Y-95650500D01*
X177895487Y-95650500D01*
X177901939Y-95649128D01*
X177901944Y-95649128D01*
X178021520Y-95623711D01*
X178092311Y-95629113D01*
X178148944Y-95671930D01*
X178173027Y-95733786D01*
X178174860Y-95751221D01*
X178176458Y-95766428D01*
X178235473Y-95948056D01*
X178238776Y-95953778D01*
X178238777Y-95953779D01*
X178264598Y-95998502D01*
X178330960Y-96113444D01*
X178335378Y-96118351D01*
X178335379Y-96118352D01*
X178446075Y-96241292D01*
X178458747Y-96255366D01*
X178529687Y-96306907D01*
X178575054Y-96339868D01*
X178613248Y-96367618D01*
X178619276Y-96370302D01*
X178619278Y-96370303D01*
X178781681Y-96442609D01*
X178787712Y-96445294D01*
X178865216Y-96461768D01*
X178968056Y-96483628D01*
X178968061Y-96483628D01*
X178974513Y-96485000D01*
X179165487Y-96485000D01*
X179171939Y-96483628D01*
X179171944Y-96483628D01*
X179274784Y-96461768D01*
X179352288Y-96445294D01*
X179358319Y-96442609D01*
X179520722Y-96370303D01*
X179520724Y-96370302D01*
X179526752Y-96367618D01*
X179564947Y-96339868D01*
X179610313Y-96306907D01*
X179681253Y-96255366D01*
X179693925Y-96241292D01*
X179804621Y-96118352D01*
X179804622Y-96118351D01*
X179809040Y-96113444D01*
X179875402Y-95998502D01*
X179901223Y-95953779D01*
X179901224Y-95953778D01*
X179904527Y-95948056D01*
X179963542Y-95766428D01*
X179965141Y-95751221D01*
X179982814Y-95583065D01*
X179983504Y-95576500D01*
X179975194Y-95497435D01*
X179964232Y-95393135D01*
X179964232Y-95393133D01*
X179963542Y-95386572D01*
X179904527Y-95204944D01*
X179809040Y-95039556D01*
X179760996Y-94986198D01*
X179700864Y-94919414D01*
X179670146Y-94855407D01*
X179668500Y-94835104D01*
X179668500Y-89558100D01*
X179688502Y-89489979D01*
X179742158Y-89443486D01*
X179812432Y-89433382D01*
X179877012Y-89462876D01*
X179888130Y-89473784D01*
X179982747Y-89578866D01*
X180021349Y-89606912D01*
X180106207Y-89668565D01*
X180137248Y-89691118D01*
X180143276Y-89693802D01*
X180143278Y-89693803D01*
X180303918Y-89765324D01*
X180311712Y-89768794D01*
X180405112Y-89788647D01*
X180492056Y-89807128D01*
X180492061Y-89807128D01*
X180498513Y-89808500D01*
X180689487Y-89808500D01*
X180695939Y-89807128D01*
X180695944Y-89807128D01*
X180782887Y-89788647D01*
X180876288Y-89768794D01*
X180884082Y-89765324D01*
X181044722Y-89693803D01*
X181044724Y-89693802D01*
X181050752Y-89691118D01*
X181081794Y-89668565D01*
X181166651Y-89606912D01*
X181205253Y-89578866D01*
X181302526Y-89470833D01*
X181328621Y-89441852D01*
X181328622Y-89441851D01*
X181333040Y-89436944D01*
X181428527Y-89271556D01*
X181487542Y-89089928D01*
X181492107Y-89046500D01*
X181506814Y-88906565D01*
X181507504Y-88900000D01*
X181503397Y-88860923D01*
X181488232Y-88716635D01*
X181488232Y-88716633D01*
X181487542Y-88710072D01*
X181428527Y-88528444D01*
X181333040Y-88363056D01*
X181328621Y-88358148D01*
X181224864Y-88242914D01*
X181194146Y-88178907D01*
X181192500Y-88158604D01*
X181192500Y-81479338D01*
X181212502Y-81411217D01*
X181224864Y-81395028D01*
X181328621Y-81279794D01*
X181328622Y-81279793D01*
X181333040Y-81274886D01*
X181428527Y-81109498D01*
X181487542Y-80927870D01*
X181500367Y-80805852D01*
X181506814Y-80744507D01*
X181507504Y-80737942D01*
X181506814Y-80731377D01*
X181488232Y-80554577D01*
X181488232Y-80554575D01*
X181487542Y-80548014D01*
X181428527Y-80366386D01*
X181333040Y-80200998D01*
X181218756Y-80074072D01*
X181209675Y-80063987D01*
X181209674Y-80063986D01*
X181205253Y-80059076D01*
X181050752Y-79946824D01*
X181044724Y-79944140D01*
X181044722Y-79944139D01*
X180882319Y-79871833D01*
X180882318Y-79871833D01*
X180876288Y-79869148D01*
X180782887Y-79849295D01*
X180695944Y-79830814D01*
X180695939Y-79830814D01*
X180689487Y-79829442D01*
X180498513Y-79829442D01*
X180492061Y-79830814D01*
X180492056Y-79830814D01*
X180405112Y-79849295D01*
X180311712Y-79869148D01*
X180305682Y-79871833D01*
X180305681Y-79871833D01*
X180143278Y-79944139D01*
X180143276Y-79944140D01*
X180137248Y-79946824D01*
X179982747Y-80059076D01*
X179978326Y-80063986D01*
X179978325Y-80063987D01*
X179969245Y-80074072D01*
X179854960Y-80200998D01*
X179759473Y-80366386D01*
X179700458Y-80548014D01*
X179699768Y-80554575D01*
X179699768Y-80554577D01*
X179681186Y-80731377D01*
X179680496Y-80737942D01*
X179681186Y-80744507D01*
X179687634Y-80805852D01*
X179700458Y-80927870D01*
X179759473Y-81109498D01*
X179854960Y-81274886D01*
X179859378Y-81279793D01*
X179859379Y-81279794D01*
X179963136Y-81395028D01*
X179993854Y-81459035D01*
X179995500Y-81479338D01*
X179995500Y-88158604D01*
X179975498Y-88226725D01*
X179963136Y-88242914D01*
X179888136Y-88326210D01*
X179827690Y-88363450D01*
X179756706Y-88362098D01*
X179697722Y-88322585D01*
X179669464Y-88257454D01*
X179668500Y-88241900D01*
X179668500Y-82343482D01*
X179669578Y-82327035D01*
X179672586Y-82304188D01*
X179673664Y-82296000D01*
X179664488Y-82226301D01*
X179653095Y-82139760D01*
X179632195Y-82089303D01*
X179595948Y-82001796D01*
X179595947Y-82001794D01*
X179592788Y-81994168D01*
X179500851Y-81874352D01*
X179475251Y-81808132D01*
X179474814Y-81797649D01*
X179474814Y-81794565D01*
X179475504Y-81788000D01*
X179455542Y-81598072D01*
X179396527Y-81416444D01*
X179384163Y-81395028D01*
X179314798Y-81274886D01*
X179301040Y-81251056D01*
X179173253Y-81109134D01*
X179018752Y-80996882D01*
X179012724Y-80994198D01*
X179012722Y-80994197D01*
X178850319Y-80921891D01*
X178850318Y-80921891D01*
X178844288Y-80919206D01*
X178750888Y-80899353D01*
X178663944Y-80880872D01*
X178663939Y-80880872D01*
X178657487Y-80879500D01*
X178466513Y-80879500D01*
X178460061Y-80880872D01*
X178460056Y-80880872D01*
X178373112Y-80899353D01*
X178279712Y-80919206D01*
X178273682Y-80921891D01*
X178273681Y-80921891D01*
X178111278Y-80994197D01*
X178111276Y-80994198D01*
X178105248Y-80996882D01*
X177950747Y-81109134D01*
X177822960Y-81251056D01*
X177809202Y-81274886D01*
X177739838Y-81395028D01*
X177727473Y-81416444D01*
X177668458Y-81598072D01*
X177648496Y-81788000D01*
X177649186Y-81794565D01*
X177649186Y-81801171D01*
X177647230Y-81801171D01*
X177636140Y-81861808D01*
X177587637Y-81913654D01*
X177549798Y-81928386D01*
X177517712Y-81935206D01*
X177511682Y-81937891D01*
X177511681Y-81937891D01*
X177349278Y-82010197D01*
X177349276Y-82010198D01*
X177343248Y-82012882D01*
X177337907Y-82016762D01*
X177337906Y-82016763D01*
X177287843Y-82053136D01*
X177188747Y-82125134D01*
X177060960Y-82267056D01*
X176965473Y-82432444D01*
X176906458Y-82614072D01*
X176905768Y-82620633D01*
X176905768Y-82620635D01*
X176898149Y-82693126D01*
X176886496Y-82804000D01*
X176887186Y-82810565D01*
X176905568Y-82985457D01*
X176906458Y-82993928D01*
X176965473Y-83175556D01*
X177060960Y-83340944D01*
X177065378Y-83345851D01*
X177065379Y-83345852D01*
X177169136Y-83461086D01*
X177199854Y-83525093D01*
X177201500Y-83545396D01*
X177201500Y-88166904D01*
X177181498Y-88235025D01*
X177127842Y-88281518D01*
X177057568Y-88291622D01*
X176992988Y-88262128D01*
X176986421Y-88256015D01*
X176209617Y-87479210D01*
X176175593Y-87416900D01*
X176174081Y-87389170D01*
X176172814Y-87389170D01*
X176172814Y-87382565D01*
X176173504Y-87376000D01*
X176161340Y-87260263D01*
X176154232Y-87192635D01*
X176154232Y-87192633D01*
X176153542Y-87186072D01*
X176094527Y-87004444D01*
X175999040Y-86839056D01*
X175973064Y-86810206D01*
X175875675Y-86702045D01*
X175875674Y-86702044D01*
X175871253Y-86697134D01*
X175756829Y-86614000D01*
X175722094Y-86588763D01*
X175722093Y-86588762D01*
X175716752Y-86584882D01*
X175710724Y-86582198D01*
X175710722Y-86582197D01*
X175548319Y-86509891D01*
X175548318Y-86509891D01*
X175542288Y-86507206D01*
X175439803Y-86485422D01*
X175361944Y-86468872D01*
X175361939Y-86468872D01*
X175355487Y-86467500D01*
X175164513Y-86467500D01*
X175158058Y-86468872D01*
X175158049Y-86468873D01*
X175145602Y-86471519D01*
X175074811Y-86466118D01*
X175018178Y-86423302D01*
X175010293Y-86411285D01*
X174975409Y-86350865D01*
X174895108Y-86261681D01*
X174852044Y-86213854D01*
X174852043Y-86213853D01*
X174847622Y-86208943D01*
X174710384Y-86109233D01*
X174698463Y-86100572D01*
X174698462Y-86100571D01*
X174693121Y-86096691D01*
X174687093Y-86094007D01*
X174687091Y-86094006D01*
X174524688Y-86021700D01*
X174524687Y-86021700D01*
X174518657Y-86019015D01*
X174422142Y-85998500D01*
X174338313Y-85980681D01*
X174338308Y-85980681D01*
X174331856Y-85979309D01*
X174166500Y-85979309D01*
X174098379Y-85959307D01*
X174051886Y-85905651D01*
X174040500Y-85853309D01*
X174040500Y-80497396D01*
X174060502Y-80429275D01*
X174072864Y-80413086D01*
X174176621Y-80297852D01*
X174176622Y-80297851D01*
X174181040Y-80292944D01*
X174276527Y-80127556D01*
X174335542Y-79945928D01*
X174355504Y-79756000D01*
X174339835Y-79606914D01*
X174336232Y-79572635D01*
X174336232Y-79572633D01*
X174335542Y-79566072D01*
X174276527Y-79384444D01*
X174181040Y-79219056D01*
X174053253Y-79077134D01*
X173898752Y-78964882D01*
X173892724Y-78962198D01*
X173892722Y-78962197D01*
X173730319Y-78889891D01*
X173730318Y-78889891D01*
X173724288Y-78887206D01*
X173630888Y-78867353D01*
X173543944Y-78848872D01*
X173543939Y-78848872D01*
X173537487Y-78847500D01*
X173346513Y-78847500D01*
X173340061Y-78848872D01*
X173340056Y-78848872D01*
X173253112Y-78867353D01*
X173159712Y-78887206D01*
X173153682Y-78889891D01*
X173153681Y-78889891D01*
X172991278Y-78962197D01*
X172991276Y-78962198D01*
X172985248Y-78964882D01*
X172830747Y-79077134D01*
X172702960Y-79219056D01*
X172607473Y-79384444D01*
X172548458Y-79566072D01*
X172547768Y-79572633D01*
X172547768Y-79572635D01*
X172544165Y-79606914D01*
X172528496Y-79756000D01*
X172548458Y-79945928D01*
X172607473Y-80127556D01*
X172702960Y-80292944D01*
X172707378Y-80297851D01*
X172707379Y-80297852D01*
X172811136Y-80413086D01*
X172841854Y-80477093D01*
X172843500Y-80497396D01*
X172843500Y-100940165D01*
X172823498Y-101008286D01*
X172782866Y-101047884D01*
X172695301Y-101101020D01*
X172638683Y-101135377D01*
X172634653Y-101138874D01*
X172521893Y-101236722D01*
X172464555Y-101286477D01*
X172435330Y-101322120D01*
X172376671Y-101362114D01*
X172305701Y-101364046D01*
X172244952Y-101327302D01*
X172230752Y-101308532D01*
X172144332Y-101168880D01*
X172140478Y-101162652D01*
X172015303Y-101037695D01*
X172007323Y-101032776D01*
X171870968Y-100948725D01*
X171870966Y-100948724D01*
X171864738Y-100944885D01*
X171750500Y-100906994D01*
X171703389Y-100891368D01*
X171703387Y-100891368D01*
X171696861Y-100889203D01*
X171690025Y-100888503D01*
X171690022Y-100888502D01*
X171646969Y-100884091D01*
X171592400Y-100878500D01*
X170291600Y-100878500D01*
X170288354Y-100878837D01*
X170288350Y-100878837D01*
X170192692Y-100888762D01*
X170192688Y-100888763D01*
X170185834Y-100889474D01*
X170179298Y-100891655D01*
X170179296Y-100891655D01*
X170047812Y-100935522D01*
X170018054Y-100945450D01*
X169867652Y-101038522D01*
X169742695Y-101163697D01*
X169738855Y-101169927D01*
X169738854Y-101169928D01*
X169657905Y-101301252D01*
X169649885Y-101314262D01*
X169631654Y-101369226D01*
X169598432Y-101469390D01*
X169594203Y-101482139D01*
X169593503Y-101488975D01*
X169593502Y-101488978D01*
X169591338Y-101510102D01*
X169583500Y-101586600D01*
X169583500Y-103137400D01*
X165704983Y-103137400D01*
X165747032Y-103063529D01*
X165749675Y-103058886D01*
X165828337Y-102842175D01*
X165829816Y-102833995D01*
X165868623Y-102619392D01*
X165868624Y-102619385D01*
X165869361Y-102615308D01*
X165870500Y-102591156D01*
X165870500Y-102179110D01*
X165864372Y-102106885D01*
X165856371Y-102012591D01*
X165856370Y-102012587D01*
X165855920Y-102007280D01*
X165854582Y-102002125D01*
X165854581Y-102002119D01*
X165799343Y-101789297D01*
X165799342Y-101789293D01*
X165798001Y-101784128D01*
X165780874Y-101746106D01*
X165722354Y-101616196D01*
X165703312Y-101573925D01*
X165574559Y-101382681D01*
X165567179Y-101374944D01*
X165487059Y-101290958D01*
X165415424Y-101215865D01*
X165406945Y-101209556D01*
X165250057Y-101092828D01*
X165230458Y-101078246D01*
X165225707Y-101075830D01*
X165225703Y-101075828D01*
X165107588Y-101015776D01*
X165024949Y-100973760D01*
X165019855Y-100972178D01*
X165019852Y-100972177D01*
X164809871Y-100906976D01*
X164804773Y-100905393D01*
X164799484Y-100904692D01*
X164581511Y-100875802D01*
X164581506Y-100875802D01*
X164576226Y-100875102D01*
X164570897Y-100875302D01*
X164570895Y-100875302D01*
X164461034Y-100879426D01*
X164345842Y-100883751D01*
X164340623Y-100884846D01*
X164318566Y-100889474D01*
X164120209Y-100931093D01*
X164115245Y-100933053D01*
X164115243Y-100933054D01*
X164058965Y-100955279D01*
X163988259Y-100961697D01*
X163923588Y-100927182D01*
X163840191Y-100843784D01*
X163704260Y-100707853D01*
X163693393Y-100695462D01*
X163679362Y-100677176D01*
X163679361Y-100677175D01*
X163674335Y-100670625D01*
X163667785Y-100665599D01*
X163667782Y-100665596D01*
X163642947Y-100646540D01*
X163555865Y-100579719D01*
X163555863Y-100579718D01*
X163549312Y-100574691D01*
X163473381Y-100543240D01*
X163403720Y-100514385D01*
X163395536Y-100513308D01*
X163395534Y-100513307D01*
X163286708Y-100498980D01*
X163286703Y-100498980D01*
X163247480Y-100493816D01*
X163239292Y-100494894D01*
X163216445Y-100497902D01*
X163199998Y-100498980D01*
X161373423Y-100498980D01*
X161305302Y-100478978D01*
X161258809Y-100425322D01*
X161247423Y-100372980D01*
X161247423Y-98049354D01*
X161267425Y-97981233D01*
X161321081Y-97934740D01*
X161391355Y-97924636D01*
X161399621Y-97926108D01*
X161442049Y-97935127D01*
X161442058Y-97935128D01*
X161448513Y-97936500D01*
X161639487Y-97936500D01*
X161645939Y-97935128D01*
X161645944Y-97935128D01*
X161762879Y-97910272D01*
X161826288Y-97896794D01*
X161832319Y-97894109D01*
X161994722Y-97821803D01*
X161994724Y-97821802D01*
X162000752Y-97819118D01*
X162155253Y-97706866D01*
X162283040Y-97564944D01*
X162378527Y-97399556D01*
X162437542Y-97217928D01*
X162444188Y-97154700D01*
X162456814Y-97034565D01*
X162457504Y-97028000D01*
X162437542Y-96838072D01*
X162378527Y-96656444D01*
X162349567Y-96606283D01*
X162286341Y-96496774D01*
X162283040Y-96491056D01*
X162276352Y-96483628D01*
X162174864Y-96370914D01*
X162144146Y-96306907D01*
X162142500Y-96286604D01*
X162142500Y-95345992D01*
X162162502Y-95277871D01*
X162179404Y-95256897D01*
X162612948Y-94823352D01*
X162675261Y-94789327D01*
X162702044Y-94786447D01*
X162807434Y-94786447D01*
X162813886Y-94785075D01*
X162813891Y-94785075D01*
X162907270Y-94765226D01*
X162994235Y-94746741D01*
X163077687Y-94709586D01*
X163162669Y-94671750D01*
X163162671Y-94671749D01*
X163168699Y-94669065D01*
X163177887Y-94662390D01*
X163278287Y-94589444D01*
X163323200Y-94556813D01*
X163327622Y-94551902D01*
X163446568Y-94419799D01*
X163446569Y-94419798D01*
X163450987Y-94414891D01*
X163546474Y-94249503D01*
X163605489Y-94067875D01*
X163612403Y-94002097D01*
X163624761Y-93884512D01*
X163625451Y-93877947D01*
X163616215Y-93790072D01*
X163606179Y-93694582D01*
X163606179Y-93694580D01*
X163605489Y-93688019D01*
X163546474Y-93506391D01*
X163450987Y-93341003D01*
X163446083Y-93335556D01*
X163342811Y-93220861D01*
X163312093Y-93156854D01*
X163310447Y-93136551D01*
X163310447Y-92195217D01*
X163330449Y-92127096D01*
X163384105Y-92080603D01*
X163454379Y-92070499D01*
X163510508Y-92093281D01*
X163516853Y-92097891D01*
X163613815Y-92168338D01*
X163627248Y-92178098D01*
X163633276Y-92180782D01*
X163633278Y-92180783D01*
X163756966Y-92235852D01*
X163801712Y-92255774D01*
X163895113Y-92275627D01*
X163982056Y-92294108D01*
X163982061Y-92294108D01*
X163988513Y-92295480D01*
X164179487Y-92295480D01*
X164185939Y-92294108D01*
X164185944Y-92294108D01*
X164272887Y-92275627D01*
X164366288Y-92255774D01*
X164411034Y-92235852D01*
X164534722Y-92180783D01*
X164534724Y-92180782D01*
X164540752Y-92178098D01*
X164554186Y-92168338D01*
X164607776Y-92129402D01*
X164674644Y-92105544D01*
X164743795Y-92121624D01*
X164790956Y-92168338D01*
X164827102Y-92230944D01*
X164868960Y-92303444D01*
X164873378Y-92308351D01*
X164873379Y-92308352D01*
X164984744Y-92432035D01*
X164996747Y-92445366D01*
X165151248Y-92557618D01*
X165157276Y-92560302D01*
X165157278Y-92560303D01*
X165310632Y-92628580D01*
X165325712Y-92635294D01*
X165419113Y-92655147D01*
X165506056Y-92673628D01*
X165506061Y-92673628D01*
X165512513Y-92675000D01*
X165703487Y-92675000D01*
X165709939Y-92673628D01*
X165709944Y-92673628D01*
X165840259Y-92645928D01*
X165873304Y-92638904D01*
X165944094Y-92644306D01*
X166000726Y-92687123D01*
X166025220Y-92753760D01*
X166025500Y-92762151D01*
X166025500Y-93492604D01*
X166005498Y-93560725D01*
X165993136Y-93576914D01*
X165894733Y-93686202D01*
X165884960Y-93697056D01*
X165842537Y-93770535D01*
X165794729Y-93853341D01*
X165789473Y-93862444D01*
X165730458Y-94044072D01*
X165729768Y-94050633D01*
X165729768Y-94050635D01*
X165721720Y-94127206D01*
X165710496Y-94234000D01*
X165711186Y-94240565D01*
X165729485Y-94414666D01*
X165730458Y-94423928D01*
X165789473Y-94605556D01*
X165884960Y-94770944D01*
X165889378Y-94775851D01*
X165889379Y-94775852D01*
X165955056Y-94848794D01*
X166012747Y-94912866D01*
X166021760Y-94919414D01*
X166136207Y-95002565D01*
X166167248Y-95025118D01*
X166173276Y-95027802D01*
X166173278Y-95027803D01*
X166199676Y-95039556D01*
X166341712Y-95102794D01*
X166421949Y-95119849D01*
X166522056Y-95141128D01*
X166522061Y-95141128D01*
X166528513Y-95142500D01*
X166719487Y-95142500D01*
X166725939Y-95141128D01*
X166725944Y-95141128D01*
X166826051Y-95119849D01*
X166906288Y-95102794D01*
X167048324Y-95039556D01*
X167074722Y-95027803D01*
X167074724Y-95027802D01*
X167080752Y-95025118D01*
X167111794Y-95002565D01*
X167226240Y-94919414D01*
X167235253Y-94912866D01*
X167292944Y-94848794D01*
X167358621Y-94775852D01*
X167358622Y-94775851D01*
X167363040Y-94770944D01*
X167458527Y-94605556D01*
X167517542Y-94423928D01*
X167518516Y-94414666D01*
X167536814Y-94240565D01*
X167537504Y-94234000D01*
X167526280Y-94127206D01*
X167518232Y-94050635D01*
X167518232Y-94050633D01*
X167517542Y-94044072D01*
X167458527Y-93862444D01*
X167453272Y-93853341D01*
X167405463Y-93770535D01*
X167363040Y-93697056D01*
X167353267Y-93686202D01*
X167254864Y-93576914D01*
X167224146Y-93512907D01*
X167222500Y-93492604D01*
X167222500Y-87355396D01*
X167242502Y-87287275D01*
X167254864Y-87271086D01*
X167358621Y-87155852D01*
X167358622Y-87155851D01*
X167363040Y-87150944D01*
X167458527Y-86985556D01*
X167517542Y-86803928D01*
X167522107Y-86760500D01*
X167536814Y-86620565D01*
X167537504Y-86614000D01*
X167529390Y-86536803D01*
X167518232Y-86430635D01*
X167518232Y-86430633D01*
X167517542Y-86424072D01*
X167458527Y-86242444D01*
X167446353Y-86221357D01*
X167380067Y-86106548D01*
X167363040Y-86077056D01*
X167344918Y-86056929D01*
X167254864Y-85956914D01*
X167224146Y-85892907D01*
X167222500Y-85872604D01*
X167222500Y-83867482D01*
X167223578Y-83851035D01*
X167226586Y-83828188D01*
X167227664Y-83820000D01*
X167219547Y-83758345D01*
X167215011Y-83723892D01*
X167208173Y-83671946D01*
X167208172Y-83671944D01*
X167207095Y-83663760D01*
X167169320Y-83572565D01*
X167149948Y-83525796D01*
X167149947Y-83525794D01*
X167146788Y-83518168D01*
X167054851Y-83398352D01*
X167029251Y-83332132D01*
X167028814Y-83321649D01*
X167028814Y-83318565D01*
X167029504Y-83312000D01*
X167018280Y-83205206D01*
X167010232Y-83128635D01*
X167010232Y-83128633D01*
X167009542Y-83122072D01*
X166950527Y-82940444D01*
X166946705Y-82933823D01*
X166902616Y-82857460D01*
X166855040Y-82775056D01*
X166842607Y-82761247D01*
X166731675Y-82638045D01*
X166731674Y-82638044D01*
X166727253Y-82633134D01*
X166572752Y-82520882D01*
X166566724Y-82518198D01*
X166566722Y-82518197D01*
X166404319Y-82445891D01*
X166404318Y-82445891D01*
X166398288Y-82443206D01*
X166304888Y-82423353D01*
X166217944Y-82404872D01*
X166217939Y-82404872D01*
X166211487Y-82403500D01*
X166020513Y-82403500D01*
X166014061Y-82404872D01*
X166014056Y-82404872D01*
X165927112Y-82423353D01*
X165833712Y-82443206D01*
X165827682Y-82445891D01*
X165827681Y-82445891D01*
X165665278Y-82518197D01*
X165665276Y-82518198D01*
X165659248Y-82520882D01*
X165504747Y-82633134D01*
X165500326Y-82638044D01*
X165500325Y-82638045D01*
X165389394Y-82761247D01*
X165376960Y-82775056D01*
X165329384Y-82857460D01*
X165285296Y-82933823D01*
X165281473Y-82940444D01*
X165222458Y-83122072D01*
X165221768Y-83128633D01*
X165221768Y-83128635D01*
X165213720Y-83205206D01*
X165202496Y-83312000D01*
X165203186Y-83318565D01*
X165220773Y-83485893D01*
X165222458Y-83501928D01*
X165281473Y-83683556D01*
X165376960Y-83848944D01*
X165381378Y-83853851D01*
X165381379Y-83853852D01*
X165462962Y-83944459D01*
X165504747Y-83990866D01*
X165559787Y-84030855D01*
X165653831Y-84099182D01*
X165659248Y-84103118D01*
X165665276Y-84105802D01*
X165665278Y-84105803D01*
X165826513Y-84177589D01*
X165833712Y-84180794D01*
X165925697Y-84200346D01*
X165988170Y-84234074D01*
X166022492Y-84296224D01*
X166025500Y-84323593D01*
X166025500Y-84348349D01*
X166005498Y-84416470D01*
X165951842Y-84462963D01*
X165881568Y-84473067D01*
X165873311Y-84471598D01*
X165811764Y-84458515D01*
X165709944Y-84436872D01*
X165709939Y-84436872D01*
X165703487Y-84435500D01*
X165512513Y-84435500D01*
X165506061Y-84436872D01*
X165506056Y-84436872D01*
X165444484Y-84449960D01*
X165325712Y-84475206D01*
X165319682Y-84477891D01*
X165319681Y-84477891D01*
X165157278Y-84550197D01*
X165157276Y-84550198D01*
X165151248Y-84552882D01*
X165145905Y-84556764D01*
X165136562Y-84563552D01*
X165069695Y-84587411D01*
X165000543Y-84571332D01*
X164951062Y-84520418D01*
X164936500Y-84461617D01*
X164936500Y-84375482D01*
X164937578Y-84359035D01*
X164940586Y-84336188D01*
X164941664Y-84328000D01*
X164936398Y-84288003D01*
X164929299Y-84234074D01*
X164922173Y-84179948D01*
X164922173Y-84179947D01*
X164921095Y-84171760D01*
X164879636Y-84071670D01*
X164865343Y-84037162D01*
X164863949Y-84033797D01*
X164860789Y-84026168D01*
X164847930Y-84009409D01*
X164788940Y-83932533D01*
X164791830Y-83930316D01*
X164791829Y-83930315D01*
X164788939Y-83932532D01*
X164769878Y-83907691D01*
X164764855Y-83901145D01*
X164740013Y-83882083D01*
X164727623Y-83871216D01*
X164271619Y-83415212D01*
X164237593Y-83352900D01*
X164236081Y-83325170D01*
X164234814Y-83325170D01*
X164234814Y-83318565D01*
X164235504Y-83312000D01*
X164224280Y-83205206D01*
X164216232Y-83128635D01*
X164216232Y-83128633D01*
X164215542Y-83122072D01*
X164156527Y-82940444D01*
X164152705Y-82933823D01*
X164108616Y-82857460D01*
X164061040Y-82775056D01*
X164048607Y-82761247D01*
X163937675Y-82638045D01*
X163937674Y-82638044D01*
X163933253Y-82633134D01*
X163778752Y-82520882D01*
X163772724Y-82518198D01*
X163772722Y-82518197D01*
X163610319Y-82445891D01*
X163610318Y-82445891D01*
X163604288Y-82443206D01*
X163510888Y-82423353D01*
X163423944Y-82404872D01*
X163423939Y-82404872D01*
X163417487Y-82403500D01*
X163226513Y-82403500D01*
X163220061Y-82404872D01*
X163220056Y-82404872D01*
X163133112Y-82423353D01*
X163039712Y-82443206D01*
X163033682Y-82445891D01*
X163033681Y-82445891D01*
X162871278Y-82518197D01*
X162871276Y-82518198D01*
X162865248Y-82520882D01*
X162710747Y-82633134D01*
X162706326Y-82638044D01*
X162706325Y-82638045D01*
X162595394Y-82761247D01*
X162582960Y-82775056D01*
X162535384Y-82857460D01*
X162491296Y-82933823D01*
X162487473Y-82940444D01*
X162428458Y-83122072D01*
X162427768Y-83128633D01*
X162427768Y-83128635D01*
X162419720Y-83205206D01*
X162408496Y-83312000D01*
X162409186Y-83318565D01*
X162426773Y-83485893D01*
X162428458Y-83501928D01*
X162487473Y-83683556D01*
X162582960Y-83848944D01*
X162587378Y-83853851D01*
X162587379Y-83853852D01*
X162668962Y-83944459D01*
X162710747Y-83990866D01*
X162765787Y-84030855D01*
X162859831Y-84099182D01*
X162865248Y-84103118D01*
X162871276Y-84105802D01*
X162871278Y-84105803D01*
X163032513Y-84177589D01*
X163039712Y-84180794D01*
X163131696Y-84200346D01*
X163220056Y-84219128D01*
X163220061Y-84219128D01*
X163226513Y-84220500D01*
X163331903Y-84220500D01*
X163400024Y-84240502D01*
X163420998Y-84257405D01*
X163702595Y-84539002D01*
X163736621Y-84601314D01*
X163739500Y-84628097D01*
X163739500Y-90464058D01*
X163719498Y-90532179D01*
X163664750Y-90579164D01*
X163633283Y-90593174D01*
X163633275Y-90593179D01*
X163627248Y-90595862D01*
X163621907Y-90599742D01*
X163621906Y-90599743D01*
X163580012Y-90630181D01*
X163472747Y-90708114D01*
X163468326Y-90713024D01*
X163468325Y-90713025D01*
X163377998Y-90813344D01*
X163344960Y-90850036D01*
X163249473Y-91015424D01*
X163190458Y-91197052D01*
X163184886Y-91250072D01*
X163184169Y-91256892D01*
X163157156Y-91322549D01*
X163098935Y-91363179D01*
X163027990Y-91365882D01*
X162969764Y-91332817D01*
X162747619Y-91110672D01*
X162713593Y-91048360D01*
X162712081Y-91020630D01*
X162710814Y-91020630D01*
X162710814Y-91014025D01*
X162711504Y-91007460D01*
X162701132Y-90908774D01*
X162692232Y-90824095D01*
X162692232Y-90824093D01*
X162691542Y-90817532D01*
X162632527Y-90635904D01*
X162624817Y-90622549D01*
X162572641Y-90532179D01*
X162537040Y-90470516D01*
X162502286Y-90431917D01*
X162413675Y-90333505D01*
X162413674Y-90333504D01*
X162409253Y-90328594D01*
X162304970Y-90252828D01*
X162260094Y-90220223D01*
X162260093Y-90220222D01*
X162254752Y-90216342D01*
X162248724Y-90213658D01*
X162248722Y-90213657D01*
X162086319Y-90141351D01*
X162086318Y-90141351D01*
X162080288Y-90138666D01*
X161986888Y-90118813D01*
X161899944Y-90100332D01*
X161899939Y-90100332D01*
X161893487Y-90098960D01*
X161702513Y-90098960D01*
X161696061Y-90100332D01*
X161696056Y-90100332D01*
X161609112Y-90118813D01*
X161515712Y-90138666D01*
X161509685Y-90141349D01*
X161509677Y-90141352D01*
X161424671Y-90179199D01*
X161354304Y-90188633D01*
X161290007Y-90158526D01*
X161252194Y-90098437D01*
X161247423Y-90064092D01*
X161247423Y-89157247D01*
X161267425Y-89089126D01*
X161279787Y-89072937D01*
X161383544Y-88957703D01*
X161383545Y-88957702D01*
X161387963Y-88952795D01*
X161483450Y-88787407D01*
X161542465Y-88605779D01*
X161547492Y-88557955D01*
X161561737Y-88422416D01*
X161562427Y-88415851D01*
X161557479Y-88368774D01*
X161543155Y-88232486D01*
X161543155Y-88232484D01*
X161542465Y-88225923D01*
X161483450Y-88044295D01*
X161387963Y-87878907D01*
X161278018Y-87756800D01*
X161264598Y-87741896D01*
X161264597Y-87741895D01*
X161260176Y-87736985D01*
X161159517Y-87663852D01*
X161111017Y-87628614D01*
X161111016Y-87628613D01*
X161105675Y-87624733D01*
X161099647Y-87622049D01*
X161099645Y-87622048D01*
X160937242Y-87549742D01*
X160937241Y-87549742D01*
X160931211Y-87547057D01*
X160830517Y-87525654D01*
X160747884Y-87508089D01*
X160685410Y-87474360D01*
X160654248Y-87423779D01*
X160640651Y-87381932D01*
X160600527Y-87258444D01*
X160578180Y-87219737D01*
X160519986Y-87118943D01*
X160505040Y-87093056D01*
X160430913Y-87010729D01*
X160396864Y-86972914D01*
X160366146Y-86908907D01*
X160364500Y-86888604D01*
X160364500Y-84629482D01*
X160365578Y-84613035D01*
X160368586Y-84590188D01*
X160369664Y-84582000D01*
X160364500Y-84542775D01*
X160359061Y-84501459D01*
X160350173Y-84433946D01*
X160350172Y-84433944D01*
X160349095Y-84425760D01*
X160315414Y-84344447D01*
X160291948Y-84287796D01*
X160291947Y-84287794D01*
X160288788Y-84280168D01*
X160210077Y-84177589D01*
X160197878Y-84161691D01*
X160192855Y-84155145D01*
X160168014Y-84136084D01*
X160155622Y-84125216D01*
X160008118Y-83977711D01*
X159974093Y-83915399D01*
X159971904Y-83901787D01*
X159970732Y-83890636D01*
X159970732Y-83890635D01*
X159970042Y-83884072D01*
X159967167Y-83875222D01*
X159917996Y-83723892D01*
X159911027Y-83702444D01*
X159815540Y-83537056D01*
X159805402Y-83525796D01*
X159692175Y-83400045D01*
X159692174Y-83400044D01*
X159687753Y-83395134D01*
X159567284Y-83307608D01*
X159538594Y-83286763D01*
X159538593Y-83286762D01*
X159533252Y-83282882D01*
X159527224Y-83280198D01*
X159527222Y-83280197D01*
X159364819Y-83207891D01*
X159364818Y-83207891D01*
X159358788Y-83205206D01*
X159246221Y-83181279D01*
X159178444Y-83166872D01*
X159178439Y-83166872D01*
X159171987Y-83165500D01*
X158981013Y-83165500D01*
X158974561Y-83166872D01*
X158974556Y-83166872D01*
X158906779Y-83181279D01*
X158794212Y-83205206D01*
X158788182Y-83207891D01*
X158788181Y-83207891D01*
X158625778Y-83280197D01*
X158625776Y-83280198D01*
X158619748Y-83282882D01*
X158614407Y-83286762D01*
X158614406Y-83286763D01*
X158585716Y-83307608D01*
X158465247Y-83395134D01*
X158460826Y-83400044D01*
X158460825Y-83400045D01*
X158347599Y-83525796D01*
X158337460Y-83537056D01*
X158241973Y-83702444D01*
X158182958Y-83884072D01*
X158182268Y-83890633D01*
X158182268Y-83890635D01*
X158165295Y-84052128D01*
X158162996Y-84074000D01*
X158163686Y-84080565D01*
X158181363Y-84248749D01*
X158182958Y-84263928D01*
X158241973Y-84445556D01*
X158245276Y-84451278D01*
X158245277Y-84451279D01*
X158257874Y-84473097D01*
X158337460Y-84610944D01*
X158341878Y-84615851D01*
X158341879Y-84615852D01*
X158460825Y-84747955D01*
X158465247Y-84752866D01*
X158510010Y-84785388D01*
X158588707Y-84842565D01*
X158619748Y-84865118D01*
X158625776Y-84867802D01*
X158625778Y-84867803D01*
X158788181Y-84940109D01*
X158794212Y-84942794D01*
X158887612Y-84962647D01*
X158974556Y-84981128D01*
X158974561Y-84981128D01*
X158981013Y-84982500D01*
X159041500Y-84982500D01*
X159109621Y-85002502D01*
X159156114Y-85056158D01*
X159167500Y-85108500D01*
X159167500Y-85865851D01*
X159147498Y-85933972D01*
X159093842Y-85980465D01*
X159041500Y-85991851D01*
X158882871Y-85991851D01*
X158876419Y-85993223D01*
X158876414Y-85993223D01*
X158789471Y-86011704D01*
X158696070Y-86031557D01*
X158690040Y-86034242D01*
X158690039Y-86034242D01*
X158527636Y-86106548D01*
X158527634Y-86106549D01*
X158521606Y-86109233D01*
X158367105Y-86221485D01*
X158362683Y-86226397D01*
X158357781Y-86230810D01*
X158356818Y-86229741D01*
X158302782Y-86263032D01*
X158231798Y-86261681D01*
X158172813Y-86222167D01*
X158144555Y-86157037D01*
X158149758Y-86102546D01*
X158182629Y-86001379D01*
X158191606Y-85973752D01*
X158193461Y-85956109D01*
X158210878Y-85790389D01*
X158211568Y-85783824D01*
X158195098Y-85627118D01*
X158192296Y-85600459D01*
X158192296Y-85600457D01*
X158191606Y-85593896D01*
X158132591Y-85412268D01*
X158037104Y-85246880D01*
X157981276Y-85184876D01*
X157913739Y-85109869D01*
X157913738Y-85109868D01*
X157909317Y-85104958D01*
X157810221Y-85032960D01*
X157760158Y-84996587D01*
X157760157Y-84996586D01*
X157754816Y-84992706D01*
X157748788Y-84990022D01*
X157748786Y-84990021D01*
X157586383Y-84917715D01*
X157586382Y-84917715D01*
X157580352Y-84915030D01*
X157480445Y-84893794D01*
X157400008Y-84876696D01*
X157400003Y-84876696D01*
X157393551Y-84875324D01*
X157202577Y-84875324D01*
X157196125Y-84876696D01*
X157196120Y-84876696D01*
X157115683Y-84893794D01*
X157015776Y-84915030D01*
X157009746Y-84917715D01*
X157009745Y-84917715D01*
X156847342Y-84990021D01*
X156847340Y-84990022D01*
X156841312Y-84992706D01*
X156835971Y-84996586D01*
X156835970Y-84996587D01*
X156785907Y-85032960D01*
X156686811Y-85104958D01*
X156682390Y-85109868D01*
X156682389Y-85109869D01*
X156614853Y-85184876D01*
X156559024Y-85246880D01*
X156463537Y-85412268D01*
X156404522Y-85593896D01*
X156403832Y-85600457D01*
X156403832Y-85600459D01*
X156401030Y-85627118D01*
X156384560Y-85783824D01*
X156385250Y-85790389D01*
X156402668Y-85956109D01*
X156404522Y-85973752D01*
X156463537Y-86155380D01*
X156466840Y-86161102D01*
X156466841Y-86161103D01*
X156478710Y-86181660D01*
X156559024Y-86320768D01*
X156563442Y-86325675D01*
X156563443Y-86325676D01*
X156667200Y-86440910D01*
X156697918Y-86504917D01*
X156699564Y-86525220D01*
X156699564Y-90157457D01*
X156679562Y-90225578D01*
X156625906Y-90272071D01*
X156555632Y-90282175D01*
X156534626Y-90277289D01*
X156530761Y-90276033D01*
X156524732Y-90273349D01*
X156428189Y-90252828D01*
X156344388Y-90235015D01*
X156344383Y-90235015D01*
X156337931Y-90233643D01*
X156232541Y-90233643D01*
X156164420Y-90213641D01*
X156143446Y-90196738D01*
X156083405Y-90136697D01*
X156049379Y-90074385D01*
X156046500Y-90047602D01*
X156046500Y-83545396D01*
X156066502Y-83477275D01*
X156078864Y-83461086D01*
X156182621Y-83345852D01*
X156182622Y-83345851D01*
X156187040Y-83340944D01*
X156282527Y-83175556D01*
X156341542Y-82993928D01*
X156342433Y-82985457D01*
X156360814Y-82810565D01*
X156361504Y-82804000D01*
X156349851Y-82693126D01*
X156342232Y-82620635D01*
X156342232Y-82620633D01*
X156341542Y-82614072D01*
X156282527Y-82432444D01*
X156187040Y-82267056D01*
X156059253Y-82125134D01*
X155960157Y-82053136D01*
X155910094Y-82016763D01*
X155910093Y-82016762D01*
X155904752Y-82012882D01*
X155898724Y-82010198D01*
X155898722Y-82010197D01*
X155736319Y-81937891D01*
X155736318Y-81937891D01*
X155730288Y-81935206D01*
X155636888Y-81915353D01*
X155549944Y-81896872D01*
X155549939Y-81896872D01*
X155543487Y-81895500D01*
X155352513Y-81895500D01*
X155346061Y-81896872D01*
X155346056Y-81896872D01*
X155259112Y-81915353D01*
X155165712Y-81935206D01*
X155159682Y-81937891D01*
X155159681Y-81937891D01*
X154997278Y-82010197D01*
X154997276Y-82010198D01*
X154991248Y-82012882D01*
X154985907Y-82016762D01*
X154985906Y-82016763D01*
X154935843Y-82053136D01*
X154836747Y-82125134D01*
X154708960Y-82267056D01*
X154613473Y-82432444D01*
X154554458Y-82614072D01*
X154553768Y-82620633D01*
X154553768Y-82620635D01*
X154546149Y-82693126D01*
X154534496Y-82804000D01*
X154535186Y-82810565D01*
X154535186Y-82817170D01*
X154532349Y-82817170D01*
X154521851Y-82874730D01*
X154498381Y-82907212D01*
X153534377Y-83871216D01*
X153521987Y-83882083D01*
X153497145Y-83901145D01*
X153492122Y-83907691D01*
X153481361Y-83921715D01*
X153473061Y-83932532D01*
X153471517Y-83931347D01*
X153471516Y-83931348D01*
X153473060Y-83932533D01*
X153414071Y-84009409D01*
X153401211Y-84026168D01*
X153398051Y-84033797D01*
X153396657Y-84037162D01*
X153382364Y-84071670D01*
X153340905Y-84171760D01*
X153339827Y-84179947D01*
X153339827Y-84179948D01*
X153332702Y-84234074D01*
X153325602Y-84288003D01*
X153320336Y-84328000D01*
X153321414Y-84336188D01*
X153321414Y-84344447D01*
X153319952Y-84344447D01*
X153310398Y-84405731D01*
X153290052Y-84436339D01*
X153184960Y-84553056D01*
X153089473Y-84718444D01*
X153030458Y-84900072D01*
X153029768Y-84906633D01*
X153029768Y-84906635D01*
X153020314Y-84996587D01*
X153010496Y-85090000D01*
X153011186Y-85096565D01*
X153011186Y-85103170D01*
X153008349Y-85103170D01*
X152997851Y-85160730D01*
X152974381Y-85193212D01*
X151078579Y-87089014D01*
X151066189Y-87099881D01*
X151041347Y-87118943D01*
X151017263Y-87150330D01*
X151015719Y-87149145D01*
X151015718Y-87149146D01*
X151017262Y-87150331D01*
X150961027Y-87223618D01*
X150945413Y-87243966D01*
X150923936Y-87295818D01*
X150885107Y-87389558D01*
X150884030Y-87397742D01*
X150884029Y-87397744D01*
X150878457Y-87440072D01*
X150873321Y-87479085D01*
X150864538Y-87545798D01*
X150865616Y-87553986D01*
X150868624Y-87576833D01*
X150869702Y-87593280D01*
X150869702Y-88496806D01*
X150849700Y-88564927D01*
X150837338Y-88581116D01*
X150750281Y-88677803D01*
X150729162Y-88701258D01*
X150633675Y-88866646D01*
X150574660Y-89048274D01*
X150554698Y-89238202D01*
X150555388Y-89244767D01*
X150559189Y-89280927D01*
X150574660Y-89428130D01*
X150633675Y-89609758D01*
X150636978Y-89615480D01*
X150636979Y-89615481D01*
X150651941Y-89641396D01*
X150729162Y-89775146D01*
X150753138Y-89801774D01*
X150783854Y-89865780D01*
X150785500Y-89886082D01*
X150785500Y-92408117D01*
X150765498Y-92476238D01*
X150711842Y-92522731D01*
X150641568Y-92532835D01*
X150585438Y-92510052D01*
X150576095Y-92503264D01*
X150570752Y-92499382D01*
X150564726Y-92496699D01*
X150564719Y-92496695D01*
X150419488Y-92432035D01*
X150365392Y-92386055D01*
X150349650Y-92348303D01*
X150349319Y-92348410D01*
X150347995Y-92344334D01*
X150347993Y-92344330D01*
X150344699Y-92334189D01*
X150296074Y-92184541D01*
X150290304Y-92166782D01*
X150277694Y-92144940D01*
X150237348Y-92075060D01*
X150194817Y-92001394D01*
X150151122Y-91952865D01*
X150071452Y-91864383D01*
X150071451Y-91864382D01*
X150067030Y-91859472D01*
X149952288Y-91776107D01*
X149917871Y-91751101D01*
X149917870Y-91751100D01*
X149912529Y-91747220D01*
X149906501Y-91744536D01*
X149906499Y-91744535D01*
X149744096Y-91672229D01*
X149744095Y-91672229D01*
X149738065Y-91669544D01*
X149644665Y-91649691D01*
X149557721Y-91631210D01*
X149557716Y-91631210D01*
X149551264Y-91629838D01*
X149360290Y-91629838D01*
X149353838Y-91631210D01*
X149353833Y-91631210D01*
X149266889Y-91649691D01*
X149173489Y-91669544D01*
X149167459Y-91672229D01*
X149167458Y-91672229D01*
X149005055Y-91744535D01*
X149005053Y-91744536D01*
X148999025Y-91747220D01*
X148993684Y-91751100D01*
X148993683Y-91751101D01*
X148959266Y-91776107D01*
X148844524Y-91859472D01*
X148840103Y-91864382D01*
X148840102Y-91864383D01*
X148760433Y-91952865D01*
X148716737Y-92001394D01*
X148713436Y-92007112D01*
X148713020Y-92007832D01*
X148712671Y-92008165D01*
X148709553Y-92012456D01*
X148708768Y-92011886D01*
X148661636Y-92056824D01*
X148603902Y-92070830D01*
X148563241Y-92070830D01*
X148495120Y-92050828D01*
X148454122Y-92007830D01*
X148427747Y-91962148D01*
X148424446Y-91956430D01*
X148395178Y-91923924D01*
X148301081Y-91819419D01*
X148301080Y-91819418D01*
X148296659Y-91814508D01*
X148142158Y-91702256D01*
X148136130Y-91699572D01*
X148136128Y-91699571D01*
X147973725Y-91627265D01*
X147973724Y-91627265D01*
X147967694Y-91624580D01*
X147874294Y-91604727D01*
X147787350Y-91586246D01*
X147787345Y-91586246D01*
X147780893Y-91584874D01*
X147589919Y-91584874D01*
X147583467Y-91586246D01*
X147583462Y-91586246D01*
X147496518Y-91604727D01*
X147403118Y-91624580D01*
X147397088Y-91627265D01*
X147397087Y-91627265D01*
X147234684Y-91699571D01*
X147234682Y-91699572D01*
X147228654Y-91702256D01*
X147074153Y-91814508D01*
X147069732Y-91819418D01*
X147069731Y-91819419D01*
X146975635Y-91923924D01*
X146946366Y-91956430D01*
X146914023Y-92012449D01*
X146867036Y-92093834D01*
X146850879Y-92121818D01*
X146791864Y-92303446D01*
X146791174Y-92310007D01*
X146791174Y-92310009D01*
X146777245Y-92442535D01*
X146771902Y-92493374D01*
X146772592Y-92499939D01*
X146772592Y-92506544D01*
X146769755Y-92506544D01*
X146759257Y-92564104D01*
X146735787Y-92596586D01*
X146568267Y-92764106D01*
X146505955Y-92798132D01*
X146479172Y-92801011D01*
X141564028Y-92801011D01*
X141495907Y-92781009D01*
X141449414Y-92727353D01*
X141439310Y-92657079D01*
X141468804Y-92592499D01*
X141512779Y-92559904D01*
X141517914Y-92557618D01*
X141535435Y-92549817D01*
X141674722Y-92487803D01*
X141674724Y-92487802D01*
X141680752Y-92485118D01*
X141702703Y-92469170D01*
X141779781Y-92413169D01*
X141835253Y-92372866D01*
X141914247Y-92285134D01*
X141958621Y-92235852D01*
X141958622Y-92235851D01*
X141963040Y-92230944D01*
X142053040Y-92075060D01*
X142055223Y-92071279D01*
X142055224Y-92071278D01*
X142058527Y-92065556D01*
X142117542Y-91883928D01*
X142120113Y-91859472D01*
X142136814Y-91700565D01*
X142137504Y-91694000D01*
X142126179Y-91586246D01*
X142118232Y-91510635D01*
X142118232Y-91510633D01*
X142117542Y-91504072D01*
X142058527Y-91322444D01*
X141963040Y-91157056D01*
X141955524Y-91148708D01*
X141839675Y-91020045D01*
X141839674Y-91020044D01*
X141835253Y-91015134D01*
X141680752Y-90902882D01*
X141674724Y-90900198D01*
X141674722Y-90900197D01*
X141512319Y-90827891D01*
X141512318Y-90827891D01*
X141506288Y-90825206D01*
X141409110Y-90804550D01*
X141325944Y-90786872D01*
X141325939Y-90786872D01*
X141319487Y-90785500D01*
X141128513Y-90785500D01*
X141122061Y-90786872D01*
X141122056Y-90786872D01*
X141038890Y-90804550D01*
X140941712Y-90825206D01*
X140935682Y-90827891D01*
X140935681Y-90827891D01*
X140780531Y-90896968D01*
X140710164Y-90906402D01*
X140645867Y-90876295D01*
X140608053Y-90816207D01*
X140603972Y-90768690D01*
X140604045Y-90768001D01*
X140613504Y-90678000D01*
X140601773Y-90566383D01*
X140594232Y-90494635D01*
X140594232Y-90494633D01*
X140593542Y-90488072D01*
X140534527Y-90306444D01*
X140521864Y-90284510D01*
X140469160Y-90193226D01*
X140439040Y-90141056D01*
X140369742Y-90064092D01*
X140315675Y-90004045D01*
X140315674Y-90004044D01*
X140311253Y-89999134D01*
X140156752Y-89886882D01*
X140150724Y-89884198D01*
X140150722Y-89884197D01*
X139988319Y-89811891D01*
X139988318Y-89811891D01*
X139982288Y-89809206D01*
X139888887Y-89789353D01*
X139801944Y-89770872D01*
X139801939Y-89770872D01*
X139795487Y-89769500D01*
X139604513Y-89769500D01*
X139598061Y-89770872D01*
X139598056Y-89770872D01*
X139511113Y-89789353D01*
X139417712Y-89809206D01*
X139411682Y-89811891D01*
X139411681Y-89811891D01*
X139249278Y-89884197D01*
X139249276Y-89884198D01*
X139243248Y-89886882D01*
X139088747Y-89999134D01*
X139084326Y-90004044D01*
X139084325Y-90004045D01*
X139030259Y-90064092D01*
X138960960Y-90141056D01*
X138939383Y-90178428D01*
X138928077Y-90198011D01*
X138876695Y-90247004D01*
X138818958Y-90261011D01*
X136158491Y-90261011D01*
X136090370Y-90241009D01*
X136069396Y-90224106D01*
X135763405Y-89918115D01*
X135729379Y-89855803D01*
X135726500Y-89829020D01*
X135726500Y-85172198D01*
X135732667Y-85133261D01*
X135737369Y-85118789D01*
X135767542Y-85025928D01*
X135770005Y-85002502D01*
X135786814Y-84842565D01*
X135787504Y-84836000D01*
X135779822Y-84762907D01*
X135768232Y-84652635D01*
X135768232Y-84652633D01*
X135767542Y-84646072D01*
X135708527Y-84464444D01*
X135692304Y-84436344D01*
X135641499Y-84348349D01*
X135613040Y-84299056D01*
X135602902Y-84287796D01*
X135489675Y-84162045D01*
X135489674Y-84162044D01*
X135485253Y-84157134D01*
X135367622Y-84071670D01*
X135336094Y-84048763D01*
X135336093Y-84048762D01*
X135330752Y-84044882D01*
X135324724Y-84042198D01*
X135324722Y-84042197D01*
X135162319Y-83969891D01*
X135162318Y-83969891D01*
X135156288Y-83967206D01*
X135057280Y-83946161D01*
X134975944Y-83928872D01*
X134975939Y-83928872D01*
X134969487Y-83927500D01*
X134778513Y-83927500D01*
X134772061Y-83928872D01*
X134772056Y-83928872D01*
X134690720Y-83946161D01*
X134591712Y-83967206D01*
X134585682Y-83969891D01*
X134585681Y-83969891D01*
X134423278Y-84042197D01*
X134423276Y-84042198D01*
X134417248Y-84044882D01*
X134411907Y-84048762D01*
X134411906Y-84048763D01*
X134380378Y-84071670D01*
X134262747Y-84157134D01*
X134258326Y-84162044D01*
X134258325Y-84162045D01*
X134145099Y-84287796D01*
X134134960Y-84299056D01*
X134106501Y-84348349D01*
X134055697Y-84436344D01*
X134039473Y-84464444D01*
X133980458Y-84646072D01*
X133979769Y-84652631D01*
X133979768Y-84652634D01*
X133961056Y-84830671D01*
X133934043Y-84896327D01*
X133875821Y-84936957D01*
X133835746Y-84943500D01*
X133762513Y-84943500D01*
X133756061Y-84944872D01*
X133756056Y-84944872D01*
X133669113Y-84963353D01*
X133575712Y-84983206D01*
X133569682Y-84985891D01*
X133569681Y-84985891D01*
X133407278Y-85058197D01*
X133407276Y-85058198D01*
X133401248Y-85060882D01*
X133395907Y-85064762D01*
X133395906Y-85064763D01*
X133361171Y-85090000D01*
X133246747Y-85173134D01*
X133242326Y-85178044D01*
X133242325Y-85178045D01*
X133126992Y-85306136D01*
X133118960Y-85315056D01*
X133023473Y-85480444D01*
X132964458Y-85662072D01*
X132963768Y-85668633D01*
X132963768Y-85668635D01*
X132945880Y-85838829D01*
X132944496Y-85852000D01*
X132945186Y-85858565D01*
X132962455Y-86022866D01*
X132964458Y-86041928D01*
X133023473Y-86223556D01*
X133026776Y-86229278D01*
X133026777Y-86229279D01*
X133052195Y-86273304D01*
X133118960Y-86388944D01*
X133123378Y-86393851D01*
X133123379Y-86393852D01*
X133148603Y-86421866D01*
X133246747Y-86530866D01*
X133252089Y-86534747D01*
X133252091Y-86534749D01*
X133338612Y-86597610D01*
X133381966Y-86653832D01*
X133390551Y-86699546D01*
X133390551Y-90196211D01*
X133370549Y-90264332D01*
X133316893Y-90310825D01*
X133246619Y-90320929D01*
X133213304Y-90311319D01*
X133100311Y-90261011D01*
X133048268Y-90237840D01*
X133048267Y-90237840D01*
X133042237Y-90235155D01*
X132948836Y-90215302D01*
X132861893Y-90196821D01*
X132861888Y-90196821D01*
X132855436Y-90195449D01*
X132664462Y-90195449D01*
X132658010Y-90196821D01*
X132658005Y-90196821D01*
X132571062Y-90215302D01*
X132477661Y-90235155D01*
X132471631Y-90237840D01*
X132471630Y-90237840D01*
X132309227Y-90310146D01*
X132309225Y-90310147D01*
X132303197Y-90312831D01*
X132297856Y-90316711D01*
X132297855Y-90316712D01*
X132201220Y-90386922D01*
X132148696Y-90425083D01*
X132144283Y-90429985D01*
X132144281Y-90429986D01*
X132113871Y-90463760D01*
X132053425Y-90500999D01*
X132020235Y-90505449D01*
X129502500Y-90505449D01*
X129434379Y-90485447D01*
X129387886Y-90431791D01*
X129376500Y-90379449D01*
X129376500Y-86863593D01*
X129396502Y-86795472D01*
X129450158Y-86748979D01*
X129476302Y-86740346D01*
X129568288Y-86720794D01*
X129591582Y-86710423D01*
X129736722Y-86645803D01*
X129736724Y-86645802D01*
X129742752Y-86643118D01*
X129754822Y-86634349D01*
X129889081Y-86536803D01*
X129897253Y-86530866D01*
X129932078Y-86492189D01*
X129992524Y-86454950D01*
X130025714Y-86450500D01*
X130324286Y-86450500D01*
X130392407Y-86470502D01*
X130417922Y-86492189D01*
X130452747Y-86530866D01*
X130460919Y-86536803D01*
X130595179Y-86634349D01*
X130607248Y-86643118D01*
X130613276Y-86645802D01*
X130613278Y-86645803D01*
X130758418Y-86710423D01*
X130781712Y-86720794D01*
X130873696Y-86740346D01*
X130962056Y-86759128D01*
X130962061Y-86759128D01*
X130968513Y-86760500D01*
X131159487Y-86760500D01*
X131165939Y-86759128D01*
X131165944Y-86759128D01*
X131254304Y-86740346D01*
X131346288Y-86720794D01*
X131369582Y-86710423D01*
X131514722Y-86645803D01*
X131514724Y-86645802D01*
X131520752Y-86643118D01*
X131532822Y-86634349D01*
X131667081Y-86536803D01*
X131675253Y-86530866D01*
X131773397Y-86421866D01*
X131798621Y-86393852D01*
X131798622Y-86393851D01*
X131803040Y-86388944D01*
X131869805Y-86273304D01*
X131895223Y-86229279D01*
X131895224Y-86229278D01*
X131898527Y-86223556D01*
X131957542Y-86041928D01*
X131959546Y-86022866D01*
X131976814Y-85858565D01*
X131977504Y-85852000D01*
X131976814Y-85845435D01*
X131976814Y-85838829D01*
X131978770Y-85838829D01*
X131989860Y-85778192D01*
X132038363Y-85726346D01*
X132076202Y-85711614D01*
X132101828Y-85706167D01*
X132101827Y-85706167D01*
X132108288Y-85704794D01*
X132114319Y-85702109D01*
X132276722Y-85629803D01*
X132276724Y-85629802D01*
X132282752Y-85627118D01*
X132437253Y-85514866D01*
X132468247Y-85480444D01*
X132560621Y-85377852D01*
X132560622Y-85377851D01*
X132565040Y-85372944D01*
X132640657Y-85241972D01*
X132657223Y-85213279D01*
X132657224Y-85213278D01*
X132660527Y-85207556D01*
X132719542Y-85025928D01*
X132723019Y-84992852D01*
X132738814Y-84842565D01*
X132739504Y-84836000D01*
X132731822Y-84762907D01*
X132720232Y-84652635D01*
X132720232Y-84652633D01*
X132719542Y-84646072D01*
X132660527Y-84464444D01*
X132644304Y-84436344D01*
X132593499Y-84348349D01*
X132565040Y-84299056D01*
X132554902Y-84287796D01*
X132441675Y-84162045D01*
X132441674Y-84162044D01*
X132437253Y-84157134D01*
X132319622Y-84071670D01*
X132288094Y-84048763D01*
X132288093Y-84048762D01*
X132282752Y-84044882D01*
X132276724Y-84042198D01*
X132276722Y-84042197D01*
X132114319Y-83969891D01*
X132114318Y-83969891D01*
X132108288Y-83967206D01*
X132009280Y-83946161D01*
X131927944Y-83928872D01*
X131927939Y-83928872D01*
X131921487Y-83927500D01*
X131730513Y-83927500D01*
X131724061Y-83928872D01*
X131724056Y-83928872D01*
X131642720Y-83946161D01*
X131543712Y-83967206D01*
X131537682Y-83969891D01*
X131537681Y-83969891D01*
X131375278Y-84042197D01*
X131375276Y-84042198D01*
X131369248Y-84044882D01*
X131363907Y-84048762D01*
X131363906Y-84048763D01*
X131332378Y-84071670D01*
X131214747Y-84157134D01*
X131122395Y-84259702D01*
X131119355Y-84263078D01*
X131058909Y-84300318D01*
X131025719Y-84304768D01*
X130340214Y-84304768D01*
X130272093Y-84284766D01*
X130246578Y-84263079D01*
X130216168Y-84229305D01*
X130216166Y-84229304D01*
X130211753Y-84224402D01*
X130149608Y-84179251D01*
X130062594Y-84116031D01*
X130062593Y-84116030D01*
X130057252Y-84112150D01*
X130051224Y-84109466D01*
X130051222Y-84109465D01*
X129888819Y-84037159D01*
X129888818Y-84037159D01*
X129882788Y-84034474D01*
X129767309Y-84009928D01*
X129702444Y-83996140D01*
X129702439Y-83996140D01*
X129695987Y-83994768D01*
X129505013Y-83994768D01*
X129498561Y-83996140D01*
X129498556Y-83996140D01*
X129433691Y-84009928D01*
X129318212Y-84034474D01*
X129312179Y-84037160D01*
X129312173Y-84037162D01*
X129299747Y-84042694D01*
X129229380Y-84052128D01*
X129165084Y-84022021D01*
X129127271Y-83961931D01*
X129122500Y-83927587D01*
X129122500Y-77957397D01*
X129142502Y-77889276D01*
X129154863Y-77873087D01*
X129170077Y-77856190D01*
X129230523Y-77818950D01*
X129263714Y-77814500D01*
X129747903Y-77814500D01*
X129816024Y-77834502D01*
X129836998Y-77851405D01*
X131432517Y-79446924D01*
X131466543Y-79509236D01*
X131461478Y-79580051D01*
X131437061Y-79620325D01*
X131340960Y-79727056D01*
X131245473Y-79892444D01*
X131186458Y-80074072D01*
X131185768Y-80080633D01*
X131185768Y-80080635D01*
X131173118Y-80200998D01*
X131166496Y-80264000D01*
X131167186Y-80270565D01*
X131184455Y-80434866D01*
X131186458Y-80453928D01*
X131245473Y-80635556D01*
X131340960Y-80800944D01*
X131345378Y-80805851D01*
X131345379Y-80805852D01*
X131460897Y-80934148D01*
X131468747Y-80942866D01*
X131623248Y-81055118D01*
X131629276Y-81057802D01*
X131629278Y-81057803D01*
X131758242Y-81115221D01*
X131797712Y-81132794D01*
X131891112Y-81152647D01*
X131978056Y-81171128D01*
X131978061Y-81171128D01*
X131984513Y-81172500D01*
X132175487Y-81172500D01*
X132181939Y-81171128D01*
X132181944Y-81171128D01*
X132268888Y-81152647D01*
X132362288Y-81132794D01*
X132401758Y-81115221D01*
X132530722Y-81057803D01*
X132530724Y-81057802D01*
X132536752Y-81055118D01*
X132691253Y-80942866D01*
X132699103Y-80934148D01*
X132814621Y-80805852D01*
X132814622Y-80805851D01*
X132819040Y-80800944D01*
X132914527Y-80635556D01*
X132973542Y-80453928D01*
X132975546Y-80434866D01*
X132992814Y-80270565D01*
X132993504Y-80264000D01*
X132986882Y-80200998D01*
X132974232Y-80080635D01*
X132974232Y-80080633D01*
X132973542Y-80074072D01*
X132914527Y-79892444D01*
X132819040Y-79727056D01*
X132710864Y-79606914D01*
X132680146Y-79542907D01*
X132678500Y-79522604D01*
X132678500Y-79295482D01*
X132679578Y-79279035D01*
X132682586Y-79256188D01*
X132683664Y-79248000D01*
X132674488Y-79178301D01*
X132664465Y-79102166D01*
X132664173Y-79099946D01*
X132664172Y-79099944D01*
X132663095Y-79091760D01*
X132627768Y-79006474D01*
X132612148Y-78968763D01*
X132605950Y-78953799D01*
X132605949Y-78953798D01*
X132602789Y-78946168D01*
X132571933Y-78905955D01*
X132530940Y-78852533D01*
X132533830Y-78850316D01*
X132533829Y-78850315D01*
X132530939Y-78852532D01*
X132511878Y-78827691D01*
X132506855Y-78821145D01*
X132482013Y-78802083D01*
X132469623Y-78791216D01*
X131910407Y-78232000D01*
X137008496Y-78232000D01*
X137028458Y-78421928D01*
X137087473Y-78603556D01*
X137182960Y-78768944D01*
X137187378Y-78773851D01*
X137187379Y-78773852D01*
X137258223Y-78852532D01*
X137310747Y-78910866D01*
X137359336Y-78946168D01*
X137442340Y-79006474D01*
X137465248Y-79023118D01*
X137471276Y-79025802D01*
X137471278Y-79025803D01*
X137619421Y-79091760D01*
X137639712Y-79100794D01*
X137733113Y-79120647D01*
X137820056Y-79139128D01*
X137820061Y-79139128D01*
X137826513Y-79140500D01*
X138017487Y-79140500D01*
X138023939Y-79139128D01*
X138023944Y-79139128D01*
X138110887Y-79120647D01*
X138204288Y-79100794D01*
X138224579Y-79091760D01*
X138372722Y-79025803D01*
X138372724Y-79025802D01*
X138378752Y-79023118D01*
X138401661Y-79006474D01*
X138484664Y-78946168D01*
X138533253Y-78910866D01*
X138585777Y-78852532D01*
X138656621Y-78773852D01*
X138656622Y-78773851D01*
X138661040Y-78768944D01*
X138756527Y-78603556D01*
X138815542Y-78421928D01*
X138835504Y-78232000D01*
X138815542Y-78042072D01*
X138756527Y-77860444D01*
X138661040Y-77695056D01*
X138656621Y-77690148D01*
X138552864Y-77574914D01*
X138522146Y-77510907D01*
X138520500Y-77490604D01*
X138520500Y-72098500D01*
X138540502Y-72030379D01*
X138594158Y-71983886D01*
X138646500Y-71972500D01*
X140414517Y-71972500D01*
X140430964Y-71973578D01*
X140462000Y-71977664D01*
X140470188Y-71976586D01*
X140501225Y-71972500D01*
X140560133Y-71964745D01*
X140630282Y-71975684D01*
X140683380Y-72022813D01*
X140702570Y-72091167D01*
X140681759Y-72159044D01*
X140650640Y-72191603D01*
X140612747Y-72219134D01*
X140608329Y-72224041D01*
X140608325Y-72224045D01*
X140521008Y-72321021D01*
X140484960Y-72361056D01*
X140389473Y-72526444D01*
X140330458Y-72708072D01*
X140310496Y-72898000D01*
X140330458Y-73087928D01*
X140389473Y-73269556D01*
X140484960Y-73434944D01*
X140489378Y-73439851D01*
X140489379Y-73439852D01*
X140593136Y-73555086D01*
X140623854Y-73619093D01*
X140625500Y-73639396D01*
X140625500Y-74696604D01*
X140605498Y-74764725D01*
X140593136Y-74780914D01*
X140484960Y-74901056D01*
X140441664Y-74976047D01*
X140393019Y-75060303D01*
X140389473Y-75066444D01*
X140330458Y-75248072D01*
X140329768Y-75254633D01*
X140329768Y-75254635D01*
X140321152Y-75336615D01*
X140310496Y-75438000D01*
X140311186Y-75444565D01*
X140320694Y-75535024D01*
X140330458Y-75627928D01*
X140389473Y-75809556D01*
X140484960Y-75974944D01*
X140489378Y-75979851D01*
X140489379Y-75979852D01*
X140611688Y-76115690D01*
X140642406Y-76179697D01*
X140633641Y-76250151D01*
X140611688Y-76284310D01*
X140564747Y-76336444D01*
X140484960Y-76425056D01*
X140389473Y-76590444D01*
X140330458Y-76772072D01*
X140329768Y-76778633D01*
X140329768Y-76778635D01*
X140327975Y-76795696D01*
X140310496Y-76962000D01*
X140330458Y-77151928D01*
X140389473Y-77333556D01*
X140392776Y-77339278D01*
X140392777Y-77339279D01*
X140417416Y-77381955D01*
X140484960Y-77498944D01*
X140489378Y-77503851D01*
X140489379Y-77503852D01*
X140589572Y-77615128D01*
X140612747Y-77640866D01*
X140767248Y-77753118D01*
X140773276Y-77755802D01*
X140773278Y-77755803D01*
X140935681Y-77828109D01*
X140941712Y-77830794D01*
X141035112Y-77850647D01*
X141122056Y-77869128D01*
X141122061Y-77869128D01*
X141128513Y-77870500D01*
X141319487Y-77870500D01*
X141325939Y-77869128D01*
X141325944Y-77869128D01*
X141412888Y-77850647D01*
X141506288Y-77830794D01*
X141512319Y-77828109D01*
X141674722Y-77755803D01*
X141674724Y-77755802D01*
X141680752Y-77753118D01*
X141835253Y-77640866D01*
X141858428Y-77615128D01*
X141958621Y-77503852D01*
X141958622Y-77503851D01*
X141963040Y-77498944D01*
X142030584Y-77381955D01*
X142055223Y-77339279D01*
X142055224Y-77339278D01*
X142058527Y-77333556D01*
X142117542Y-77151928D01*
X142137504Y-76962000D01*
X142136814Y-76955435D01*
X142136814Y-76948830D01*
X142139651Y-76948830D01*
X142150149Y-76891270D01*
X142173619Y-76858788D01*
X143962473Y-75069934D01*
X144024785Y-75035908D01*
X144095600Y-75040973D01*
X144145202Y-75074717D01*
X144168747Y-75100866D01*
X144174089Y-75104747D01*
X144174091Y-75104749D01*
X144187920Y-75114796D01*
X144231274Y-75171018D01*
X144237349Y-75241754D01*
X144222978Y-75279732D01*
X144215799Y-75292166D01*
X144199473Y-75320444D01*
X144140458Y-75502072D01*
X144139768Y-75508633D01*
X144139768Y-75508635D01*
X144134790Y-75555998D01*
X144120496Y-75692000D01*
X144121186Y-75698565D01*
X144135223Y-75832116D01*
X144140458Y-75881928D01*
X144142498Y-75888206D01*
X144178422Y-75998768D01*
X144180450Y-76069735D01*
X144143787Y-76130533D01*
X144109838Y-76152810D01*
X144097068Y-76158496D01*
X144075280Y-76168196D01*
X144075277Y-76168198D01*
X144069248Y-76170882D01*
X143914747Y-76283134D01*
X143910326Y-76288044D01*
X143910325Y-76288045D01*
X143866747Y-76336444D01*
X143786960Y-76425056D01*
X143691473Y-76590444D01*
X143632458Y-76772072D01*
X143631768Y-76778633D01*
X143631768Y-76778635D01*
X143629975Y-76795696D01*
X143612496Y-76962000D01*
X143632458Y-77151928D01*
X143691473Y-77333556D01*
X143729109Y-77398743D01*
X143745989Y-77461741D01*
X143745989Y-86721206D01*
X143739822Y-86760141D01*
X143683958Y-86932072D01*
X143683268Y-86938633D01*
X143683268Y-86938635D01*
X143681438Y-86956045D01*
X143663996Y-87122000D01*
X143664686Y-87128565D01*
X143681955Y-87292866D01*
X143683958Y-87311928D01*
X143742973Y-87493556D01*
X143746276Y-87499278D01*
X143746277Y-87499279D01*
X143753878Y-87512444D01*
X143838460Y-87658944D01*
X143842878Y-87663851D01*
X143842879Y-87663852D01*
X143870089Y-87694072D01*
X143966247Y-87800866D01*
X144028224Y-87845895D01*
X144089707Y-87890565D01*
X144120748Y-87913118D01*
X144126776Y-87915802D01*
X144126778Y-87915803D01*
X144199256Y-87948072D01*
X144295212Y-87990794D01*
X144301668Y-87992166D01*
X144307952Y-87994208D01*
X144307576Y-87995364D01*
X144364119Y-88025887D01*
X144395285Y-88076473D01*
X144453473Y-88255556D01*
X144548960Y-88420944D01*
X144553378Y-88425851D01*
X144553379Y-88425852D01*
X144635547Y-88517109D01*
X144676747Y-88562866D01*
X144831248Y-88675118D01*
X144837276Y-88677802D01*
X144837278Y-88677803D01*
X144909756Y-88710072D01*
X145005712Y-88752794D01*
X145099112Y-88772647D01*
X145186056Y-88791128D01*
X145186061Y-88791128D01*
X145192513Y-88792500D01*
X145383487Y-88792500D01*
X145389939Y-88791128D01*
X145389944Y-88791128D01*
X145476888Y-88772647D01*
X145570288Y-88752794D01*
X145666244Y-88710072D01*
X145738722Y-88677803D01*
X145738724Y-88677802D01*
X145744752Y-88675118D01*
X145899253Y-88562866D01*
X145940453Y-88517109D01*
X146022621Y-88425852D01*
X146022622Y-88425851D01*
X146027040Y-88420944D01*
X146122527Y-88255556D01*
X146181542Y-88073928D01*
X146184411Y-88046636D01*
X146200814Y-87890565D01*
X146201504Y-87884000D01*
X146194080Y-87813365D01*
X146182232Y-87700635D01*
X146182232Y-87700633D01*
X146181542Y-87694072D01*
X146122527Y-87512444D01*
X146115661Y-87500552D01*
X146098921Y-87431560D01*
X146122140Y-87364468D01*
X146177945Y-87320578D01*
X146198582Y-87314305D01*
X146253322Y-87302669D01*
X146253327Y-87302667D01*
X146259788Y-87301294D01*
X146265819Y-87298609D01*
X146428222Y-87226303D01*
X146428224Y-87226302D01*
X146434252Y-87223618D01*
X146588753Y-87111366D01*
X146603616Y-87094859D01*
X146712121Y-86974352D01*
X146712122Y-86974351D01*
X146716540Y-86969444D01*
X146812027Y-86804056D01*
X146825950Y-86761206D01*
X146835712Y-86731163D01*
X146875786Y-86672558D01*
X146929347Y-86646853D01*
X147094288Y-86611794D01*
X147126146Y-86597610D01*
X147262722Y-86536803D01*
X147262724Y-86536802D01*
X147268752Y-86534118D01*
X147276079Y-86528795D01*
X147354912Y-86471519D01*
X147423253Y-86421866D01*
X147551040Y-86279944D01*
X147554346Y-86274218D01*
X147555010Y-86273304D01*
X147611233Y-86229951D01*
X147656946Y-86221366D01*
X147809701Y-86221366D01*
X147816153Y-86219994D01*
X147816158Y-86219994D01*
X147903101Y-86201513D01*
X147996502Y-86181660D01*
X148042674Y-86161103D01*
X148164936Y-86106669D01*
X148164938Y-86106668D01*
X148170966Y-86103984D01*
X148184700Y-86094006D01*
X148235731Y-86056929D01*
X148325467Y-85991732D01*
X148354663Y-85959307D01*
X148448835Y-85854718D01*
X148448836Y-85854717D01*
X148453254Y-85849810D01*
X148533042Y-85711614D01*
X148545437Y-85690145D01*
X148545438Y-85690144D01*
X148548741Y-85684422D01*
X148607756Y-85502794D01*
X148609445Y-85486729D01*
X148627028Y-85319431D01*
X148627718Y-85312866D01*
X148624896Y-85286018D01*
X148637668Y-85216181D01*
X148686169Y-85164334D01*
X148755002Y-85146939D01*
X148824266Y-85170911D01*
X148848824Y-85188754D01*
X148854852Y-85191438D01*
X148854854Y-85191439D01*
X149017257Y-85263745D01*
X149023288Y-85266430D01*
X149116688Y-85286283D01*
X149203632Y-85304764D01*
X149203637Y-85304764D01*
X149210089Y-85306136D01*
X149401063Y-85306136D01*
X149407515Y-85304764D01*
X149407520Y-85304764D01*
X149494464Y-85286283D01*
X149587864Y-85266430D01*
X149593895Y-85263745D01*
X149756298Y-85191439D01*
X149756300Y-85191438D01*
X149762328Y-85188754D01*
X149789172Y-85169251D01*
X149838707Y-85133261D01*
X149916829Y-85076502D01*
X149996972Y-84987494D01*
X150040197Y-84939488D01*
X150040198Y-84939487D01*
X150044616Y-84934580D01*
X150120462Y-84803211D01*
X150136799Y-84774915D01*
X150136800Y-84774914D01*
X150140103Y-84769192D01*
X150177975Y-84652634D01*
X150197078Y-84593843D01*
X150197078Y-84593841D01*
X150199118Y-84587564D01*
X150203046Y-84550197D01*
X150211149Y-84473097D01*
X150238162Y-84407441D01*
X150285211Y-84371161D01*
X150310719Y-84359804D01*
X150310718Y-84359804D01*
X150316752Y-84357118D01*
X150328822Y-84348349D01*
X150411880Y-84288003D01*
X150471253Y-84244866D01*
X150494428Y-84219128D01*
X150594621Y-84107852D01*
X150594622Y-84107851D01*
X150599040Y-84102944D01*
X150666584Y-83985955D01*
X150691223Y-83943279D01*
X150691224Y-83943278D01*
X150694527Y-83937556D01*
X150753542Y-83755928D01*
X150762129Y-83674232D01*
X150772814Y-83572565D01*
X150773504Y-83566000D01*
X150759704Y-83434700D01*
X150754232Y-83382635D01*
X150754232Y-83382633D01*
X150753542Y-83376072D01*
X150694527Y-83194444D01*
X150689522Y-83185774D01*
X150632313Y-83086686D01*
X150599040Y-83029056D01*
X150582114Y-83010258D01*
X150490864Y-82908914D01*
X150460146Y-82844907D01*
X150458500Y-82824604D01*
X150458500Y-74422000D01*
X159106496Y-74422000D01*
X159107186Y-74428565D01*
X159114103Y-74494372D01*
X159126458Y-74611928D01*
X159185473Y-74793556D01*
X159280960Y-74958944D01*
X159285378Y-74963851D01*
X159285379Y-74963852D01*
X159354819Y-75040973D01*
X159408747Y-75100866D01*
X159563248Y-75213118D01*
X159569276Y-75215802D01*
X159569278Y-75215803D01*
X159641756Y-75248072D01*
X159737712Y-75290794D01*
X159831112Y-75310647D01*
X159918056Y-75329128D01*
X159918061Y-75329128D01*
X159924513Y-75330500D01*
X160115487Y-75330500D01*
X160121939Y-75329128D01*
X160121944Y-75329128D01*
X160208888Y-75310647D01*
X160302288Y-75290794D01*
X160398244Y-75248072D01*
X160470722Y-75215803D01*
X160470724Y-75215802D01*
X160476752Y-75213118D01*
X160631253Y-75100866D01*
X160725865Y-74995788D01*
X160786310Y-74958550D01*
X160857294Y-74959902D01*
X160916278Y-74999416D01*
X160944536Y-75064546D01*
X160945500Y-75080100D01*
X160945500Y-75966604D01*
X160925498Y-76034725D01*
X160913136Y-76050914D01*
X160804960Y-76171056D01*
X160709473Y-76336444D01*
X160650458Y-76518072D01*
X160649768Y-76524633D01*
X160649768Y-76524635D01*
X160640437Y-76613414D01*
X160630496Y-76708000D01*
X160631186Y-76714565D01*
X160639025Y-76789145D01*
X160650458Y-76897928D01*
X160709473Y-77079556D01*
X160804960Y-77244944D01*
X160809378Y-77249851D01*
X160809379Y-77249852D01*
X160920093Y-77372812D01*
X160932747Y-77386866D01*
X161031843Y-77458864D01*
X161075530Y-77490604D01*
X161087248Y-77499118D01*
X161093276Y-77501802D01*
X161093278Y-77501803D01*
X161221128Y-77558725D01*
X161261712Y-77576794D01*
X161355113Y-77596647D01*
X161442056Y-77615128D01*
X161442061Y-77615128D01*
X161448513Y-77616500D01*
X161639487Y-77616500D01*
X161645939Y-77615128D01*
X161645944Y-77615128D01*
X161732887Y-77596647D01*
X161826288Y-77576794D01*
X161866872Y-77558725D01*
X161994722Y-77501803D01*
X161994724Y-77501802D01*
X162000752Y-77499118D01*
X162012471Y-77490604D01*
X162056157Y-77458864D01*
X162155253Y-77386866D01*
X162167907Y-77372812D01*
X162278621Y-77249852D01*
X162278622Y-77249851D01*
X162283040Y-77244944D01*
X162378527Y-77079556D01*
X162437542Y-76897928D01*
X162448976Y-76789145D01*
X162456814Y-76714565D01*
X162457504Y-76708000D01*
X162447563Y-76613414D01*
X162438232Y-76524635D01*
X162438232Y-76524633D01*
X162437542Y-76518072D01*
X162378527Y-76336444D01*
X162283040Y-76171056D01*
X162174864Y-76050914D01*
X162144146Y-75986907D01*
X162142500Y-75966604D01*
X162142500Y-75153250D01*
X169489746Y-75153250D01*
X169490436Y-75159815D01*
X169508376Y-75330500D01*
X169509708Y-75343178D01*
X169568723Y-75524806D01*
X169664210Y-75690194D01*
X169791997Y-75832116D01*
X169946498Y-75944368D01*
X169952526Y-75947052D01*
X169952528Y-75947053D01*
X170068683Y-75998768D01*
X170120962Y-76022044D01*
X170214362Y-76041897D01*
X170301306Y-76060378D01*
X170301311Y-76060378D01*
X170307763Y-76061750D01*
X170498737Y-76061750D01*
X170505189Y-76060378D01*
X170505194Y-76060378D01*
X170592138Y-76041897D01*
X170685538Y-76022044D01*
X170737817Y-75998768D01*
X170853972Y-75947053D01*
X170853974Y-75947052D01*
X170860002Y-75944368D01*
X171014503Y-75832116D01*
X171142290Y-75690194D01*
X171237777Y-75524806D01*
X171296792Y-75343178D01*
X171298125Y-75330500D01*
X171316064Y-75159815D01*
X171316754Y-75153250D01*
X171307997Y-75069934D01*
X171297482Y-74969885D01*
X171297482Y-74969883D01*
X171296792Y-74963322D01*
X171237777Y-74781694D01*
X171142290Y-74616306D01*
X171064864Y-74530316D01*
X171034147Y-74466308D01*
X171032500Y-74446005D01*
X171032500Y-73152000D01*
X185776496Y-73152000D01*
X185777186Y-73158565D01*
X185793627Y-73314989D01*
X185796458Y-73341928D01*
X185855473Y-73523556D01*
X185950960Y-73688944D01*
X185955378Y-73693851D01*
X185955379Y-73693852D01*
X186020293Y-73765946D01*
X186078747Y-73830866D01*
X186233248Y-73943118D01*
X186239276Y-73945802D01*
X186239278Y-73945803D01*
X186255944Y-73953223D01*
X186407712Y-74020794D01*
X186501113Y-74040647D01*
X186588056Y-74059128D01*
X186588061Y-74059128D01*
X186594513Y-74060500D01*
X186785487Y-74060500D01*
X186791939Y-74059128D01*
X186791944Y-74059128D01*
X186878887Y-74040647D01*
X186972288Y-74020794D01*
X187124056Y-73953223D01*
X187140722Y-73945803D01*
X187140724Y-73945802D01*
X187146752Y-73943118D01*
X187301253Y-73830866D01*
X187359707Y-73765946D01*
X187424621Y-73693852D01*
X187424622Y-73693851D01*
X187429040Y-73688944D01*
X187524527Y-73523556D01*
X187583542Y-73341928D01*
X187586374Y-73314989D01*
X187602814Y-73158565D01*
X187603504Y-73152000D01*
X187583542Y-72962072D01*
X187524527Y-72780444D01*
X187429040Y-72615056D01*
X187354913Y-72532729D01*
X187320864Y-72494914D01*
X187290146Y-72430907D01*
X187288500Y-72410604D01*
X187288500Y-66019396D01*
X187308502Y-65951275D01*
X187320864Y-65935086D01*
X187424621Y-65819852D01*
X187424622Y-65819851D01*
X187429040Y-65814944D01*
X187524527Y-65649556D01*
X187583542Y-65467928D01*
X187586863Y-65436336D01*
X187601255Y-65299400D01*
X202623500Y-65299400D01*
X202634474Y-65405166D01*
X202636655Y-65411702D01*
X202636655Y-65411704D01*
X202663522Y-65492232D01*
X202690450Y-65572946D01*
X202783522Y-65723348D01*
X202908697Y-65848305D01*
X202914927Y-65852145D01*
X202914928Y-65852146D01*
X203052090Y-65936694D01*
X203059262Y-65941115D01*
X203102701Y-65955523D01*
X203220611Y-65994632D01*
X203220613Y-65994632D01*
X203227139Y-65996797D01*
X203233975Y-65997497D01*
X203233978Y-65997498D01*
X203277031Y-66001909D01*
X203331600Y-66007500D01*
X204632400Y-66007500D01*
X204635646Y-66007163D01*
X204635650Y-66007163D01*
X204731308Y-65997238D01*
X204731312Y-65997237D01*
X204738166Y-65996526D01*
X204744702Y-65994345D01*
X204744704Y-65994345D01*
X204876806Y-65950272D01*
X204905946Y-65940550D01*
X205056348Y-65847478D01*
X205181305Y-65722303D01*
X205271353Y-65576220D01*
X205324124Y-65528727D01*
X205394196Y-65517303D01*
X205459320Y-65545577D01*
X205469782Y-65555364D01*
X205575234Y-65665906D01*
X205583186Y-65672941D01*
X205759525Y-65804141D01*
X205768562Y-65809745D01*
X205964484Y-65909357D01*
X205974335Y-65913357D01*
X206184240Y-65978534D01*
X206194624Y-65980817D01*
X206210043Y-65982861D01*
X206224207Y-65980665D01*
X206228000Y-65967478D01*
X206228000Y-65965192D01*
X206736000Y-65965192D01*
X206739973Y-65978723D01*
X206750580Y-65980248D01*
X206868421Y-65955523D01*
X206878617Y-65952463D01*
X207083029Y-65871737D01*
X207092561Y-65867006D01*
X207280462Y-65752984D01*
X207289052Y-65746720D01*
X207455052Y-65602673D01*
X207462472Y-65595042D01*
X207601826Y-65425089D01*
X207607850Y-65416322D01*
X207716576Y-65225318D01*
X207721041Y-65215654D01*
X207796031Y-65009059D01*
X207798802Y-64998792D01*
X207838123Y-64781345D01*
X207839056Y-64773116D01*
X207839268Y-64768624D01*
X207835525Y-64755876D01*
X207834135Y-64754671D01*
X207826452Y-64753000D01*
X206754115Y-64753000D01*
X206738876Y-64757475D01*
X206737671Y-64758865D01*
X206736000Y-64766548D01*
X206736000Y-65965192D01*
X206228000Y-65965192D01*
X206228000Y-64226885D01*
X206736000Y-64226885D01*
X206740475Y-64242124D01*
X206741865Y-64243329D01*
X206749548Y-64245000D01*
X207817970Y-64245000D01*
X207832648Y-64240690D01*
X207834711Y-64228807D01*
X207825876Y-64124675D01*
X207824086Y-64114203D01*
X207768870Y-63901465D01*
X207765335Y-63891425D01*
X207675063Y-63691030D01*
X207669894Y-63681744D01*
X207547150Y-63499425D01*
X207540481Y-63491130D01*
X207388772Y-63332100D01*
X207380814Y-63325059D01*
X207204475Y-63193859D01*
X207195438Y-63188255D01*
X206999516Y-63088643D01*
X206989665Y-63084643D01*
X206779760Y-63019466D01*
X206769376Y-63017183D01*
X206753957Y-63015139D01*
X206739793Y-63017335D01*
X206736000Y-63030522D01*
X206736000Y-64226885D01*
X206228000Y-64226885D01*
X206228000Y-63032808D01*
X206224027Y-63019277D01*
X206213420Y-63017752D01*
X206095579Y-63042477D01*
X206085383Y-63045537D01*
X205880971Y-63126263D01*
X205871439Y-63130994D01*
X205683538Y-63245016D01*
X205674948Y-63251280D01*
X205508948Y-63395327D01*
X205501530Y-63402956D01*
X205475609Y-63434569D01*
X205416949Y-63474564D01*
X205345979Y-63476496D01*
X205285230Y-63439752D01*
X205271030Y-63420982D01*
X205184332Y-63280880D01*
X205180478Y-63274652D01*
X205055303Y-63149695D01*
X205024965Y-63130994D01*
X204910968Y-63060725D01*
X204910966Y-63060724D01*
X204904738Y-63056885D01*
X204785498Y-63017335D01*
X204743389Y-63003368D01*
X204743387Y-63003368D01*
X204736861Y-63001203D01*
X204730025Y-63000503D01*
X204730022Y-63000502D01*
X204686969Y-62996091D01*
X204632400Y-62990500D01*
X203331600Y-62990500D01*
X203328354Y-62990837D01*
X203328350Y-62990837D01*
X203232692Y-63000762D01*
X203232688Y-63000763D01*
X203225834Y-63001474D01*
X203219298Y-63003655D01*
X203219296Y-63003655D01*
X203087194Y-63047728D01*
X203058054Y-63057450D01*
X202907652Y-63150522D01*
X202782695Y-63275697D01*
X202778855Y-63281927D01*
X202778854Y-63281928D01*
X202695316Y-63417452D01*
X202689885Y-63426262D01*
X202687581Y-63433209D01*
X202636696Y-63586624D01*
X202634203Y-63594139D01*
X202623500Y-63698600D01*
X202623500Y-65299400D01*
X187601255Y-65299400D01*
X187602814Y-65284565D01*
X187603504Y-65278000D01*
X187602814Y-65271435D01*
X187584232Y-65094635D01*
X187584232Y-65094633D01*
X187583542Y-65088072D01*
X187524527Y-64906444D01*
X187429040Y-64741056D01*
X187301253Y-64599134D01*
X187146752Y-64486882D01*
X187140724Y-64484198D01*
X187140722Y-64484197D01*
X186978319Y-64411891D01*
X186978318Y-64411891D01*
X186972288Y-64409206D01*
X186878888Y-64389353D01*
X186791944Y-64370872D01*
X186791939Y-64370872D01*
X186785487Y-64369500D01*
X186594513Y-64369500D01*
X186588061Y-64370872D01*
X186588056Y-64370872D01*
X186501112Y-64389353D01*
X186407712Y-64409206D01*
X186401682Y-64411891D01*
X186401681Y-64411891D01*
X186239278Y-64484197D01*
X186239276Y-64484198D01*
X186233248Y-64486882D01*
X186078747Y-64599134D01*
X185950960Y-64741056D01*
X185855473Y-64906444D01*
X185796458Y-65088072D01*
X185795768Y-65094633D01*
X185795768Y-65094635D01*
X185777186Y-65271435D01*
X185776496Y-65278000D01*
X185777186Y-65284565D01*
X185793138Y-65436336D01*
X185796458Y-65467928D01*
X185855473Y-65649556D01*
X185950960Y-65814944D01*
X185955378Y-65819851D01*
X185955379Y-65819852D01*
X186059136Y-65935086D01*
X186089854Y-65999093D01*
X186091500Y-66019396D01*
X186091500Y-72410604D01*
X186071498Y-72478725D01*
X186059136Y-72494914D01*
X186025087Y-72532729D01*
X185950960Y-72615056D01*
X185855473Y-72780444D01*
X185796458Y-72962072D01*
X185776496Y-73152000D01*
X171032500Y-73152000D01*
X171032500Y-67797396D01*
X171052502Y-67729275D01*
X171064864Y-67713086D01*
X171168621Y-67597852D01*
X171168622Y-67597851D01*
X171173040Y-67592944D01*
X171268527Y-67427556D01*
X171327542Y-67245928D01*
X171347504Y-67056000D01*
X171346814Y-67049435D01*
X171328232Y-66872635D01*
X171328232Y-66872633D01*
X171327542Y-66866072D01*
X171268527Y-66684444D01*
X171173040Y-66519056D01*
X171045253Y-66377134D01*
X170890752Y-66264882D01*
X170884724Y-66262198D01*
X170884722Y-66262197D01*
X170722319Y-66189891D01*
X170722318Y-66189891D01*
X170716288Y-66187206D01*
X170622887Y-66167353D01*
X170535944Y-66148872D01*
X170535939Y-66148872D01*
X170529487Y-66147500D01*
X170338513Y-66147500D01*
X170332061Y-66148872D01*
X170332056Y-66148872D01*
X170245113Y-66167353D01*
X170151712Y-66187206D01*
X170145682Y-66189891D01*
X170145681Y-66189891D01*
X169983278Y-66262197D01*
X169983276Y-66262198D01*
X169977248Y-66264882D01*
X169822747Y-66377134D01*
X169694960Y-66519056D01*
X169599473Y-66684444D01*
X169540458Y-66866072D01*
X169539768Y-66872633D01*
X169539768Y-66872635D01*
X169521186Y-67049435D01*
X169520496Y-67056000D01*
X169540458Y-67245928D01*
X169599473Y-67427556D01*
X169694960Y-67592944D01*
X169699378Y-67597851D01*
X169699379Y-67597852D01*
X169803136Y-67713086D01*
X169833854Y-67777093D01*
X169835500Y-67797396D01*
X169835500Y-74380044D01*
X169815498Y-74448165D01*
X169795176Y-74472074D01*
X169791997Y-74474384D01*
X169664210Y-74616306D01*
X169568723Y-74781694D01*
X169509708Y-74963322D01*
X169509018Y-74969883D01*
X169509018Y-74969885D01*
X169498503Y-75069934D01*
X169489746Y-75153250D01*
X162142500Y-75153250D01*
X162142500Y-73639396D01*
X162162502Y-73571275D01*
X162174864Y-73555086D01*
X162278621Y-73439852D01*
X162278622Y-73439851D01*
X162283040Y-73434944D01*
X162378527Y-73269556D01*
X162437542Y-73087928D01*
X162457504Y-72898000D01*
X162437542Y-72708072D01*
X162378527Y-72526444D01*
X162283040Y-72361056D01*
X162246993Y-72321021D01*
X162159675Y-72224045D01*
X162159671Y-72224041D01*
X162155253Y-72219134D01*
X162041592Y-72136554D01*
X162006094Y-72110763D01*
X162006093Y-72110762D01*
X162000752Y-72106882D01*
X161994724Y-72104198D01*
X161994722Y-72104197D01*
X161832319Y-72031891D01*
X161832318Y-72031891D01*
X161826288Y-72029206D01*
X161732888Y-72009353D01*
X161645944Y-71990872D01*
X161645939Y-71990872D01*
X161639487Y-71989500D01*
X161448513Y-71989500D01*
X161442061Y-71990872D01*
X161442056Y-71990872D01*
X161355112Y-72009353D01*
X161261712Y-72029206D01*
X161255682Y-72031891D01*
X161255681Y-72031891D01*
X161093278Y-72104197D01*
X161093276Y-72104198D01*
X161087248Y-72106882D01*
X161081907Y-72110762D01*
X161081906Y-72110763D01*
X161046408Y-72136554D01*
X160932747Y-72219134D01*
X160838135Y-72324212D01*
X160777690Y-72361450D01*
X160706706Y-72360098D01*
X160647722Y-72320584D01*
X160619464Y-72255454D01*
X160618500Y-72239900D01*
X160618500Y-70845396D01*
X160638502Y-70777275D01*
X160650864Y-70761086D01*
X160754621Y-70645852D01*
X160754622Y-70645851D01*
X160759040Y-70640944D01*
X160836731Y-70506379D01*
X160851223Y-70481279D01*
X160851224Y-70481278D01*
X160854527Y-70475556D01*
X160913542Y-70293928D01*
X160933504Y-70104000D01*
X160926080Y-70033365D01*
X160914232Y-69920635D01*
X160914232Y-69920633D01*
X160913542Y-69914072D01*
X160854527Y-69732444D01*
X160759040Y-69567056D01*
X160748902Y-69555796D01*
X160635675Y-69430045D01*
X160635674Y-69430044D01*
X160631253Y-69425134D01*
X160503395Y-69332239D01*
X160482094Y-69316763D01*
X160482093Y-69316762D01*
X160476752Y-69312882D01*
X160470724Y-69310198D01*
X160470722Y-69310197D01*
X160308319Y-69237891D01*
X160308318Y-69237891D01*
X160302288Y-69235206D01*
X160182815Y-69209811D01*
X160121944Y-69196872D01*
X160121939Y-69196872D01*
X160115487Y-69195500D01*
X159924513Y-69195500D01*
X159918061Y-69196872D01*
X159918056Y-69196872D01*
X159857185Y-69209811D01*
X159737712Y-69235206D01*
X159731682Y-69237891D01*
X159731681Y-69237891D01*
X159569278Y-69310197D01*
X159569276Y-69310198D01*
X159563248Y-69312882D01*
X159557907Y-69316762D01*
X159557906Y-69316763D01*
X159536605Y-69332239D01*
X159408747Y-69425134D01*
X159404326Y-69430044D01*
X159404325Y-69430045D01*
X159291099Y-69555796D01*
X159280960Y-69567056D01*
X159185473Y-69732444D01*
X159126458Y-69914072D01*
X159125768Y-69920633D01*
X159125768Y-69920635D01*
X159113920Y-70033365D01*
X159106496Y-70104000D01*
X159126458Y-70293928D01*
X159185473Y-70475556D01*
X159188776Y-70481278D01*
X159188777Y-70481279D01*
X159203269Y-70506379D01*
X159280960Y-70640944D01*
X159285378Y-70645851D01*
X159285379Y-70645852D01*
X159389136Y-70761086D01*
X159419854Y-70825093D01*
X159421500Y-70845396D01*
X159421500Y-73680604D01*
X159401498Y-73748725D01*
X159389136Y-73764914D01*
X159314136Y-73848210D01*
X159280960Y-73885056D01*
X159185473Y-74050444D01*
X159126458Y-74232072D01*
X159125768Y-74238633D01*
X159125768Y-74238635D01*
X159110906Y-74380044D01*
X159106496Y-74422000D01*
X150458500Y-74422000D01*
X150458500Y-71280896D01*
X150478502Y-71212775D01*
X150490864Y-71196586D01*
X150594621Y-71081352D01*
X150594622Y-71081351D01*
X150599040Y-71076444D01*
X150694527Y-70911056D01*
X150753542Y-70729428D01*
X150754232Y-70722865D01*
X150771210Y-70561329D01*
X150798223Y-70495673D01*
X150856445Y-70455043D01*
X150896520Y-70448500D01*
X153184286Y-70448500D01*
X153252407Y-70468502D01*
X153277922Y-70490189D01*
X153292500Y-70506379D01*
X153312747Y-70528866D01*
X153327383Y-70539500D01*
X153375557Y-70574500D01*
X153467248Y-70641118D01*
X153473276Y-70643802D01*
X153473278Y-70643803D01*
X153486074Y-70649500D01*
X153641712Y-70718794D01*
X153735113Y-70738647D01*
X153822056Y-70757128D01*
X153822061Y-70757128D01*
X153828513Y-70758500D01*
X154019487Y-70758500D01*
X154025939Y-70757128D01*
X154025944Y-70757128D01*
X154112887Y-70738647D01*
X154206288Y-70718794D01*
X154361926Y-70649500D01*
X154374722Y-70643803D01*
X154374724Y-70643802D01*
X154380752Y-70641118D01*
X154535253Y-70528866D01*
X154570078Y-70490189D01*
X154658621Y-70391852D01*
X154658622Y-70391851D01*
X154663040Y-70386944D01*
X154758527Y-70221556D01*
X154817542Y-70039928D01*
X154822107Y-69996500D01*
X154836814Y-69856565D01*
X154837504Y-69850000D01*
X154836814Y-69843432D01*
X154834679Y-69823115D01*
X154847452Y-69753277D01*
X154895955Y-69701431D01*
X154964788Y-69684038D01*
X155032098Y-69706621D01*
X155053618Y-69725630D01*
X155090747Y-69766866D01*
X155168167Y-69823115D01*
X155214207Y-69856565D01*
X155245248Y-69879118D01*
X155251276Y-69881802D01*
X155251278Y-69881803D01*
X155323756Y-69914072D01*
X155419712Y-69956794D01*
X155513112Y-69976647D01*
X155600056Y-69995128D01*
X155600061Y-69995128D01*
X155606513Y-69996500D01*
X155797487Y-69996500D01*
X155803939Y-69995128D01*
X155803944Y-69995128D01*
X155890888Y-69976647D01*
X155984288Y-69956794D01*
X156080244Y-69914072D01*
X156152722Y-69881803D01*
X156152724Y-69881802D01*
X156158752Y-69879118D01*
X156189794Y-69856565D01*
X156235833Y-69823115D01*
X156313253Y-69766866D01*
X156441040Y-69624944D01*
X156536527Y-69459556D01*
X156595542Y-69277928D01*
X156598788Y-69247050D01*
X156614814Y-69094565D01*
X156615504Y-69088000D01*
X156604280Y-68981206D01*
X156596232Y-68904635D01*
X156596232Y-68904633D01*
X156595542Y-68898072D01*
X156536527Y-68716444D01*
X156441040Y-68551056D01*
X156332864Y-68430914D01*
X156302146Y-68366907D01*
X156300500Y-68346604D01*
X156300500Y-65152192D01*
X156320502Y-65084071D01*
X156368711Y-65040226D01*
X156374077Y-65037456D01*
X156379064Y-65034882D01*
X156383513Y-65031468D01*
X156383518Y-65031465D01*
X156389014Y-65027248D01*
X156455234Y-65001648D01*
X156524783Y-65015913D01*
X156566542Y-65051644D01*
X156588739Y-65081261D01*
X156705295Y-65168615D01*
X156841684Y-65219745D01*
X156903866Y-65226500D01*
X158500134Y-65226500D01*
X158503529Y-65226131D01*
X158503533Y-65226131D01*
X158556586Y-65220368D01*
X158626469Y-65232897D01*
X158658760Y-65256155D01*
X158661102Y-65258898D01*
X158853624Y-65423328D01*
X159069498Y-65555616D01*
X159074068Y-65557509D01*
X159074072Y-65557511D01*
X159298836Y-65650611D01*
X159303409Y-65652505D01*
X159388032Y-65672821D01*
X159544784Y-65710454D01*
X159544790Y-65710455D01*
X159549597Y-65711609D01*
X159802000Y-65731474D01*
X160054403Y-65711609D01*
X160059210Y-65710455D01*
X160059216Y-65710454D01*
X160215968Y-65672821D01*
X160300591Y-65652505D01*
X160305164Y-65650611D01*
X160529928Y-65557511D01*
X160529932Y-65557509D01*
X160534502Y-65555616D01*
X160750376Y-65423328D01*
X160942898Y-65258898D01*
X161107328Y-65066376D01*
X161239616Y-64850502D01*
X161252083Y-64820406D01*
X161334611Y-64621164D01*
X161334612Y-64621162D01*
X161336505Y-64616591D01*
X161375995Y-64452101D01*
X161394454Y-64375216D01*
X161394455Y-64375210D01*
X161395609Y-64370403D01*
X161406753Y-64228807D01*
X161410307Y-64183655D01*
X161410307Y-64183648D01*
X161410500Y-64181199D01*
X161410500Y-62754801D01*
X161395609Y-62565597D01*
X161336505Y-62319409D01*
X161324230Y-62289775D01*
X161241511Y-62090072D01*
X161241509Y-62090068D01*
X161239616Y-62085498D01*
X161107328Y-61869624D01*
X160942898Y-61677102D01*
X160750376Y-61512672D01*
X160534502Y-61380384D01*
X160529932Y-61378491D01*
X160529928Y-61378489D01*
X160305164Y-61285389D01*
X160305162Y-61285388D01*
X160300591Y-61283495D01*
X160215968Y-61263179D01*
X160059216Y-61225546D01*
X160059210Y-61225545D01*
X160054403Y-61224391D01*
X159802000Y-61204526D01*
X159549597Y-61224391D01*
X159544790Y-61225545D01*
X159544784Y-61225546D01*
X159388032Y-61263179D01*
X159303409Y-61283495D01*
X159298838Y-61285388D01*
X159298836Y-61285389D01*
X159074072Y-61378489D01*
X159074068Y-61378491D01*
X159069498Y-61380384D01*
X158853624Y-61512672D01*
X158661102Y-61677102D01*
X158658907Y-61679672D01*
X158596976Y-61713490D01*
X158556586Y-61715632D01*
X158503533Y-61709869D01*
X158503529Y-61709869D01*
X158500134Y-61709500D01*
X156903866Y-61709500D01*
X156841684Y-61716255D01*
X156705295Y-61767385D01*
X156588739Y-61854739D01*
X156564421Y-61887187D01*
X156507564Y-61929701D01*
X156436746Y-61934727D01*
X156393320Y-61916202D01*
X156315399Y-61863841D01*
X156315390Y-61863836D01*
X156310738Y-61860710D01*
X156105033Y-61770412D01*
X156099582Y-61769103D01*
X156099578Y-61769102D01*
X155892046Y-61719278D01*
X155892045Y-61719278D01*
X155886589Y-61717968D01*
X155788403Y-61712307D01*
X155667917Y-61705360D01*
X155667914Y-61705360D01*
X155662310Y-61705037D01*
X155439285Y-61732025D01*
X155224565Y-61798082D01*
X155219585Y-61800652D01*
X155219581Y-61800654D01*
X155077790Y-61873838D01*
X155024936Y-61901118D01*
X154846708Y-62037877D01*
X154842937Y-62042022D01*
X154842933Y-62042025D01*
X154795520Y-62094131D01*
X154734879Y-62131054D01*
X154663904Y-62129331D01*
X154614642Y-62099817D01*
X154497201Y-61986008D01*
X154310738Y-61860710D01*
X154105033Y-61770412D01*
X154099582Y-61769103D01*
X154099578Y-61769102D01*
X153892046Y-61719278D01*
X153892045Y-61719278D01*
X153886589Y-61717968D01*
X153788403Y-61712307D01*
X153667917Y-61705360D01*
X153667914Y-61705360D01*
X153662310Y-61705037D01*
X153439285Y-61732025D01*
X153224565Y-61798082D01*
X153219585Y-61800652D01*
X153219581Y-61800654D01*
X153050722Y-61887809D01*
X152981015Y-61901278D01*
X152915091Y-61874923D01*
X152897121Y-61857673D01*
X152746111Y-61680863D01*
X152746106Y-61680858D01*
X152742898Y-61677102D01*
X152550376Y-61512672D01*
X152334502Y-61380384D01*
X152329932Y-61378491D01*
X152329928Y-61378489D01*
X152105164Y-61285389D01*
X152105162Y-61285388D01*
X152100591Y-61283495D01*
X152015968Y-61263179D01*
X151859216Y-61225546D01*
X151859210Y-61225545D01*
X151854403Y-61224391D01*
X151602000Y-61204526D01*
X151349597Y-61224391D01*
X151344790Y-61225545D01*
X151344784Y-61225546D01*
X151188032Y-61263179D01*
X151103409Y-61283495D01*
X151098838Y-61285388D01*
X151098836Y-61285389D01*
X150874072Y-61378489D01*
X150874068Y-61378491D01*
X150869498Y-61380384D01*
X150653624Y-61512672D01*
X150461102Y-61677102D01*
X150296672Y-61869624D01*
X150164384Y-62085498D01*
X150162491Y-62090068D01*
X150162489Y-62090072D01*
X150079770Y-62289775D01*
X150067495Y-62319409D01*
X150008391Y-62565597D01*
X149993500Y-62754801D01*
X149993500Y-64181199D01*
X149993693Y-64183648D01*
X149993693Y-64183655D01*
X149997247Y-64228807D01*
X150008391Y-64370403D01*
X150009545Y-64375210D01*
X150009546Y-64375216D01*
X150028005Y-64452101D01*
X150067495Y-64616591D01*
X150069388Y-64621162D01*
X150069389Y-64621164D01*
X150151918Y-64820406D01*
X150164384Y-64850502D01*
X150296672Y-65066376D01*
X150461102Y-65258898D01*
X150653624Y-65423328D01*
X150869498Y-65555616D01*
X150874068Y-65557509D01*
X150874072Y-65557511D01*
X151098836Y-65650611D01*
X151103409Y-65652505D01*
X151188032Y-65672821D01*
X151344784Y-65710454D01*
X151344790Y-65710455D01*
X151349597Y-65711609D01*
X151602000Y-65731474D01*
X151854403Y-65711609D01*
X151859210Y-65710455D01*
X151859216Y-65710454D01*
X152015968Y-65672821D01*
X152100591Y-65652505D01*
X152105164Y-65650611D01*
X152329928Y-65557511D01*
X152329932Y-65557509D01*
X152334502Y-65555616D01*
X152550376Y-65423328D01*
X152742898Y-65258898D01*
X152897383Y-65078020D01*
X152956834Y-65039211D01*
X153027828Y-65038705D01*
X153063466Y-65055267D01*
X153093262Y-65075290D01*
X153298967Y-65165588D01*
X153304418Y-65166897D01*
X153304422Y-65166898D01*
X153511954Y-65216722D01*
X153517411Y-65218032D01*
X153601475Y-65222879D01*
X153736083Y-65230640D01*
X153736086Y-65230640D01*
X153741690Y-65230963D01*
X153964715Y-65203975D01*
X154179435Y-65137918D01*
X154184415Y-65135348D01*
X154184419Y-65135346D01*
X154374081Y-65037454D01*
X154374082Y-65037454D01*
X154379064Y-65034882D01*
X154557292Y-64898123D01*
X154561063Y-64893978D01*
X154561067Y-64893975D01*
X154608480Y-64841869D01*
X154669121Y-64804946D01*
X154740096Y-64806669D01*
X154789358Y-64836183D01*
X154906799Y-64949992D01*
X154911453Y-64953119D01*
X154911460Y-64953125D01*
X155047776Y-65044726D01*
X155093161Y-65099322D01*
X155103500Y-65149307D01*
X155103500Y-68346604D01*
X155083498Y-68414725D01*
X155071136Y-68430914D01*
X154962960Y-68551056D01*
X154867473Y-68716444D01*
X154808458Y-68898072D01*
X154807768Y-68904633D01*
X154807768Y-68904635D01*
X154799720Y-68981206D01*
X154788496Y-69088000D01*
X154789186Y-69094565D01*
X154789186Y-69094568D01*
X154791321Y-69114885D01*
X154778548Y-69184723D01*
X154730045Y-69236569D01*
X154661212Y-69253962D01*
X154593902Y-69231379D01*
X154572382Y-69212370D01*
X154535253Y-69171134D01*
X154420829Y-69088000D01*
X154386094Y-69062763D01*
X154386093Y-69062762D01*
X154380752Y-69058882D01*
X154374724Y-69056198D01*
X154374722Y-69056197D01*
X154212319Y-68983891D01*
X154212318Y-68983891D01*
X154206288Y-68981206D01*
X154112888Y-68961353D01*
X154025944Y-68942872D01*
X154025939Y-68942872D01*
X154019487Y-68941500D01*
X153828513Y-68941500D01*
X153822061Y-68942872D01*
X153822056Y-68942872D01*
X153735112Y-68961353D01*
X153641712Y-68981206D01*
X153635682Y-68983891D01*
X153635681Y-68983891D01*
X153473278Y-69056197D01*
X153473276Y-69056198D01*
X153467248Y-69058882D01*
X153461907Y-69062762D01*
X153461906Y-69062763D01*
X153390167Y-69114885D01*
X153312747Y-69171134D01*
X153308334Y-69176036D01*
X153308332Y-69176037D01*
X153277922Y-69209811D01*
X153217476Y-69247050D01*
X153184286Y-69251500D01*
X140509483Y-69251500D01*
X140493037Y-69250422D01*
X140470188Y-69247414D01*
X140462000Y-69246336D01*
X140453812Y-69247414D01*
X140422775Y-69251500D01*
X140313946Y-69265827D01*
X140313944Y-69265828D01*
X140305760Y-69266905D01*
X140263992Y-69284206D01*
X140167796Y-69324052D01*
X140167794Y-69324053D01*
X140160168Y-69327212D01*
X140035145Y-69423145D01*
X139939212Y-69548168D01*
X139936053Y-69555794D01*
X139936052Y-69555796D01*
X139909778Y-69619226D01*
X139878905Y-69693760D01*
X139877828Y-69701944D01*
X139877827Y-69701946D01*
X139868769Y-69770749D01*
X139858336Y-69850000D01*
X139859414Y-69858188D01*
X139862422Y-69881037D01*
X139863500Y-69897483D01*
X139863500Y-70649500D01*
X139843498Y-70717621D01*
X139789842Y-70764114D01*
X139737500Y-70775500D01*
X138223482Y-70775500D01*
X138207035Y-70774422D01*
X138184188Y-70771414D01*
X138176000Y-70770336D01*
X138136777Y-70775500D01*
X138136772Y-70775500D01*
X138027948Y-70789827D01*
X138019760Y-70790905D01*
X138012129Y-70794066D01*
X137946966Y-70821058D01*
X137946964Y-70821059D01*
X137881799Y-70848050D01*
X137881797Y-70848051D01*
X137874168Y-70851211D01*
X137843684Y-70874603D01*
X137749145Y-70947145D01*
X137744122Y-70953691D01*
X137744117Y-70953696D01*
X137730083Y-70971985D01*
X137719218Y-70984375D01*
X137532373Y-71171221D01*
X137519979Y-71182090D01*
X137501697Y-71196117D01*
X137501694Y-71196120D01*
X137495145Y-71201145D01*
X137490119Y-71207695D01*
X137490118Y-71207696D01*
X137471061Y-71232532D01*
X137469517Y-71231347D01*
X137469516Y-71231348D01*
X137471060Y-71232533D01*
X137433950Y-71280896D01*
X137399211Y-71326168D01*
X137379399Y-71374000D01*
X137338905Y-71471760D01*
X137337828Y-71479944D01*
X137337827Y-71479946D01*
X137337442Y-71482872D01*
X137323500Y-71588775D01*
X137318336Y-71628000D01*
X137319414Y-71636188D01*
X137322422Y-71659035D01*
X137323500Y-71675482D01*
X137323500Y-77490604D01*
X137303498Y-77558725D01*
X137291136Y-77574914D01*
X137187379Y-77690148D01*
X137182960Y-77695056D01*
X137087473Y-77860444D01*
X137028458Y-78042072D01*
X137008496Y-78232000D01*
X131910407Y-78232000D01*
X130504784Y-76826377D01*
X130493916Y-76813986D01*
X130479882Y-76795696D01*
X130479881Y-76795695D01*
X130474855Y-76789145D01*
X130468305Y-76784119D01*
X130468302Y-76784116D01*
X130443467Y-76765060D01*
X130356385Y-76698239D01*
X130356383Y-76698238D01*
X130349832Y-76693211D01*
X130342202Y-76690051D01*
X130342201Y-76690050D01*
X130289528Y-76668233D01*
X130289526Y-76668232D01*
X130211866Y-76636064D01*
X130211867Y-76636064D01*
X130204240Y-76632905D01*
X130196056Y-76631828D01*
X130196054Y-76631827D01*
X130087228Y-76617500D01*
X130087223Y-76617500D01*
X130048000Y-76612336D01*
X130039812Y-76613414D01*
X130016965Y-76616422D01*
X130000518Y-76617500D01*
X129263714Y-76617500D01*
X129195593Y-76597498D01*
X129170078Y-76575811D01*
X129139668Y-76542037D01*
X129139666Y-76542036D01*
X129135253Y-76537134D01*
X128980752Y-76424882D01*
X128974724Y-76422198D01*
X128974722Y-76422197D01*
X128812319Y-76349891D01*
X128812318Y-76349891D01*
X128806288Y-76347206D01*
X128712888Y-76327353D01*
X128625944Y-76308872D01*
X128625939Y-76308872D01*
X128619487Y-76307500D01*
X128428513Y-76307500D01*
X128422061Y-76308872D01*
X128422056Y-76308872D01*
X128335112Y-76327353D01*
X128241712Y-76347206D01*
X128235682Y-76349891D01*
X128235681Y-76349891D01*
X128073278Y-76422197D01*
X128073276Y-76422198D01*
X128067248Y-76424882D01*
X127912747Y-76537134D01*
X127908326Y-76542044D01*
X127908325Y-76542045D01*
X127826515Y-76632905D01*
X127784960Y-76679056D01*
X127689473Y-76844444D01*
X127630458Y-77026072D01*
X127610496Y-77216000D01*
X127611186Y-77222565D01*
X127629703Y-77398740D01*
X127630458Y-77405928D01*
X127689473Y-77587556D01*
X127784960Y-77752944D01*
X127789378Y-77757851D01*
X127789379Y-77757852D01*
X127893136Y-77873086D01*
X127923854Y-77937093D01*
X127925500Y-77957396D01*
X127925500Y-86017635D01*
X127924422Y-86034082D01*
X127920336Y-86065117D01*
X127921414Y-86073305D01*
X127925500Y-86104340D01*
X127925500Y-86104342D01*
X127938760Y-86205060D01*
X127940905Y-86221357D01*
X127965173Y-86279944D01*
X127982083Y-86320768D01*
X128001211Y-86366949D01*
X128070893Y-86457760D01*
X128097145Y-86491972D01*
X128103694Y-86496997D01*
X128121979Y-86511027D01*
X128134372Y-86521896D01*
X128142595Y-86530119D01*
X128176621Y-86592431D01*
X128179500Y-86619214D01*
X128179500Y-91392517D01*
X128178422Y-91408963D01*
X128174336Y-91440000D01*
X128175414Y-91448188D01*
X128178422Y-91471035D01*
X128179500Y-91487482D01*
X128179500Y-91929500D01*
X128159498Y-91997621D01*
X128105842Y-92044114D01*
X128053500Y-92055500D01*
X127920513Y-92055500D01*
X127914061Y-92056872D01*
X127914056Y-92056872D01*
X127839504Y-92072719D01*
X127733712Y-92095206D01*
X127727682Y-92097891D01*
X127727681Y-92097891D01*
X127567498Y-92169209D01*
X127497131Y-92178643D01*
X127465001Y-92169209D01*
X127304820Y-92097892D01*
X127304812Y-92097889D01*
X127298785Y-92095206D01*
X127192993Y-92072719D01*
X127118441Y-92056872D01*
X127118436Y-92056872D01*
X127111984Y-92055500D01*
X126921010Y-92055500D01*
X126914558Y-92056872D01*
X126914553Y-92056872D01*
X126840001Y-92072719D01*
X126734209Y-92095206D01*
X126728179Y-92097891D01*
X126728178Y-92097891D01*
X126565775Y-92170197D01*
X126565773Y-92170198D01*
X126559745Y-92172882D01*
X126554404Y-92176762D01*
X126554403Y-92176763D01*
X126506233Y-92211761D01*
X126405244Y-92285134D01*
X126400823Y-92290044D01*
X126400822Y-92290045D01*
X126285869Y-92417714D01*
X126277457Y-92427056D01*
X126229539Y-92510052D01*
X126201157Y-92559212D01*
X126181970Y-92592444D01*
X126122955Y-92774072D01*
X126122265Y-92780633D01*
X126122265Y-92780635D01*
X126111042Y-92887414D01*
X126102993Y-92964000D01*
X124968500Y-92964000D01*
X124968500Y-66040000D01*
X143104496Y-66040000D01*
X143105186Y-66046565D01*
X143119824Y-66185834D01*
X143124458Y-66229928D01*
X143183473Y-66411556D01*
X143278960Y-66576944D01*
X143283378Y-66581851D01*
X143283379Y-66581852D01*
X143370600Y-66678721D01*
X143406747Y-66718866D01*
X143561248Y-66831118D01*
X143567276Y-66833802D01*
X143567278Y-66833803D01*
X143639756Y-66866072D01*
X143735712Y-66908794D01*
X143829112Y-66928647D01*
X143916056Y-66947128D01*
X143916061Y-66947128D01*
X143922513Y-66948500D01*
X144113487Y-66948500D01*
X144119939Y-66947128D01*
X144119944Y-66947128D01*
X144206888Y-66928647D01*
X144300288Y-66908794D01*
X144396244Y-66866072D01*
X144468722Y-66833803D01*
X144468724Y-66833802D01*
X144474752Y-66831118D01*
X144561423Y-66768148D01*
X144607671Y-66734546D01*
X144629253Y-66718866D01*
X144635886Y-66711500D01*
X144664078Y-66680189D01*
X144724524Y-66642950D01*
X144757714Y-66638500D01*
X146003903Y-66638500D01*
X146072024Y-66658502D01*
X146092998Y-66675405D01*
X147117214Y-67699621D01*
X147128080Y-67712011D01*
X147142113Y-67730299D01*
X147142118Y-67730304D01*
X147147145Y-67736855D01*
X147153695Y-67741881D01*
X147153699Y-67741885D01*
X147195730Y-67774136D01*
X147265614Y-67827761D01*
X147265620Y-67827764D01*
X147272168Y-67832789D01*
X147279794Y-67835948D01*
X147279796Y-67835949D01*
X147410130Y-67889935D01*
X147410133Y-67889936D01*
X147417760Y-67893095D01*
X147425948Y-67894173D01*
X147534772Y-67908500D01*
X147534777Y-67908500D01*
X147574000Y-67913664D01*
X147605035Y-67909578D01*
X147621482Y-67908500D01*
X152930286Y-67908500D01*
X152998407Y-67928502D01*
X153023922Y-67950189D01*
X153058747Y-67988866D01*
X153213248Y-68101118D01*
X153219276Y-68103802D01*
X153219278Y-68103803D01*
X153381681Y-68176109D01*
X153387712Y-68178794D01*
X153481112Y-68198647D01*
X153568056Y-68217128D01*
X153568061Y-68217128D01*
X153574513Y-68218500D01*
X153765487Y-68218500D01*
X153771939Y-68217128D01*
X153771944Y-68217128D01*
X153858888Y-68198647D01*
X153952288Y-68178794D01*
X153958319Y-68176109D01*
X154120722Y-68103803D01*
X154120724Y-68103802D01*
X154126752Y-68101118D01*
X154281253Y-67988866D01*
X154366515Y-67894173D01*
X154404621Y-67851852D01*
X154404622Y-67851851D01*
X154409040Y-67846944D01*
X154504527Y-67681556D01*
X154563542Y-67499928D01*
X154583504Y-67310000D01*
X154563542Y-67120072D01*
X154504527Y-66938444D01*
X154409040Y-66773056D01*
X154363744Y-66722749D01*
X154285675Y-66636045D01*
X154285674Y-66636044D01*
X154281253Y-66631134D01*
X154126752Y-66518882D01*
X154120724Y-66516198D01*
X154120722Y-66516197D01*
X153958319Y-66443891D01*
X153958318Y-66443891D01*
X153952288Y-66441206D01*
X153839721Y-66417279D01*
X153771944Y-66402872D01*
X153771939Y-66402872D01*
X153765487Y-66401500D01*
X153574513Y-66401500D01*
X153568061Y-66402872D01*
X153568056Y-66402872D01*
X153500279Y-66417279D01*
X153387712Y-66441206D01*
X153381682Y-66443891D01*
X153381681Y-66443891D01*
X153219278Y-66516197D01*
X153219276Y-66516198D01*
X153213248Y-66518882D01*
X153207907Y-66522762D01*
X153207906Y-66522763D01*
X153080329Y-66615454D01*
X153058747Y-66631134D01*
X153054334Y-66636036D01*
X153054332Y-66636037D01*
X153023922Y-66669811D01*
X152963476Y-66707050D01*
X152930286Y-66711500D01*
X147874097Y-66711500D01*
X147805976Y-66691498D01*
X147785002Y-66674595D01*
X146760784Y-65650377D01*
X146749916Y-65637986D01*
X146735882Y-65619696D01*
X146735881Y-65619695D01*
X146730855Y-65613145D01*
X146724305Y-65608119D01*
X146724302Y-65608116D01*
X146694834Y-65585505D01*
X146612385Y-65522239D01*
X146612383Y-65522238D01*
X146605832Y-65517211D01*
X146598202Y-65514051D01*
X146598201Y-65514050D01*
X146545528Y-65492233D01*
X146545526Y-65492232D01*
X146502008Y-65474206D01*
X146460240Y-65456905D01*
X146452056Y-65455828D01*
X146452054Y-65455827D01*
X146343228Y-65441500D01*
X146343223Y-65441500D01*
X146304000Y-65436336D01*
X146295812Y-65437414D01*
X146272965Y-65440422D01*
X146256518Y-65441500D01*
X144757714Y-65441500D01*
X144689593Y-65421498D01*
X144664078Y-65399811D01*
X144633668Y-65366037D01*
X144633666Y-65366036D01*
X144629253Y-65361134D01*
X144523865Y-65284565D01*
X144480094Y-65252763D01*
X144480093Y-65252762D01*
X144474752Y-65248882D01*
X144468724Y-65246198D01*
X144468722Y-65246197D01*
X144306319Y-65173891D01*
X144306318Y-65173891D01*
X144300288Y-65171206D01*
X144197262Y-65149307D01*
X144119944Y-65132872D01*
X144119939Y-65132872D01*
X144113487Y-65131500D01*
X143922513Y-65131500D01*
X143916061Y-65132872D01*
X143916056Y-65132872D01*
X143838738Y-65149307D01*
X143735712Y-65171206D01*
X143729682Y-65173891D01*
X143729681Y-65173891D01*
X143567278Y-65246197D01*
X143567276Y-65246198D01*
X143561248Y-65248882D01*
X143555907Y-65252762D01*
X143555906Y-65252763D01*
X143521171Y-65278000D01*
X143406747Y-65361134D01*
X143402326Y-65366044D01*
X143402325Y-65366045D01*
X143304937Y-65474206D01*
X143278960Y-65503056D01*
X143247520Y-65557511D01*
X143192009Y-65653660D01*
X143183473Y-65668444D01*
X143124458Y-65850072D01*
X143123768Y-65856633D01*
X143123768Y-65856635D01*
X143112260Y-65966132D01*
X143104496Y-66040000D01*
X124968500Y-66040000D01*
X124968500Y-64108672D01*
X138888954Y-64108672D01*
X138948952Y-64271742D01*
X138954526Y-64283170D01*
X139053028Y-64442037D01*
X139060778Y-64452101D01*
X139189215Y-64587919D01*
X139198835Y-64596222D01*
X139351960Y-64703442D01*
X139363049Y-64709639D01*
X139534611Y-64783881D01*
X139546714Y-64787720D01*
X139717493Y-64823398D01*
X139731554Y-64822275D01*
X139735229Y-64812168D01*
X139735229Y-64803987D01*
X140243229Y-64803987D01*
X140247445Y-64818347D01*
X140259924Y-64820406D01*
X140331560Y-64813130D01*
X140343999Y-64810576D01*
X140522372Y-64754677D01*
X140534060Y-64749668D01*
X140697549Y-64659044D01*
X140707982Y-64651793D01*
X140849917Y-64530141D01*
X140858670Y-64520950D01*
X140973250Y-64373233D01*
X140979974Y-64362473D01*
X141062510Y-64194737D01*
X141066938Y-64182830D01*
X141084312Y-64116128D01*
X141084082Y-64108672D01*
X143888954Y-64108672D01*
X143948952Y-64271742D01*
X143954526Y-64283170D01*
X144053028Y-64442037D01*
X144060778Y-64452101D01*
X144189215Y-64587919D01*
X144198835Y-64596222D01*
X144351960Y-64703442D01*
X144363049Y-64709639D01*
X144534611Y-64783881D01*
X144546714Y-64787720D01*
X144717493Y-64823398D01*
X144731554Y-64822275D01*
X144735229Y-64812168D01*
X144735229Y-64803987D01*
X145243229Y-64803987D01*
X145247445Y-64818347D01*
X145259924Y-64820406D01*
X145331560Y-64813130D01*
X145343999Y-64810576D01*
X145522372Y-64754677D01*
X145534060Y-64749668D01*
X145697549Y-64659044D01*
X145707982Y-64651793D01*
X145849917Y-64530141D01*
X145858670Y-64520950D01*
X145973250Y-64373233D01*
X145979974Y-64362473D01*
X146062510Y-64194737D01*
X146066938Y-64182830D01*
X146084312Y-64116128D01*
X146083878Y-64102033D01*
X146075697Y-64098597D01*
X145261344Y-64098597D01*
X145246105Y-64103072D01*
X145244900Y-64104462D01*
X145243229Y-64112145D01*
X145243229Y-64803987D01*
X144735229Y-64803987D01*
X144735229Y-64116712D01*
X144730754Y-64101473D01*
X144729364Y-64100268D01*
X144721681Y-64098597D01*
X143903362Y-64098597D01*
X143889831Y-64102570D01*
X143888954Y-64108672D01*
X141084082Y-64108672D01*
X141083878Y-64102033D01*
X141075697Y-64098597D01*
X140261344Y-64098597D01*
X140246105Y-64103072D01*
X140244900Y-64104462D01*
X140243229Y-64112145D01*
X140243229Y-64803987D01*
X139735229Y-64803987D01*
X139735229Y-64116712D01*
X139730754Y-64101473D01*
X139729364Y-64100268D01*
X139721681Y-64098597D01*
X138903362Y-64098597D01*
X138889831Y-64102570D01*
X138888954Y-64108672D01*
X124968500Y-64108672D01*
X124968500Y-63573066D01*
X138894146Y-63573066D01*
X138894580Y-63587161D01*
X138902761Y-63590597D01*
X139717114Y-63590597D01*
X139732353Y-63586122D01*
X139733558Y-63584732D01*
X139735229Y-63577049D01*
X139735229Y-63572482D01*
X140243229Y-63572482D01*
X140247704Y-63587721D01*
X140249094Y-63588926D01*
X140256777Y-63590597D01*
X141075096Y-63590597D01*
X141088627Y-63586624D01*
X141089504Y-63580522D01*
X141086761Y-63573066D01*
X143894146Y-63573066D01*
X143894580Y-63587161D01*
X143902761Y-63590597D01*
X144717114Y-63590597D01*
X144732353Y-63586122D01*
X144733558Y-63584732D01*
X144735229Y-63577049D01*
X144735229Y-63572482D01*
X145243229Y-63572482D01*
X145247704Y-63587721D01*
X145249094Y-63588926D01*
X145256777Y-63590597D01*
X146075096Y-63590597D01*
X146088627Y-63586624D01*
X146089504Y-63580522D01*
X146029506Y-63417452D01*
X146023932Y-63406024D01*
X145925430Y-63247157D01*
X145917680Y-63237093D01*
X145789243Y-63101275D01*
X145779623Y-63092972D01*
X145626498Y-62985752D01*
X145615409Y-62979555D01*
X145443847Y-62905313D01*
X145431744Y-62901474D01*
X145260965Y-62865796D01*
X145246904Y-62866919D01*
X145243229Y-62877026D01*
X145243229Y-63572482D01*
X144735229Y-63572482D01*
X144735229Y-62885207D01*
X144731013Y-62870847D01*
X144718534Y-62868788D01*
X144646898Y-62876064D01*
X144634459Y-62878618D01*
X144456086Y-62934517D01*
X144444398Y-62939526D01*
X144280909Y-63030150D01*
X144270476Y-63037401D01*
X144128541Y-63159053D01*
X144119788Y-63168244D01*
X144005208Y-63315961D01*
X143998484Y-63326721D01*
X143915948Y-63494457D01*
X143911520Y-63506364D01*
X143894146Y-63573066D01*
X141086761Y-63573066D01*
X141029506Y-63417452D01*
X141023932Y-63406024D01*
X140925430Y-63247157D01*
X140917680Y-63237093D01*
X140789243Y-63101275D01*
X140779623Y-63092972D01*
X140626498Y-62985752D01*
X140615409Y-62979555D01*
X140443847Y-62905313D01*
X140431744Y-62901474D01*
X140260965Y-62865796D01*
X140246904Y-62866919D01*
X140243229Y-62877026D01*
X140243229Y-63572482D01*
X139735229Y-63572482D01*
X139735229Y-62885207D01*
X139731013Y-62870847D01*
X139718534Y-62868788D01*
X139646898Y-62876064D01*
X139634459Y-62878618D01*
X139456086Y-62934517D01*
X139444398Y-62939526D01*
X139280909Y-63030150D01*
X139270476Y-63037401D01*
X139128541Y-63159053D01*
X139119788Y-63168244D01*
X139005208Y-63315961D01*
X138998484Y-63326721D01*
X138915948Y-63494457D01*
X138911520Y-63506364D01*
X138894146Y-63573066D01*
X124968500Y-63573066D01*
X124968500Y-62283250D01*
X124970246Y-62262345D01*
X124972770Y-62247344D01*
X124972770Y-62247341D01*
X124973576Y-62242552D01*
X124973729Y-62230000D01*
X124972003Y-62217947D01*
X124971001Y-62191845D01*
X124985340Y-61973078D01*
X124987491Y-61956738D01*
X125032323Y-61731351D01*
X125036112Y-61712304D01*
X125040375Y-61696394D01*
X125100324Y-61519789D01*
X138036229Y-61519789D01*
X138036552Y-61526164D01*
X138050234Y-61660864D01*
X138052788Y-61673304D01*
X138106864Y-61845861D01*
X138111873Y-61857549D01*
X138199543Y-62015708D01*
X138206794Y-62026141D01*
X138324473Y-62163440D01*
X138333682Y-62172209D01*
X138476562Y-62283039D01*
X138487342Y-62289775D01*
X138649603Y-62369616D01*
X138661502Y-62374042D01*
X138717698Y-62388679D01*
X138731793Y-62388245D01*
X138735229Y-62380064D01*
X138735229Y-62378498D01*
X139243229Y-62378498D01*
X139247202Y-62392029D01*
X139253304Y-62392906D01*
X139403165Y-62337767D01*
X139414571Y-62332205D01*
X139568273Y-62236906D01*
X139578334Y-62229157D01*
X139709725Y-62104907D01*
X139718028Y-62095287D01*
X139821752Y-61947154D01*
X139827949Y-61936066D01*
X139899769Y-61770102D01*
X139903611Y-61757990D01*
X139940906Y-61579463D01*
X139942144Y-61569931D01*
X139942229Y-61566708D01*
X139942229Y-61519789D01*
X145036229Y-61519789D01*
X145036552Y-61526164D01*
X145050234Y-61660864D01*
X145052788Y-61673304D01*
X145106864Y-61845861D01*
X145111873Y-61857549D01*
X145199543Y-62015708D01*
X145206794Y-62026141D01*
X145324473Y-62163440D01*
X145333682Y-62172209D01*
X145476562Y-62283039D01*
X145487342Y-62289775D01*
X145649603Y-62369616D01*
X145661502Y-62374042D01*
X145717698Y-62388679D01*
X145731793Y-62388245D01*
X145735229Y-62380064D01*
X145735229Y-62378498D01*
X146243229Y-62378498D01*
X146247202Y-62392029D01*
X146253304Y-62392906D01*
X146403165Y-62337767D01*
X146414571Y-62332205D01*
X146568273Y-62236906D01*
X146578334Y-62229157D01*
X146709725Y-62104907D01*
X146718028Y-62095287D01*
X146821752Y-61947154D01*
X146827949Y-61936066D01*
X146899769Y-61770102D01*
X146903611Y-61757990D01*
X146940906Y-61579463D01*
X146942144Y-61569931D01*
X146942229Y-61566708D01*
X146942229Y-61416712D01*
X146937754Y-61401473D01*
X146936364Y-61400268D01*
X146928681Y-61398597D01*
X146261344Y-61398597D01*
X146246105Y-61403072D01*
X146244900Y-61404462D01*
X146243229Y-61412145D01*
X146243229Y-62378498D01*
X145735229Y-62378498D01*
X145735229Y-61416712D01*
X145730754Y-61401473D01*
X145729364Y-61400268D01*
X145721681Y-61398597D01*
X145054344Y-61398597D01*
X145039105Y-61403072D01*
X145037900Y-61404462D01*
X145036229Y-61412145D01*
X145036229Y-61519789D01*
X139942229Y-61519789D01*
X139942229Y-61416712D01*
X139937754Y-61401473D01*
X139936364Y-61400268D01*
X139928681Y-61398597D01*
X139261344Y-61398597D01*
X139246105Y-61403072D01*
X139244900Y-61404462D01*
X139243229Y-61412145D01*
X139243229Y-62378498D01*
X138735229Y-62378498D01*
X138735229Y-61416712D01*
X138730754Y-61401473D01*
X138729364Y-61400268D01*
X138721681Y-61398597D01*
X138054344Y-61398597D01*
X138039105Y-61403072D01*
X138037900Y-61404462D01*
X138036229Y-61412145D01*
X138036229Y-61519789D01*
X125100324Y-61519789D01*
X125120485Y-61460398D01*
X125126791Y-61445174D01*
X125237016Y-61221658D01*
X125245257Y-61207384D01*
X125383713Y-61000171D01*
X125393746Y-60987095D01*
X125558068Y-60799722D01*
X125569722Y-60788068D01*
X125757095Y-60623746D01*
X125770171Y-60613713D01*
X125977384Y-60475257D01*
X125991658Y-60467016D01*
X126215174Y-60356791D01*
X126230400Y-60350484D01*
X126466394Y-60270375D01*
X126482304Y-60266112D01*
X126604523Y-60241801D01*
X126726738Y-60217491D01*
X126743078Y-60215340D01*
X126891866Y-60205587D01*
X126958237Y-60201237D01*
X126981350Y-60202267D01*
X126984854Y-60202310D01*
X126993724Y-60203691D01*
X127002626Y-60202527D01*
X127002628Y-60202527D01*
X127019449Y-60200327D01*
X127025286Y-60199564D01*
X127041621Y-60198500D01*
X138025605Y-60198500D01*
X138093726Y-60218502D01*
G37*
%TD.AperFunction*%
%TA.AperFunction,Conductor*%
G36*
X174770613Y-103190082D02*
G01*
X174797851Y-103219232D01*
X174876852Y-103336578D01*
X174883519Y-103344870D01*
X175035846Y-103504548D01*
X175068394Y-103567644D01*
X175061663Y-103638321D01*
X175017789Y-103694139D01*
X174944677Y-103717520D01*
X174434228Y-103717520D01*
X174366107Y-103697518D01*
X174319614Y-103643862D01*
X174309510Y-103573588D01*
X174339004Y-103509008D01*
X174351648Y-103496354D01*
X174415412Y-103441023D01*
X174415414Y-103441021D01*
X174419445Y-103437523D01*
X174481477Y-103361870D01*
X174562240Y-103263373D01*
X174562244Y-103263367D01*
X174565624Y-103259245D01*
X174575520Y-103241861D01*
X174583829Y-103227265D01*
X174634912Y-103177959D01*
X174704542Y-103164098D01*
X174770613Y-103190082D01*
G37*
%TD.AperFunction*%
%TA.AperFunction,Conductor*%
G36*
X174987058Y-88246781D02*
G01*
X175027680Y-88255415D01*
X175158056Y-88283128D01*
X175158061Y-88283128D01*
X175164513Y-88284500D01*
X175269903Y-88284500D01*
X175338024Y-88304502D01*
X175358998Y-88321405D01*
X176446115Y-89408521D01*
X176480140Y-89470833D01*
X176483020Y-89497616D01*
X176483020Y-100811941D01*
X176463018Y-100880062D01*
X176409362Y-100926555D01*
X176339088Y-100936659D01*
X176319656Y-100932274D01*
X176239760Y-100907466D01*
X176229376Y-100905183D01*
X176213957Y-100903139D01*
X176199793Y-100905335D01*
X176196000Y-100918522D01*
X176196000Y-102490000D01*
X176175998Y-102558121D01*
X176122342Y-102604614D01*
X176070000Y-102616000D01*
X175814000Y-102616000D01*
X175745879Y-102595998D01*
X175699386Y-102542342D01*
X175688000Y-102490000D01*
X175688000Y-100920808D01*
X175684027Y-100907277D01*
X175673420Y-100905752D01*
X175555579Y-100930477D01*
X175545383Y-100933537D01*
X175340971Y-101014263D01*
X175331439Y-101018994D01*
X175143538Y-101133016D01*
X175134948Y-101139280D01*
X174968948Y-101283327D01*
X174961528Y-101290958D01*
X174822174Y-101460911D01*
X174816152Y-101469674D01*
X174800762Y-101496711D01*
X174749680Y-101546018D01*
X174680049Y-101559880D01*
X174613978Y-101533897D01*
X174586739Y-101504747D01*
X174519198Y-101404425D01*
X174504559Y-101382681D01*
X174497179Y-101374944D01*
X174417059Y-101290958D01*
X174345424Y-101215865D01*
X174336945Y-101209556D01*
X174180057Y-101092828D01*
X174160458Y-101078246D01*
X174155707Y-101075830D01*
X174155703Y-101075828D01*
X174109395Y-101052284D01*
X174057737Y-101003580D01*
X174040500Y-100939967D01*
X174040500Y-97163000D01*
X174060502Y-97094879D01*
X174114158Y-97048386D01*
X174166500Y-97037000D01*
X174339487Y-97037000D01*
X174345939Y-97035628D01*
X174345944Y-97035628D01*
X174447500Y-97014041D01*
X174526288Y-96997294D01*
X174532319Y-96994609D01*
X174694722Y-96922303D01*
X174694724Y-96922302D01*
X174700752Y-96919618D01*
X174855253Y-96807366D01*
X174891207Y-96767435D01*
X174978621Y-96670352D01*
X174978622Y-96670351D01*
X174983040Y-96665444D01*
X175078527Y-96500056D01*
X175137542Y-96318428D01*
X175142858Y-96267854D01*
X175156814Y-96135065D01*
X175157504Y-96128500D01*
X175148963Y-96047236D01*
X175138232Y-95945135D01*
X175138232Y-95945133D01*
X175137542Y-95938572D01*
X175078527Y-95756944D01*
X174983040Y-95591556D01*
X174963573Y-95569935D01*
X174867233Y-95462939D01*
X174836515Y-95398932D01*
X174834869Y-95378629D01*
X174834869Y-88370029D01*
X174854871Y-88301908D01*
X174908527Y-88255415D01*
X174978801Y-88245311D01*
X174987058Y-88246781D01*
G37*
%TD.AperFunction*%
%TD*%
M02*
