%TF.GenerationSoftware,KiCad,Pcbnew,(6.0.5-0)*%
%TF.CreationDate,2022-06-13T17:31:05+02:00*%
%TF.ProjectId,Transportino,5472616e-7370-46f7-9274-696e6f2e6b69,v01*%
%TF.SameCoordinates,Original*%
%TF.FileFunction,Paste,Top*%
%TF.FilePolarity,Positive*%
%FSLAX46Y46*%
G04 Gerber Fmt 4.6, Leading zero omitted, Abs format (unit mm)*
G04 Created by KiCad (PCBNEW (6.0.5-0)) date 2022-06-13 17:31:05*
%MOMM*%
%LPD*%
G01*
G04 APERTURE LIST*
G04 Aperture macros list*
%AMRoundRect*
0 Rectangle with rounded corners*
0 $1 Rounding radius*
0 $2 $3 $4 $5 $6 $7 $8 $9 X,Y pos of 4 corners*
0 Add a 4 corners polygon primitive as box body*
4,1,4,$2,$3,$4,$5,$6,$7,$8,$9,$2,$3,0*
0 Add four circle primitives for the rounded corners*
1,1,$1+$1,$2,$3*
1,1,$1+$1,$4,$5*
1,1,$1+$1,$6,$7*
1,1,$1+$1,$8,$9*
0 Add four rect primitives between the rounded corners*
20,1,$1+$1,$2,$3,$4,$5,0*
20,1,$1+$1,$4,$5,$6,$7,0*
20,1,$1+$1,$6,$7,$8,$9,0*
20,1,$1+$1,$8,$9,$2,$3,0*%
%AMHorizOval*
0 Thick line with rounded ends*
0 $1 width*
0 $2 $3 position (X,Y) of the first rounded end (center of the circle)*
0 $4 $5 position (X,Y) of the second rounded end (center of the circle)*
0 Add line between two ends*
20,1,$1,$2,$3,$4,$5,0*
0 Add two circle primitives to create the rounded ends*
1,1,$1,$2,$3*
1,1,$1,$4,$5*%
G04 Aperture macros list end*
%ADD10RoundRect,0.250000X-0.325000X-0.650000X0.325000X-0.650000X0.325000X0.650000X-0.325000X0.650000X0*%
%ADD11RoundRect,0.250000X0.312500X0.625000X-0.312500X0.625000X-0.312500X-0.625000X0.312500X-0.625000X0*%
%ADD12R,1.600000X1.300000*%
%ADD13R,1.500000X2.400000*%
%ADD14RoundRect,0.250000X0.650000X-0.325000X0.650000X0.325000X-0.650000X0.325000X-0.650000X-0.325000X0*%
%ADD15RoundRect,0.250000X-1.050000X-0.550000X1.050000X-0.550000X1.050000X0.550000X-1.050000X0.550000X0*%
%ADD16RoundRect,0.200000X-0.200000X-0.800000X0.200000X-0.800000X0.200000X0.800000X-0.200000X0.800000X0*%
%ADD17RoundRect,0.250000X-0.312500X-0.625000X0.312500X-0.625000X0.312500X0.625000X-0.312500X0.625000X0*%
%ADD18RoundRect,0.250000X-0.650000X0.325000X-0.650000X-0.325000X0.650000X-0.325000X0.650000X0.325000X0*%
%ADD19R,4.550000X5.250000*%
%ADD20R,4.600000X1.100000*%
%ADD21RoundRect,0.250000X0.325000X0.650000X-0.325000X0.650000X-0.325000X-0.650000X0.325000X-0.650000X0*%
%ADD22RoundRect,0.075000X-0.350000X-0.075000X0.350000X-0.075000X0.350000X0.075000X-0.350000X0.075000X0*%
%ADD23RoundRect,0.075000X0.075000X-0.350000X0.075000X0.350000X-0.075000X0.350000X-0.075000X-0.350000X0*%
%ADD24R,2.500000X1.800000*%
%ADD25RoundRect,0.250000X-1.412500X-0.550000X1.412500X-0.550000X1.412500X0.550000X-1.412500X0.550000X0*%
%ADD26RoundRect,0.250000X-0.375000X-0.625000X0.375000X-0.625000X0.375000X0.625000X-0.375000X0.625000X0*%
%ADD27RoundRect,0.150000X0.650000X0.150000X-0.650000X0.150000X-0.650000X-0.150000X0.650000X-0.150000X0*%
%ADD28R,1.500000X2.000000*%
%ADD29R,3.800000X2.000000*%
%ADD30R,1.750000X0.450000*%
%ADD31HorizOval,0.200000X0.238649X0.238649X-0.238649X-0.238649X0*%
%ADD32HorizOval,0.200000X-0.238649X0.238649X0.238649X-0.238649X0*%
%ADD33RoundRect,0.250001X-1.999999X-0.799999X1.999999X-0.799999X1.999999X0.799999X-1.999999X0.799999X0*%
%ADD34O,1.250000X0.950000*%
%ADD35O,0.890000X1.550000*%
%ADD36R,0.400000X1.350000*%
%ADD37R,1.500000X1.550000*%
%ADD38R,1.200000X1.550000*%
G04 APERTURE END LIST*
D10*
%TO.C,C8*%
X150671000Y-81026000D03*
X153621000Y-81026000D03*
%TD*%
D11*
%TO.C,R6*%
X135066500Y-98298000D03*
X132141500Y-98298000D03*
%TD*%
D12*
%TO.C,Y1*%
X167642000Y-85344000D03*
X170942000Y-85344000D03*
X170942000Y-83344000D03*
X167642000Y-83344000D03*
%TD*%
D13*
%TO.C,L1*%
X179026000Y-73660000D03*
X173526000Y-73660000D03*
%TD*%
D10*
%TO.C,C4*%
X203503000Y-82804000D03*
X206453000Y-82804000D03*
%TD*%
%TO.C,C9*%
X154989000Y-96266000D03*
X157939000Y-96266000D03*
%TD*%
%TO.C,C19*%
X139495000Y-80264000D03*
X142445000Y-80264000D03*
%TD*%
D11*
%TO.C,R5*%
X135066500Y-103124000D03*
X132141500Y-103124000D03*
%TD*%
%TO.C,R9*%
X168848500Y-76708000D03*
X165923500Y-76708000D03*
%TD*%
D10*
%TO.C,C17*%
X167943000Y-89154000D03*
X170893000Y-89154000D03*
%TD*%
D14*
%TO.C,C26*%
X130302000Y-83517000D03*
X130302000Y-80567000D03*
%TD*%
D10*
%TO.C,C11*%
X134669000Y-90170000D03*
X137619000Y-90170000D03*
%TD*%
D15*
%TO.C,C3*%
X205210000Y-95250000D03*
X208810000Y-95250000D03*
%TD*%
D10*
%TO.C,C25*%
X158594000Y-70104000D03*
X161544000Y-70104000D03*
%TD*%
D16*
%TO.C,SW1*%
X139378000Y-87122000D03*
X143578000Y-87122000D03*
%TD*%
D17*
%TO.C,R4*%
X143571500Y-84074000D03*
X146496500Y-84074000D03*
%TD*%
D18*
%TO.C,C22*%
X168656000Y-71423000D03*
X168656000Y-74373000D03*
%TD*%
D14*
%TO.C,C23*%
X133858000Y-83263000D03*
X133858000Y-80313000D03*
%TD*%
D19*
%TO.C,U5*%
X190434000Y-79483000D03*
X195284000Y-73933000D03*
X195284000Y-79483000D03*
X190434000Y-73933000D03*
D20*
X183709000Y-73308000D03*
X183709000Y-75008000D03*
X183709000Y-76708000D03*
X183709000Y-78408000D03*
X183709000Y-80108000D03*
%TD*%
D21*
%TO.C,C10*%
X164543000Y-94234000D03*
X161593000Y-94234000D03*
%TD*%
D22*
%TO.C,U4*%
X127590000Y-88158000D03*
X127590000Y-88658000D03*
X127590000Y-89158000D03*
X127590000Y-89658000D03*
X127590000Y-90158000D03*
X127590000Y-90658000D03*
D23*
X128290000Y-91358000D03*
X128790000Y-91358000D03*
X129290000Y-91358000D03*
X129790000Y-91358000D03*
X130290000Y-91358000D03*
X130790000Y-91358000D03*
D22*
X131490000Y-90658000D03*
X131490000Y-90158000D03*
X131490000Y-89658000D03*
X131490000Y-89158000D03*
X131490000Y-88658000D03*
X131490000Y-88158000D03*
D23*
X130790000Y-87458000D03*
X130290000Y-87458000D03*
X129790000Y-87458000D03*
X129290000Y-87458000D03*
X128790000Y-87458000D03*
X128290000Y-87458000D03*
%TD*%
D14*
%TO.C,C7*%
X149098000Y-78437000D03*
X149098000Y-75487000D03*
%TD*%
D11*
%TO.C,R8*%
X163006500Y-76708000D03*
X160081500Y-76708000D03*
%TD*%
D10*
%TO.C,C14*%
X147005557Y-89399521D03*
X149955557Y-89399521D03*
%TD*%
D17*
%TO.C,R1*%
X138999500Y-69850000D03*
X141924500Y-69850000D03*
%TD*%
D24*
%TO.C,D3*%
X180372000Y-65532000D03*
X184372000Y-65532000D03*
%TD*%
D14*
%TO.C,C24*%
X128778000Y-100281000D03*
X128778000Y-97331000D03*
%TD*%
D10*
%TO.C,C2*%
X205535000Y-102362000D03*
X208485000Y-102362000D03*
%TD*%
%TO.C,C16*%
X142892641Y-92723170D03*
X145842641Y-92723170D03*
%TD*%
D25*
%TO.C,C21*%
X192026500Y-65278000D03*
X197101500Y-65278000D03*
%TD*%
D10*
%TO.C,C5*%
X138225000Y-94234000D03*
X141175000Y-94234000D03*
%TD*%
D26*
%TO.C,D1*%
X137284000Y-103124000D03*
X140084000Y-103124000D03*
%TD*%
D27*
%TO.C,U3*%
X146602000Y-78105000D03*
X146602000Y-76835000D03*
X146602000Y-75565000D03*
X146602000Y-74295000D03*
X139402000Y-74295000D03*
X139402000Y-75565000D03*
X139402000Y-76835000D03*
X139402000Y-78105000D03*
%TD*%
D28*
%TO.C,U6*%
X156224000Y-71780000D03*
D29*
X153924000Y-78080000D03*
D28*
X153924000Y-71780000D03*
X151624000Y-71780000D03*
%TD*%
D30*
%TO.C,U2*%
X193504000Y-87103000D03*
X193504000Y-87753000D03*
X193504000Y-88403000D03*
X193504000Y-89053000D03*
X193504000Y-89703000D03*
X193504000Y-90353000D03*
X193504000Y-91003000D03*
X193504000Y-91653000D03*
X193504000Y-92303000D03*
X193504000Y-92953000D03*
X193504000Y-93603000D03*
X193504000Y-94253000D03*
X200704000Y-94253000D03*
X200704000Y-93603000D03*
X200704000Y-92953000D03*
X200704000Y-92303000D03*
X200704000Y-91653000D03*
X200704000Y-91003000D03*
X200704000Y-90353000D03*
X200704000Y-89703000D03*
X200704000Y-89053000D03*
X200704000Y-88403000D03*
X200704000Y-87753000D03*
X200704000Y-87103000D03*
%TD*%
D10*
%TO.C,C1*%
X159815000Y-97028000D03*
X162765000Y-97028000D03*
%TD*%
%TO.C,C15*%
X136447000Y-83312000D03*
X139397000Y-83312000D03*
%TD*%
D31*
%TO.C,U1*%
X153037787Y-89238202D03*
X153320630Y-89521045D03*
X153603472Y-89803887D03*
X153886315Y-90086730D03*
X154169158Y-90369573D03*
X154452000Y-90652415D03*
X154734843Y-90935258D03*
X155017686Y-91218101D03*
X155300529Y-91500944D03*
X155583371Y-91783786D03*
X155866214Y-92066629D03*
X156149057Y-92349472D03*
X156431899Y-92632314D03*
X156714742Y-92915157D03*
D32*
X157899146Y-92915157D03*
X158181989Y-92632314D03*
X158464831Y-92349472D03*
X158747674Y-92066629D03*
X159030517Y-91783786D03*
X159313359Y-91500944D03*
X159596202Y-91218101D03*
X159879045Y-90935258D03*
X160161888Y-90652415D03*
X160444730Y-90369573D03*
X160727573Y-90086730D03*
X161010416Y-89803887D03*
X161293258Y-89521045D03*
X161576101Y-89238202D03*
D31*
X161576101Y-88053798D03*
X161293258Y-87770955D03*
X161010416Y-87488113D03*
X160727573Y-87205270D03*
X160444730Y-86922427D03*
X160161888Y-86639585D03*
X159879045Y-86356742D03*
X159596202Y-86073899D03*
X159313359Y-85791056D03*
X159030517Y-85508214D03*
X158747674Y-85225371D03*
X158464831Y-84942528D03*
X158181989Y-84659686D03*
X157899146Y-84376843D03*
D32*
X156714742Y-84376843D03*
X156431899Y-84659686D03*
X156149057Y-84942528D03*
X155866214Y-85225371D03*
X155583371Y-85508214D03*
X155300529Y-85791056D03*
X155017686Y-86073899D03*
X154734843Y-86356742D03*
X154452000Y-86639585D03*
X154169158Y-86922427D03*
X153886315Y-87205270D03*
X153603472Y-87488113D03*
X153320630Y-87770955D03*
X153037787Y-88053798D03*
%TD*%
D26*
%TO.C,D2*%
X137284000Y-98298000D03*
X140084000Y-98298000D03*
%TD*%
D33*
%TO.C,C27*%
X166580000Y-65278000D03*
X173780000Y-65278000D03*
%TD*%
D10*
%TO.C,C18*%
X167894000Y-94234000D03*
X170844000Y-94234000D03*
%TD*%
D15*
%TO.C,C6*%
X203432000Y-76200000D03*
X207032000Y-76200000D03*
%TD*%
D21*
%TO.C,C20*%
X133047000Y-77216000D03*
X130097000Y-77216000D03*
%TD*%
D10*
%TO.C,C13*%
X132383000Y-93980000D03*
X135333000Y-93980000D03*
%TD*%
D11*
%TO.C,R2*%
X146496500Y-69850000D03*
X143571500Y-69850000D03*
%TD*%
D17*
%TO.C,R7*%
X162937000Y-72898000D03*
X165862000Y-72898000D03*
%TD*%
%TO.C,R3*%
X162113500Y-83312000D03*
X165038500Y-83312000D03*
%TD*%
D21*
%TO.C,C12*%
X158447000Y-81026000D03*
X155497000Y-81026000D03*
%TD*%
D34*
%TO.C,J5*%
X139989229Y-63844597D03*
D35*
X138989229Y-61144597D03*
D34*
X144989229Y-63844597D03*
D35*
X145989229Y-61144597D03*
D36*
X143789229Y-63844597D03*
X143139229Y-63844597D03*
X142489229Y-63844597D03*
X141839229Y-63844597D03*
X141189229Y-63844597D03*
D37*
X141489229Y-61144597D03*
D38*
X145389229Y-61144597D03*
X139589229Y-61144597D03*
D37*
X143489229Y-61144597D03*
%TD*%
M02*
